<?xml version="1.0" encoding="utf-8"?>
<svg id="master-artboard" viewBox="0 0 1375.9332275390625 493.85125732421875" version="1.1" xmlns="http://www.w3.org/2000/svg" x="0px" y="0px" style="enable-background:new 0 0 336 235.2;" width="1375.9332275390625px" height="493.85125732421875px"><defs><path id="text-path-0" d="M 591.2705688476562 330.2113342285156 A 100 7 0 0 1 759.3541259765625 330.2113342285156 A 100 7 0 0 1 591.2705688476562 330.2113342285156 Z" style="fill: none; stroke: red; stroke-width: 2;"/></defs><g transform="matrix(1.6441636085510254, 0, 0, 1.6441636085510254, -492.7524692456791, -265.75445556640625)"><g transform="matrix(0.9999998754384566, 0, 0, 0.9999998754384566, 0.000050375190539853065, 0.000005807494289911119)"><g transform="matrix(0.523468792438507, 0, 0, 0.523468792438507, 808.306125682392, 173.6213841226627)"><path style="fill:#464655;" d="M494.345,39.724H17.655C7.904,39.724,0,47.628,0,57.379v282.483h512V57.379&#10;&#9;C512,47.628,504.096,39.724,494.345,39.724z M485.517,313.379H26.483V66.207h459.034V313.379z"/><g>
	<path style="fill:#FFFFFF;" d="M203.033,176.552c2.44,0,4.414,1.974,4.414,4.414h13.241v-13.241h-17.655&#10;&#9;&#9;c-2.44,0-4.414-1.974-4.414-4.414c0-2.44,1.974-4.414,4.414-4.414h17.655v-57.379H141.24v79.448h57.379&#10;&#9;&#9;C198.62,178.526,200.594,176.552,203.033,176.552z"/>
	<path style="fill:#FFFFFF;" d="M26.483,313.379h459.034V66.207H26.483V313.379z M220.689,291.31h-17.655&#10;&#9;&#9;c-2.44,0-4.414-1.974-4.414-4.414s1.974-4.414,4.414-4.414h17.655c2.44,0,4.414,1.974,4.414,4.414S223.128,291.31,220.689,291.31z&#10;&#9;&#9; M203.033,247.172c2.44,0,4.414,1.974,4.414,4.414v17.655c0,2.44-1.974,4.414-4.414,4.414s-4.414-1.974-4.414-4.414v-17.655&#10;&#9;&#9;C198.62,249.146,200.594,247.172,203.033,247.172z M198.62,233.931v-17.655c0-2.44,1.974-4.414,4.414-4.414&#10;&#9;&#9;s4.414,1.974,4.414,4.414v17.655c0,2.44-1.974,4.414-4.414,4.414S198.62,236.371,198.62,233.931z M255.999,291.31h-17.655&#10;&#9;&#9;c-2.44,0-4.414-1.974-4.414-4.414s1.974-4.414,4.414-4.414h17.655c2.44,0,4.414,1.974,4.414,4.414S258.439,291.31,255.999,291.31z&#10;&#9;&#9; M331.033,269.241c0,2.44-1.974,4.414-4.414,4.414s-4.414-1.974-4.414-4.414v-17.655c0-2.44,1.974-4.414,4.414-4.414&#10;&#9;&#9;s4.414,1.974,4.414,4.414V269.241z M331.033,233.931c0,2.44-1.974,4.414-4.414,4.414s-4.414-1.974-4.414-4.414v-17.655&#10;&#9;&#9;c0-2.44,1.974-4.414,4.414-4.414s4.414,1.974,4.414,4.414V233.931z M331.033,198.621c0,2.44-1.974,4.414-4.414,4.414&#10;&#9;&#9;s-4.414-1.974-4.414-4.414v-17.655c0-2.44,1.974-4.414,4.414-4.414s4.414,1.974,4.414,4.414V198.621z M370.759,207.448v-61.793&#10;&#9;&#9;V92.69c0-4.875,3.953-8.828,8.828-8.828h79.448c4.875,0,8.828,3.953,8.828,8.828v52.966v61.793v79.448&#10;&#9;&#9;c0,4.875-3.953,8.828-8.828,8.828h-79.448c-4.875,0-8.828-3.953-8.828-8.828V207.448z M308.964,158.897h17.655&#10;&#9;&#9;c2.44,0,4.414,1.974,4.414,4.414c0,2.44-1.974,4.414-4.414,4.414h-17.655c-2.44,0-4.414-1.974-4.414-4.414&#10;&#9;&#9;C304.551,160.871,306.525,158.897,308.964,158.897z M308.964,282.483h17.655c2.44,0,4.414,1.974,4.414,4.414&#10;&#9;&#9;s-1.974,4.414-4.414,4.414h-17.655c-2.44,0-4.414-1.974-4.414-4.414S306.525,282.483,308.964,282.483z M273.654,158.897h17.655&#10;&#9;&#9;c2.44,0,4.414,1.974,4.414,4.414c0,2.44-1.974,4.414-4.414,4.414h-17.655c-2.44,0-4.414-1.974-4.414-4.414&#10;&#9;&#9;C269.24,160.871,271.214,158.897,273.654,158.897z M273.654,282.483h17.655c2.44,0,4.414,1.974,4.414,4.414&#10;&#9;&#9;s-1.974,4.414-4.414,4.414h-17.655c-2.44,0-4.414-1.974-4.414-4.414S271.214,282.483,273.654,282.483z M123.585,92.69&#10;&#9;&#9;c0-4.879,3.953-8.828,8.828-8.828h97.103c4.875,0,8.828,3.948,8.828,8.828v66.207h17.655c2.44,0,4.414,1.974,4.414,4.414&#10;&#9;&#9;c0,2.44-1.974,4.414-4.414,4.414h-17.655v22.069c0,0.957-0.157,1.877-0.438,2.739l23.165,20.754&#10;&#9;&#9;c1.919,1.719,1.419,4.847-0.94,5.884l-8.778,3.853l7.84,17.857c0.979,2.232-0.039,4.836-2.268,5.818&#10;&#9;&#9;c-0.577,0.25-1.181,0.371-1.771,0.371c-1.703,0-3.319-0.983-4.047-2.638l-7.841-17.859l-8.781,3.854&#10;&#9;&#9;c-2.359,1.036-5.001-0.714-4.967-3.29l0.371-28.534c-0.125,0.006-0.247,0.019-0.373,0.019h-22.069c0,2.44-1.974,4.414-4.414,4.414&#10;&#9;&#9;s-4.414-1.974-4.414-4.414h-66.207c-4.875,0-8.828-3.948-8.828-8.828V92.69H123.585z M44.138,92.69&#10;&#9;&#9;c0-4.875,3.953-8.828,8.828-8.828h26.483c4.875,0,8.828,3.953,8.828,8.828v194.207c0,4.875-3.953,8.828-8.828,8.828H52.966&#10;&#9;&#9;c-4.875,0-8.828-3.953-8.828-8.828V92.69z"/>
</g><path style="fill:#BEC8DC;" d="M0,375.172c0,9.751,7.904,17.655,17.655,17.655h167.724h141.241h167.724&#10;&#9;c9.751,0,17.655-7.904,17.655-17.655v-35.31H0V375.172z M256,353.103c7.313,0,13.241,5.929,13.241,13.241&#10;&#9;s-5.929,13.241-13.241,13.241c-7.313,0-13.241-5.929-13.241-13.241S248.687,353.103,256,353.103z"/><path d="M 177.65499877929688 454.6210021972656 L 334.3450012207031 454.6210021972656 L 328.8280029296875 410.4830017089844 L 183.1719970703125 410.4830017089844 Z" style="fill:#AFBBD0;"/><path style="fill:#BEC8DC;" d="M176.552,454.621c-4.875,0-8.828,3.953-8.828,8.828s3.953,8.828,8.828,8.828h158.897&#10;&#9;c4.875,0,8.828-3.953,8.828-8.828s-3.953-8.828-8.828-8.828h-1.103h-156.69H176.552z"/><g>
	<path d="M 183.1719970703125 410.4830017089844 L 328.8280029296875 410.4830017089844 L 326.6210021972656 392.8280029296875 L 185.37899780273438 392.8280029296875 Z" style="fill:#96A5B9;"/>
	<path d="M 269.241 366.345001 A 13.241 13.241 0 0 1 256 379.586001 A 13.241 13.241 0 0 1 242.759 366.345001 A 13.241 13.241 0 0 1 256 353.104001 A 13.241 13.241 0 0 1 269.241 366.345001 Z" style="fill:#96A5B9;"/>
</g><path style="fill:#BEC8DC;" d="M52.966,295.724h26.483c4.875,0,8.828-3.953,8.828-8.828V92.69c0-4.875-3.953-8.828-8.828-8.828&#10;&#9;H52.966c-4.875,0-8.828,3.953-8.828,8.828v194.207C44.138,291.772,48.09,295.724,52.966,295.724z M61.793,101.517h8.828&#10;&#9;c4.875,0,8.828,3.953,8.828,8.828c0,4.875-3.953,8.828-8.828,8.828h-8.828c-4.875,0-8.828-3.953-8.828-8.828&#10;&#9;C52.966,105.47,56.918,101.517,61.793,101.517z M61.793,128h8.828c4.875,0,8.828,3.953,8.828,8.828c0,4.875-3.953,8.828-8.828,8.828&#10;&#9;h-8.828c-4.875,0-8.828-3.953-8.828-8.828C52.966,131.953,56.918,128,61.793,128z M61.793,154.483h8.828&#10;&#9;c4.875,0,8.828,3.953,8.828,8.828s-3.953,8.828-8.828,8.828h-8.828c-4.875,0-8.828-3.953-8.828-8.828S56.918,154.483,61.793,154.483&#10;&#9;z M61.793,180.966h8.828c4.875,0,8.828,3.953,8.828,8.828s-3.953,8.828-8.828,8.828h-8.828c-4.875,0-8.828-3.953-8.828-8.828&#10;&#9;S56.918,180.966,61.793,180.966z M61.793,207.448h8.828c4.875,0,8.828,3.953,8.828,8.828s-3.953,8.828-8.828,8.828h-8.828&#10;&#9;c-4.875,0-8.828-3.953-8.828-8.828S56.918,207.448,61.793,207.448z M52.966,251.586c0-4.875,3.953-8.828,8.828-8.828h8.828&#10;&#9;c4.875,0,8.828,3.953,8.828,8.828v17.655c0,4.875-3.953,8.828-8.828,8.828h-8.828c-4.875,0-8.828-3.953-8.828-8.828V251.586z"/><path style="fill:#E4EAF6;" d="M61.793,119.172h8.828c4.875,0,8.828-3.953,8.828-8.828c0-4.875-3.953-8.828-8.828-8.828h-8.828&#10;&#9;c-4.875,0-8.828,3.953-8.828,8.828C52.966,115.22,56.918,119.172,61.793,119.172z"/><path style="fill:#96A5B9;" d="M61.793,145.655h8.828c4.875,0,8.828-3.953,8.828-8.828c0-4.875-3.953-8.828-8.828-8.828h-8.828&#10;&#9;c-4.875,0-8.828,3.953-8.828,8.828C52.966,141.703,56.918,145.655,61.793,145.655z"/><g>
	<path style="fill:#E4EAF6;" d="M61.793,172.138h8.828c4.875,0,8.828-3.953,8.828-8.828s-3.953-8.828-8.828-8.828h-8.828&#10;&#9;&#9;c-4.875,0-8.828,3.953-8.828,8.828S56.918,172.138,61.793,172.138z"/>
	<path style="fill:#E4EAF6;" d="M61.793,198.621h8.828c4.875,0,8.828-3.953,8.828-8.828s-3.953-8.828-8.828-8.828h-8.828&#10;&#9;&#9;c-4.875,0-8.828,3.953-8.828,8.828S56.918,198.621,61.793,198.621z"/>
	<path style="fill:#E4EAF6;" d="M61.793,225.103h8.828c4.875,0,8.828-3.953,8.828-8.828s-3.953-8.828-8.828-8.828h-8.828&#10;&#9;&#9;c-4.875,0-8.828,3.953-8.828,8.828S56.918,225.103,61.793,225.103z"/>
</g><path style="fill:#96A5B9;" d="M61.793,278.069h8.828c4.875,0,8.828-3.953,8.828-8.828v-17.655c0-4.875-3.953-8.828-8.828-8.828&#10;&#9;h-8.828c-4.875,0-8.828,3.953-8.828,8.828v17.655C52.966,274.116,56.917,278.069,61.793,278.069z"/><g>
	<path style="fill:#BEC8DC;" d="M467.862,92.69c0-4.875-3.953-8.828-8.828-8.828h-79.448c-4.875,0-8.828,3.953-8.828,8.828v52.966&#10;&#9;&#9;h97.103V92.69z M454.621,136.828h-35.31h-8.828H384c-2.438,0-4.414-1.976-4.414-4.414S381.562,128,384,128h26.483h8.828h35.31&#10;&#9;&#9;c2.438,0,4.414,1.976,4.414,4.414S457.058,136.828,454.621,136.828z M454.621,119.172h-8.828h-8.828H384&#10;&#9;&#9;c-2.438,0-4.414-1.976-4.414-4.414s1.976-4.414,4.414-4.414h52.966h8.828h8.828c2.438,0,4.414,1.976,4.414,4.414&#10;&#9;&#9;S457.058,119.172,454.621,119.172z M454.621,101.517h-52.966h-8.828H384c-2.438,0-4.414-1.976-4.414-4.414s1.976-4.414,4.414-4.414&#10;&#9;&#9;h8.828h8.828h52.966c2.438,0,4.414,1.976,4.414,4.414S457.058,101.517,454.621,101.517z"/>
	<path style="fill:#BEC8DC;" d="M379.586,295.724h79.448c4.875,0,8.828-3.953,8.828-8.828v-79.448h-97.103v79.448&#10;&#9;&#9;C370.759,291.772,374.711,295.724,379.586,295.724z M419.31,216.276h35.31c2.438,0,4.414,1.976,4.414,4.414&#10;&#9;&#9;s-1.976,4.414-4.414,4.414h-35.31c-2.438,0-4.414-1.976-4.414-4.414S416.873,216.276,419.31,216.276z M419.31,233.931h35.31&#10;&#9;&#9;c2.438,0,4.414,1.976,4.414,4.414c0,2.438-1.976,4.414-4.414,4.414h-35.31c-2.438,0-4.414-1.976-4.414-4.414&#10;&#9;&#9;C414.897,235.907,416.873,233.931,419.31,233.931z M419.31,251.586h35.31c2.438,0,4.414,1.976,4.414,4.414&#10;&#9;&#9;c0,2.438-1.976,4.414-4.414,4.414h-35.31c-2.438,0-4.414-1.976-4.414-4.414C414.897,253.562,416.873,251.586,419.31,251.586z&#10;&#9;&#9; M419.31,269.241h35.31c2.438,0,4.414,1.976,4.414,4.414c0,2.438-1.976,4.414-4.414,4.414h-35.31c-2.438,0-4.414-1.976-4.414-4.414&#10;&#9;&#9;C414.897,271.218,416.873,269.241,419.31,269.241z M401.655,216.276L401.655,216.276c2.438,0,4.414,1.976,4.414,4.414&#10;&#9;&#9;s-1.976,4.414-4.414,4.414l0,0c-2.438,0-4.414-1.976-4.414-4.414S399.218,216.276,401.655,216.276z M401.655,233.931&#10;&#9;&#9;L401.655,233.931c2.438,0,4.414,1.976,4.414,4.414c0,2.438-1.976,4.414-4.414,4.414l0,0c-2.438,0-4.414-1.976-4.414-4.414&#10;&#9;&#9;C397.241,235.907,399.218,233.931,401.655,233.931z M401.655,251.586L401.655,251.586c2.438,0,4.414,1.976,4.414,4.414&#10;&#9;&#9;c0,2.438-1.976,4.414-4.414,4.414l0,0c-2.438,0-4.414-1.976-4.414-4.414C397.241,253.562,399.218,251.586,401.655,251.586z&#10;&#9;&#9; M401.655,269.241L401.655,269.241c2.438,0,4.414,1.976,4.414,4.414c0,2.438-1.976,4.414-4.414,4.414l0,0&#10;&#9;&#9;c-2.438,0-4.414-1.976-4.414-4.414C397.241,271.218,399.218,269.241,401.655,269.241z M384,216.276L384,216.276&#10;&#9;&#9;c2.438,0,4.414,1.976,4.414,4.414s-1.976,4.414-4.414,4.414l0,0c-2.438,0-4.414-1.976-4.414-4.414S381.562,216.276,384,216.276z&#10;&#9;&#9; M384,233.931L384,233.931c2.438,0,4.414,1.976,4.414,4.414c0,2.438-1.976,4.414-4.414,4.414l0,0c-2.438,0-4.414-1.976-4.414-4.414&#10;&#9;&#9;C379.586,235.907,381.562,233.931,384,233.931z M384,251.586L384,251.586c2.438,0,4.414,1.976,4.414,4.414&#10;&#9;&#9;c0,2.438-1.976,4.414-4.414,4.414l0,0c-2.438,0-4.414-1.976-4.414-4.414C379.586,253.562,381.562,251.586,384,251.586z&#10;&#9;&#9; M384,269.241L384,269.241c2.438,0,4.414,1.976,4.414,4.414c0,2.438-1.976,4.414-4.414,4.414l0,0c-2.438,0-4.414-1.976-4.414-4.414&#10;&#9;&#9;C379.586,271.218,381.562,269.241,384,269.241z"/>
</g><g>
	<path style="fill:#96A5B9;" d="M467.862,145.655h-97.103v61.793h97.103V145.655z M392.828,198.621H384&#10;&#9;&#9;c-2.438,0-4.414-1.976-4.414-4.414s1.976-4.414,4.414-4.414h8.828c2.438,0,4.414,1.976,4.414,4.414&#10;&#9;&#9;S395.265,198.621,392.828,198.621z M392.828,180.966H384c-2.438,0-4.414-1.976-4.414-4.414s1.976-4.414,4.414-4.414h8.828&#10;&#9;&#9;c2.438,0,4.414,1.976,4.414,4.414S395.265,180.966,392.828,180.966z M392.828,163.31H384c-2.438,0-4.414-1.976-4.414-4.414&#10;&#9;&#9;s1.976-4.414,4.414-4.414h8.828c2.438,0,4.414,1.976,4.414,4.414S395.265,163.31,392.828,163.31z M454.621,198.621h-44.138&#10;&#9;&#9;c-2.438,0-4.414-1.976-4.414-4.414s1.976-4.414,4.414-4.414h44.138c2.438,0,4.414,1.976,4.414,4.414&#10;&#9;&#9;S457.058,198.621,454.621,198.621z M454.621,180.966h-44.138c-2.438,0-4.414-1.976-4.414-4.414s1.976-4.414,4.414-4.414h44.138&#10;&#9;&#9;c2.438,0,4.414,1.976,4.414,4.414S457.058,180.966,454.621,180.966z M454.621,163.31h-44.138c-2.438,0-4.414-1.976-4.414-4.414&#10;&#9;&#9;s1.976-4.414,4.414-4.414h44.138c2.438,0,4.414,1.976,4.414,4.414S457.058,163.31,454.621,163.31z"/>
	<path style="fill:#96A5B9;" d="M454.621,92.69h-52.966c2.438,0,4.414,1.976,4.414,4.414s-1.976,4.414-4.414,4.414h52.966&#10;&#9;&#9;c2.438,0,4.414-1.976,4.414-4.414S457.058,92.69,454.621,92.69z"/>
	<path style="fill:#96A5B9;" d="M388.414,97.103c0-2.438,1.976-4.414,4.414-4.414H384c-2.438,0-4.414,1.976-4.414,4.414&#10;&#9;&#9;s1.976,4.414,4.414,4.414h8.828C390.39,101.517,388.414,99.541,388.414,97.103z"/>
	<path style="fill:#96A5B9;" d="M454.621,128h-35.31c2.438,0,4.414,1.976,4.414,4.414s-1.976,4.414-4.414,4.414h35.31&#10;&#9;&#9;c2.438,0,4.414-1.976,4.414-4.414S457.058,128,454.621,128z"/>
	<path style="fill:#96A5B9;" d="M406.069,132.414c0-2.438,1.976-4.414,4.414-4.414H384c-2.438,0-4.414,1.976-4.414,4.414&#10;&#9;&#9;s1.976,4.414,4.414,4.414h26.483C408.045,136.828,406.069,134.851,406.069,132.414z"/>
</g><path style="fill:#BEC8DC;" d="M454.621,154.483h-44.138c-2.438,0-4.414,1.976-4.414,4.414s1.976,4.414,4.414,4.414h44.138&#10;&#9;c2.438,0,4.414-1.976,4.414-4.414S457.058,154.483,454.621,154.483z"/><g>
	<path style="fill:#96A5B9;" d="M432.552,114.759c0-2.438,1.976-4.414,4.414-4.414H384c-2.438,0-4.414,1.976-4.414,4.414&#10;&#9;&#9;s1.976,4.414,4.414,4.414h52.966C434.528,119.172,432.552,117.196,432.552,114.759z"/>
	<path style="fill:#96A5B9;" d="M454.621,110.345h-8.828c2.438,0,4.414,1.976,4.414,4.414s-1.976,4.414-4.414,4.414h8.828&#10;&#9;&#9;c2.438,0,4.414-1.976,4.414-4.414S457.058,110.345,454.621,110.345z"/>
</g><g>
	<path style="fill:#E4EAF6;" d="M406.069,97.103c0-2.438-1.976-4.414-4.414-4.414h-8.828c-2.438,0-4.414,1.976-4.414,4.414&#10;&#9;&#9;s1.976,4.414,4.414,4.414h8.828C404.093,101.517,406.069,99.541,406.069,97.103z"/>
	<path style="fill:#E4EAF6;" d="M423.724,132.414c0-2.438-1.976-4.414-4.414-4.414h-8.828c-2.438,0-4.414,1.976-4.414,4.414&#10;&#9;&#9;s1.976,4.414,4.414,4.414h8.828C421.748,136.828,423.724,134.851,423.724,132.414z"/>
	<path style="fill:#E4EAF6;" d="M392.828,154.483H384c-2.438,0-4.414,1.976-4.414,4.414s1.976,4.414,4.414,4.414h8.828&#10;&#9;&#9;c2.438,0,4.414-1.976,4.414-4.414S395.265,154.483,392.828,154.483z"/>
</g><path style="fill:#BEC8DC;" d="M454.621,172.138h-44.138c-2.438,0-4.414,1.976-4.414,4.414s1.976,4.414,4.414,4.414h44.138&#10;&#9;c2.438,0,4.414-1.976,4.414-4.414S457.058,172.138,454.621,172.138z"/><path style="fill:#E4EAF6;" d="M392.828,172.138H384c-2.438,0-4.414,1.976-4.414,4.414s1.976,4.414,4.414,4.414h8.828&#10;&#9;c2.438,0,4.414-1.976,4.414-4.414S395.265,172.138,392.828,172.138z"/><path style="fill:#BEC8DC;" d="M454.621,189.793h-44.138c-2.438,0-4.414,1.976-4.414,4.414s1.976,4.414,4.414,4.414h44.138&#10;&#9;c2.438,0,4.414-1.976,4.414-4.414S457.058,189.793,454.621,189.793z"/><g>
	<path style="fill:#E4EAF6;" d="M392.828,189.793H384c-2.438,0-4.414,1.976-4.414,4.414s1.976,4.414,4.414,4.414h8.828&#10;&#9;&#9;c2.438,0,4.414-1.976,4.414-4.414S395.265,189.793,392.828,189.793z"/>
	<path style="fill:#E4EAF6;" d="M384,242.759L384,242.759c2.438,0,4.414-1.976,4.414-4.414c0-2.438-1.976-4.414-4.414-4.414l0,0&#10;&#9;&#9;c-2.438,0-4.414,1.976-4.414,4.414C379.586,240.782,381.562,242.759,384,242.759z"/>
	<path style="fill:#E4EAF6;" d="M384,225.103L384,225.103c2.438,0,4.414-1.976,4.414-4.414s-1.976-4.414-4.414-4.414l0,0&#10;&#9;&#9;c-2.438,0-4.414,1.976-4.414,4.414S381.562,225.103,384,225.103z"/>
	<path style="fill:#E4EAF6;" d="M384,278.069L384,278.069c2.438,0,4.414-1.976,4.414-4.414c0-2.438-1.976-4.414-4.414-4.414l0,0&#10;&#9;&#9;c-2.438,0-4.414,1.976-4.414,4.414C379.586,276.093,381.562,278.069,384,278.069z"/>
	<path style="fill:#E4EAF6;" d="M384,260.414L384,260.414c2.438,0,4.414-1.976,4.414-4.414c0-2.438-1.976-4.414-4.414-4.414l0,0&#10;&#9;&#9;c-2.438,0-4.414,1.976-4.414,4.414C379.586,258.438,381.562,260.414,384,260.414z"/>
</g><g>
	<path style="fill:#96A5B9;" d="M401.655,242.759L401.655,242.759c2.438,0,4.414-1.976,4.414-4.414c0-2.438-1.976-4.414-4.414-4.414&#10;&#9;&#9;l0,0c-2.438,0-4.414,1.976-4.414,4.414C397.241,240.782,399.218,242.759,401.655,242.759z"/>
	<path style="fill:#96A5B9;" d="M401.655,225.103L401.655,225.103c2.438,0,4.414-1.976,4.414-4.414s-1.976-4.414-4.414-4.414l0,0&#10;&#9;&#9;c-2.438,0-4.414,1.976-4.414,4.414S399.218,225.103,401.655,225.103z"/>
	<path style="fill:#96A5B9;" d="M401.655,278.069L401.655,278.069c2.438,0,4.414-1.976,4.414-4.414c0-2.438-1.976-4.414-4.414-4.414&#10;&#9;&#9;l0,0c-2.438,0-4.414,1.976-4.414,4.414C397.241,276.093,399.218,278.069,401.655,278.069z"/>
	<path style="fill:#96A5B9;" d="M401.655,260.414L401.655,260.414c2.438,0,4.414-1.976,4.414-4.414c0-2.438-1.976-4.414-4.414-4.414&#10;&#9;&#9;l0,0c-2.438,0-4.414,1.976-4.414,4.414C397.241,258.438,399.218,260.414,401.655,260.414z"/>
	<path style="fill:#96A5B9;" d="M419.31,242.759h35.31c2.438,0,4.414-1.976,4.414-4.414c0-2.438-1.976-4.414-4.414-4.414h-35.31&#10;&#9;&#9;c-2.438,0-4.414,1.976-4.414,4.414C414.897,240.782,416.873,242.759,419.31,242.759z"/>
	<path style="fill:#96A5B9;" d="M419.31,225.103h35.31c2.438,0,4.414-1.976,4.414-4.414s-1.976-4.414-4.414-4.414h-35.31&#10;&#9;&#9;c-2.438,0-4.414,1.976-4.414,4.414S416.873,225.103,419.31,225.103z"/>
	<path style="fill:#96A5B9;" d="M419.31,278.069h35.31c2.438,0,4.414-1.976,4.414-4.414c0-2.438-1.976-4.414-4.414-4.414h-35.31&#10;&#9;&#9;c-2.438,0-4.414,1.976-4.414,4.414C414.897,276.093,416.873,278.069,419.31,278.069z"/>
	<path style="fill:#96A5B9;" d="M419.31,260.414h35.31c2.438,0,4.414-1.976,4.414-4.414c0-2.438-1.976-4.414-4.414-4.414h-35.31&#10;&#9;&#9;c-2.438,0-4.414,1.976-4.414,4.414C414.897,258.438,416.873,260.414,419.31,260.414z"/>
</g><path style="fill:#E4EAF6;" d="M450.207,114.759c0-2.438-1.976-4.414-4.414-4.414h-8.828c-2.438,0-4.414,1.976-4.414,4.414&#10;&#9;s1.976,4.414,4.414,4.414h8.828C448.231,119.172,450.207,117.196,450.207,114.759z"/><path style="fill:#FF6469;" d="M132.413,198.621h66.207v-17.655H141.24v-79.448h79.448v57.379c2.44,0,4.414,1.974,4.414,4.414&#10;&#9;c0,2.44-1.974,4.414-4.414,4.414v13.241h-13.241v17.655h22.069c0.126,0,0.248-0.013,0.373-0.019l0.07-5.305&#10;&#9;c0.04-3.042,3.641-4.622,5.907-2.593l2.041,1.828c0.281-0.863,0.438-1.782,0.438-2.739v-22.069c-2.44,0-4.414-1.974-4.414-4.414&#10;&#9;c0-2.44,1.974-4.414,4.414-4.414V92.69c0-4.879-3.953-8.828-8.828-8.828h-97.103c-4.875,0-8.828,3.948-8.828,8.828v97.103&#10;&#9;C123.585,194.673,127.538,198.621,132.413,198.621z"/><g>
	<path style="fill:#96A5B9;" d="M203.033,238.345c2.44,0,4.414-1.974,4.414-4.414v-17.655c0-2.44-1.974-4.414-4.414-4.414&#10;&#9;&#9;s-4.414,1.974-4.414,4.414v17.655C198.62,236.371,200.594,238.345,203.033,238.345z"/>
	<path style="fill:#96A5B9;" d="M308.964,291.31h17.655c2.44,0,4.414-1.974,4.414-4.414s-1.974-4.414-4.414-4.414h-17.655&#10;&#9;&#9;c-2.44,0-4.414,1.974-4.414,4.414S306.525,291.31,308.964,291.31z"/>
	<path style="fill:#96A5B9;" d="M326.62,247.172c-2.44,0-4.414,1.974-4.414,4.414v17.655c0,2.44,1.974,4.414,4.414,4.414&#10;&#9;&#9;s4.414-1.974,4.414-4.414v-17.655C331.033,249.146,329.059,247.172,326.62,247.172z"/>
	<path style="fill:#96A5B9;" d="M308.964,167.724h17.655c2.44,0,4.414-1.974,4.414-4.414c0-2.44-1.974-4.414-4.414-4.414h-17.655&#10;&#9;&#9;c-2.44,0-4.414,1.974-4.414,4.414C304.551,165.75,306.525,167.724,308.964,167.724z"/>
	<path style="fill:#96A5B9;" d="M326.62,176.552c-2.44,0-4.414,1.974-4.414,4.414v17.655c0,2.44,1.974,4.414,4.414,4.414&#10;&#9;&#9;s4.414-1.974,4.414-4.414v-17.655C331.033,178.526,329.059,176.552,326.62,176.552z"/>
	<path style="fill:#96A5B9;" d="M255.999,282.483h-17.655c-2.44,0-4.414,1.974-4.414,4.414s1.974,4.414,4.414,4.414h17.655&#10;&#9;&#9;c2.44,0,4.414-1.974,4.414-4.414S258.439,282.483,255.999,282.483z"/>
	<path style="fill:#96A5B9;" d="M203.033,176.552c-2.44,0-4.414,1.974-4.414,4.414v17.655c0,2.44,1.974,4.414,4.414,4.414&#10;&#9;&#9;s4.414-1.974,4.414-4.414v-17.655C207.447,178.526,205.473,176.552,203.033,176.552z"/>
	<path style="fill:#96A5B9;" d="M220.689,282.483h-17.655c-2.44,0-4.414,1.974-4.414,4.414s1.974,4.414,4.414,4.414h17.655&#10;&#9;&#9;c2.44,0,4.414-1.974,4.414-4.414S223.128,282.483,220.689,282.483z"/>
	<path style="fill:#96A5B9;" d="M198.62,269.241c0,2.44,1.974,4.414,4.414,4.414s4.414-1.974,4.414-4.414v-17.655&#10;&#9;&#9;c0-2.44-1.974-4.414-4.414-4.414s-4.414,1.974-4.414,4.414V269.241z"/>
	<path style="fill:#96A5B9;" d="M326.62,211.862c-2.44,0-4.414,1.974-4.414,4.414v17.655c0,2.44,1.974,4.414,4.414,4.414&#10;&#9;&#9;s4.414-1.974,4.414-4.414v-17.655C331.033,213.836,329.059,211.862,326.62,211.862z"/>
	<path style="fill:#96A5B9;" d="M273.654,167.724h17.655c2.44,0,4.414-1.974,4.414-4.414c0-2.44-1.974-4.414-4.414-4.414h-17.655&#10;&#9;&#9;c-2.44,0-4.414,1.974-4.414,4.414C269.24,165.75,271.214,167.724,273.654,167.724z"/>
	<path style="fill:#96A5B9;" d="M198.62,163.31c0,2.44,1.974,4.414,4.414,4.414h17.655c2.44,0,4.414-1.974,4.414-4.414&#10;&#9;&#9;c0-2.44-1.974-4.414-4.414-4.414h-17.655C200.594,158.897,198.62,160.871,198.62,163.31z"/>
	<path style="fill:#96A5B9;" d="M273.654,291.31h17.655c2.44,0,4.414-1.974,4.414-4.414s-1.974-4.414-4.414-4.414h-17.655&#10;&#9;&#9;c-2.44,0-4.414,1.974-4.414,4.414S271.214,291.31,273.654,291.31z"/>
	<path style="fill:#96A5B9;" d="M233.93,163.31c0,2.44,1.974,4.414,4.414,4.414h17.655c2.44,0,4.414-1.974,4.414-4.414&#10;&#9;&#9;c0-2.44-1.974-4.414-4.414-4.414h-17.655C235.904,158.897,233.93,160.871,233.93,163.31z"/>
</g><path style="fill:#464655;" d="M229.958,193.297l-0.07,5.305l-0.371,28.534c-0.033,2.577,2.607,4.327,4.967,3.29l8.781-3.854&#10;&#9;l7.841,17.859c0.728,1.655,2.345,2.638,4.047,2.638c0.59,0,1.194-0.12,1.771-0.371c2.229-0.983,3.245-3.586,2.268-5.818&#10;&#9;l-7.84-17.857l8.778-3.853c2.359-1.036,2.859-4.163,0.94-5.884l-23.165-20.754l-2.041-1.828&#10;&#9;C233.599,188.674,229.997,190.255,229.958,193.297z"/><g>
</g><g>
</g><g>
</g><g>
</g><g>
</g><g>
</g><g>
</g><g>
</g><g>
</g><g>
</g><g>
</g><g>
</g><g>
</g><g>
</g><g>
</g></g><g transform="matrix(1.873100939616141, 0, 0, 1.873100939616141, 339.77972973201105, -1387.9341616504528)"><g transform="matrix(0.3230690658092499, 0, 0, 0.3230690658092499, -14.972562789916992, 667.4721069335938)"><path fill="#F2805B" d="M152.8,928.1c10.3-0.2,20.4-1.4,30.5-3.4C174.9,914.9,158.9,916,152.8,928.1z" transform="matrix(1, 0, 0, 1, 0, 0)"/><path fill="#C48458" d="M285.4,726.4c18.7-13.2,29.1-35.3,26-58.2c-0.1-0.6,0-1.2,0.1-1.7c-3.6-2-6.8-4.7-9.2-8.1&#10;&#9;&#9;&#9;c-2.4,2.9-5.6,5.1-9.9,6c-8.7,1.9-16.7-1.2-21.7-7.8c-2.5,3.6-5.9,6.6-10.2,8.7c-12.3,5.7-26,2.8-34.6-7.2&#10;&#9;&#9;&#9;c-5.2,5.1-11.8,8.9-19.1,10.4c-10.8,2.1-30.3,0.9-31.7-12.8c-6.4,1.8-13.1,2.7-19.8,2.7c0,0.1,0,0.1,0,0.2&#10;&#9;&#9;&#9;c-5.7,19.2-0.5,40.8,12.1,56.2c13.6,16.7,34,26.2,55.4,27.6C244.3,743.8,267.6,739,285.4,726.4z M267.1,675.9&#10;&#9;&#9;&#9;c10.7,0,10.7,16.6,0,16.6S256.4,675.9,267.1,675.9z M198.7,681.4c0-4.5,3.8-8.3,8.3-8.3c4.5,0,8.3,3.8,8.3,8.3c0,0.2,0,0.4,0,0.6&#10;&#9;&#9;&#9;c0,4.5-3.8,8.3-8.3,8.3c-4.5,0-8.3-3.8-8.3-8.3C198.7,681.8,198.7,681.6,198.7,681.4z M187.3,706.9c-2.8-4.1,3.9-8,6.7-3.9&#10;&#9;&#9;&#9;c15.8,23.3,48.9,25,67.7,4.3c3.4-3.7,8.8,1.8,5.5,5.5C244.9,737.4,205.8,734.1,187.3,706.9z" transform="matrix(1, 0, 0, 1, 0, 0)"/><path fill="#30BBA4" d="M177.8,827.3c-3.9,10.8-7.7,21.6-11.6,32.4c11.9,7.2,25.1,11.4,39.1,12.2c1.8-5.4,3.5-10.8,5.3-16.2&#10;&#9;&#9;&#9;c-0.2-1.7,0.5-3.5,2.7-4.1c7.7-1.9,15.4-3.7,23.2-5.6c4.8-1.2,6.9,6.3,2.1,7.5c-0.9,0.2-1.9,0.5-2.8,0.7c1.1,3.4,2.2,6.8,3.3,10.2&#10;&#9;&#9;&#9;c12,0.6,23.4-2.3,33.5-8.5c-3.1-9.9-6.2-19.8-9.3-29.7C236.1,838.4,205,838.8,177.8,827.3z" transform="matrix(1, 0, 0, 1, 0, 0)"/><path fill="#F2805B" d="M259.4,918.3c10.1,2,20.2,3.2,30.5,3.4C283.9,909.7,267.9,908.6,259.4,918.3z" transform="matrix(1, 0, 0, 1, 0, 0)"/><path fill="#F7CF11" d="M250.4,748.7c-1.2,0.2-2.4,0.4-3.6,0.6c-0.1,0.5-0.2,1-0.5,1.5c-9.7,17.7-34.8,14.9-41.4-3.6&#10;&#9;&#9;&#9;c-3-0.8-6-1.7-8.9-2.8c3.8,31,16.8,61.1,38.5,82.4c9.7-1.5,19.1-4.5,28-8.9C262.4,794.3,258.2,771,250.4,748.7z" transform="matrix(1, 0, 0, 1, 0, 0)"/><path fill="#F3B31C" d="M191.3,742.4c2.5,26.3-2,52.6-13.3,76.6c17.7,8.2,37.6,10.7,56.7,7.7c-21.7-21.4-34.7-51.5-38.5-82.4&#10;&#9;&#9;&#9;C194.5,743.7,192.9,743.1,191.3,742.4z" transform="matrix(1, 0, 0, 1, 0, 0)"/><path fill="#C48458" d="M319.3,682.1c-0.5,5.5-1.6,10.9-3.4,16.1c3.4,2.1,7.3,4.4,11.3,4.2c4.9-0.2,9.6-3.2,9.2-8.7&#10;&#9;&#9;&#9;C335.7,684.9,327.1,680.6,319.3,682.1z" transform="matrix(1, 0, 0, 1, 0, 0)"/><path fill="#C48458" d="M145.5,668.5c-8.5-4.3-20.5,0.8-19.8,11.4c0.7,10,12.4,14.9,19.5,7.4c0.3-0.4,0.7-0.6,1.1-0.8&#10;&#9;&#9;&#9;C145.2,680.5,144.9,674.5,145.5,668.5z" transform="matrix(1, 0, 0, 1, 0, 0)"/><path fill="#594A42" d="M137.7,648.4c22.1,5.9,46.1,0.1,62.9-15.3c3.7-3.4,9.1,2.1,5.5,5.5c-6.9,6.3-14.8,11.2-23.3,14.6&#10;&#9;&#9;&#9;c-0.5,11.7,20.3,9.1,27,6.4c9.4-3.8,16.4-11.4,19.6-20.9c1.6-4.7,9.1-2.7,7.5,2.1c-1.4,4.1-3.4,8-5.9,11.5&#10;&#9;&#9;&#9;c6.2,8.1,17.9,11.5,27,5.7c9.7-6.1,12.9-18,7.4-28.1c-2.4-4.4,4.3-8.3,6.7-3.9c3.7,6.9,4.5,15,2.5,22.3c0.2,0.2,0.3,0.5,0.4,0.8&#10;&#9;&#9;&#9;c2.9,7.2,11.9,11.1,18.7,6.6c6.4-4.2,7.4-11.9,7.8-18.9c0.3-4.9,8-5,7.7,0c-0.3,4.9-1.1,10.2-3,14.9c0.6,0.3,1.2,0.7,1.6,1.4&#10;&#9;&#9;&#9;c3.3,5.1,8.4,8.1,14.3,9c4.9,0.7,2.8,8.2-2.1,7.5c-0.3,0-0.6-0.1-0.9-0.2c0.2,1.6,0.2,3.3,0.3,4.9c5.1-0.6,10.3,0.5,14.5,3&#10;&#9;&#9;&#9;c0.2-0.2,0.3-0.3,0.6-0.5c7.3-5,9.6-13.8,6.1-21.7c-1.5,0.4-3,0.6-4.7,0.6c-5-0.1-5-7.8,0-7.7c9.5,0.2,12.1-11.1,8.5-18.3&#10;&#9;&#9;&#9;c-2.9-5.7-7.3-9.9-12.1-13.8c-1,1.2-2,2.3-3.2,3.4c-3.8,3.2-9.3-2.2-5.5-5.5c7.4-6.3,8.1-16.8,3.2-25c-4.3-7-10.7-11.7-17.8-15.4&#10;&#9;&#9;&#9;c-0.6,1.4-1.3,2.8-2.3,4.1c-2.8,4.1-9.5,0.2-6.7-3.9c5.1-7.4,3-17.5-4.6-22.5c-6.9-4.5-14.7-5.2-22.5-3.7c0.7,1.8,1.2,3.6,1.5,5.5&#10;&#9;&#9;&#9;c1,4.9-6.5,6.9-7.5,2.1c-2.4-12.2-12.9-23.8-26-24.6c-11.9-0.7-22.9,5.1-28.9,15.3c0.7,0.5,1.5,1.1,2.2,1.7&#10;&#9;&#9;&#9;c3.8,3.2-1.7,8.7-5.5,5.5c-12.3-10.5-30.6-2.6-32.1,13c2,0.8,3.9,1.8,5.8,2.9c4.2,2.6,0.3,9.3-3.9,6.7&#10;&#9;&#9;&#9;c-10.9-6.8-26.9-5.9-35.7,4.2c-8.6,9.9-8.9,24.5-1.5,35.1c2.4,0.1,4.9,0.4,7.3,1.2c4.8,1.5,2.7,8.9-2.1,7.5&#10;&#9;&#9;&#9;c-9.5-2.9-21.1,1.5-24.3,11.6c-3.1,9.8-0.2,19.1,5,27.5c5.4-3.3,12.4-4.2,19-1.8c0.2-0.9,0.4-1.7,0.6-2.6&#10;&#9;&#9;&#9;c-3.9-0.4-7.9-1.1-11.7-2.2C130.8,654.6,132.9,647.1,137.7,648.4z" transform="matrix(1, 0, 0, 1, 0, 0)"/><path fill="#C48458" d="M222.8,750.2c-2.8-0.2-5.5-0.6-8.2-1c5.4,7.4,16.3,7.8,22.6,1.1C232.4,750.6,227.5,750.6,222.8,750.2z" transform="matrix(1, 0, 0, 1, 0, 0)"/><path d="M206.9,690.2c4.5,0,8.3-3.8,8.3-8.3c0-0.2,0-0.4,0-0.6c0-4.5-3.8-8.3-8.3-8.3c-4.5,0-8.3,3.8-8.3,8.3c0,0.2,0,0.4,0,0.6&#10;&#9;&#9;&#9;C198.7,686.5,202.4,690.2,206.9,690.2z" transform="matrix(1, 0, 0, 1, 0, 0)"/><path d="M267.1,692.4c10.7,0,10.7-16.6,0-16.6S256.4,692.4,267.1,692.4z" transform="matrix(1, 0, 0, 1, 0, 0)"/><path d="M267.1,712.8c3.3-3.7-2.1-9.2-5.5-5.5c-18.7,20.7-51.8,19-67.7-4.3c-2.8-4.1-9.5-0.2-6.7,3.9&#10;&#9;&#9;&#9;C205.8,734.1,244.9,737.4,267.1,712.8z" transform="matrix(1, 0, 0, 1, 0, 0)"/><path d="M351.7,727.6c-2.8,1-5.6,1.9-8.4,2.9c-1.2-5.1-2.3-10.2-3.5-15.3c-1.1-4.9-8.6-2.8-7.5,2.1c1,4.5,2.1,9.1,3.1,13.6&#10;&#9;&#9;&#9;c-1.5-2-2.9-4-4.4-6c-1.2-1.7-3.3-2.5-5.3-1.4c-1.7,1-2.6,3.6-1.4,5.3c2.8,3.8,5.6,7.6,8.4,11.4c-10.2,9.3-21.5,17.5-35.2,20.7&#10;&#9;&#9;&#9;c-13,3-28.7-0.9-36.5-12.2c-0.6-0.9-1.5-1.4-2.3-1.6c12.5-3.3,24.5-8.8,34.3-16.5c8.7-6.8,15.5-15.4,20-24.9&#10;&#9;&#9;&#9;c5.7,3.3,11.6,5.2,18.4,4.3c6.8-0.9,12.4-7.7,12.7-14.4c0.2-5.1-1.4-9.5-4.1-13c9.6-7.6,12.7-19.8,7.6-31&#10;&#9;&#9;&#9;c4.1-3.7,6.5-9.4,6.4-15.4c-0.1-11.6-9.3-20.2-17.7-26.9c2.1-5.8,2-12.4-0.1-18.5c-3.9-11.8-14.6-19.6-25.4-24.9&#10;&#9;&#9;&#9;c0.1-6.8-2.8-13.5-8-18.5c-8.8-8.5-21.8-9.3-33.2-6.8c-5.7-9-15-15.5-25.8-17.3c-15.2-2.5-30.9,5.9-38.3,19.2&#10;&#9;&#9;&#9;c-15.6-5.6-33.4,4.1-36,21.7c-11.4-1.8-23.4,1.8-31.7,10.4c-10.6,10.8-11.7,28.7-4.5,41.6c-6.2,1.8-11.7,5.8-15.5,11.6&#10;&#9;&#9;&#9;c-8.2,12.5-3.3,28.9,4.1,40.4c-2.7,3.6-4.2,8.2-3.8,13.5c1,15.1,18.9,22.1,30.2,13.6c2.7,8.7,7,17,12.6,24.2&#10;&#9;&#9;&#9;c6.2,8,13.8,14.4,22.2,19.2c0.4,3.1,0.7,6.1,1,9.2c-14.3,11.9-33.6,16.5-51.7,12.2c-16.9-4-30.9-16.2-38.6-31.6&#10;&#9;&#9;&#9;c2.3-1.3,4.7-2.6,7-3.9c4.3-2.4,0.5-9.1-3.9-6.7c-0.9,0.5-1.8,1-2.6,1.5c1.2-5.3,2.4-10.7,3.6-16c1.1-4.9-6.4-6.9-7.5-2.1&#10;&#9;&#9;&#9;c-1.3,5.9-2.7,11.9-4,17.8c-4.2-1.8-8.5-3.6-12.7-5.4c-4.5-1.9-8.5,4.7-3.9,6.7c4.9,2.1,9.8,4.1,14.7,6.2&#10;&#9;&#9;&#9;c-0.1,1.4,0.5,2.8,1.6,3.6c0,0,0,0.1,0,0.1c8.3,18.4,24.7,32,44.2,37.2c18.5,4.9,38.5,0.5,54-10.3c0,21.1-4.9,42-14.4,60.9&#10;&#9;&#9;&#9;c-0.6,1.1-0.6,2.2-0.2,3.1c-0.2,1.1,0,2.2,0.9,3c-3.7,10.4-7.4,20.8-11.1,31.1c-0.3,0.3-0.6,0.6-0.8,1.1c-0.1,0.2-0.2,0.4-0.3,0.6&#10;&#9;&#9;&#9;c-0.4,0.7-0.5,1.5-0.5,2.2c-1.1,1.7-1.1,4.1,1.1,5.5c4,2.7,8.2,5,12.5,7c-4.8,12.6-5.3,26.2-1.1,39.1&#10;&#9;&#9;&#9;c-11.1-0.4-22.4,6.1-26.4,18.6c-0.1,0.4-0.2,0.8-0.2,1.2c-1,2.3,0.1,5.6,3.4,5.6c14.6,0.1,29.1-1.6,43.4-4.9&#10;&#9;&#9;&#9;c2.6-0.6,3.3-3.5,2.3-5.7c-3.2-6.6-8.3-10.9-14-13.1c0-0.5,0-1-0.2-1.6c-4.4-11.8-4.6-24.5,0-36.2c9.4,3.4,19.3,5.3,29.4,5.5&#10;&#9;&#9;&#9;c1.3,0,2.7-0.8,3.3-1.9c0.4-0.6,0.7-1.3,1.1-1.9c0.5-0.9,0.6-1.8,0.4-2.6c1.6-4.9,3.2-9.8,4.8-14.7c3.5-0.8,6.9-1.7,10.4-2.5&#10;&#9;&#9;&#9;c1.3,4.1,2.6,8.2,3.9,12.3c0.4,1.1,1.1,1.8,1.9,2.3c0.6,0.7,1.5,1.3,2.7,1.4c9.4,0.8,18.8-0.4,27.6-3.6&#10;&#9;&#9;&#9;c4.4,11.6,4.1,24.2-0.2,35.8c-0.2,0.6-0.3,1.1-0.2,1.6c-5.8,2.2-10.8,6.5-14,13.1c-1,2.2-0.3,5.1,2.3,5.7&#10;&#9;&#9;&#9;c14.2,3.4,28.7,5,43.4,4.9c3.3,0,4.4-3.3,3.4-5.6c0-0.4,0-0.8-0.2-1.2c-4-12.5-15.3-19-26.4-18.6c4.2-12.8,3.7-26.3-1-38.8&#10;&#9;&#9;&#9;c2.8-1.4,5.5-3,8.1-4.8c2.2-1.5,2.1-4.2,0.8-5.9c-3.5-11.2-7-22.3-10.5-33.5c0,0,0-0.1,0-0.1c0.4-0.6,0.7-1.4,0.7-2.3&#10;&#9;&#9;&#9;c-0.2-19.7-2.9-39.2-8.1-58.1c9.2,7.1,21.4,9.7,33.3,8.1c18.5-2.3,33.9-14.8,46.9-27.3c1-0.9,1.3-2,1.1-3.1&#10;&#9;&#9;&#9;c3.4-1.2,6.8-2.3,10.2-3.5C358.5,733.4,356.5,726,351.7,727.6z M327.2,702.4c-4.1,0.2-8-2.1-11.3-4.2c1.8-5.2,2.9-10.6,3.4-16.1&#10;&#9;&#9;&#9;c7.9-1.5,16.5,2.8,17.1,11.6C336.8,699.3,332.1,702.3,327.2,702.4z M145.2,687.2c-7.1,7.5-18.8,2.6-19.5-7.4&#10;&#9;&#9;&#9;c-0.7-10.6,11.3-15.7,19.8-11.4c-0.6,6-0.3,12.1,0.8,18C145.9,686.6,145.5,686.9,145.2,687.2z M135.6,655.9&#10;&#9;&#9;&#9;c3.9,1,7.8,1.8,11.7,2.2c-0.2,0.9-0.5,1.7-0.6,2.6c-6.6-2.4-13.6-1.5-19,1.8c-5.2-8.4-8-17.7-5-27.5c3.1-10.1,14.8-14.5,24.3-11.6&#10;&#9;&#9;&#9;c4.8,1.5,6.8-6,2.1-7.5c-2.4-0.7-4.9-1.1-7.3-1.2c-7.4-10.6-7.1-25.2,1.5-35.1c8.8-10.1,24.8-11,35.7-4.2c4.2,2.7,8.1-4,3.9-6.7&#10;&#9;&#9;&#9;c-1.9-1.2-3.8-2.1-5.8-2.9c1.5-15.5,19.8-23.5,32.1-13c3.8,3.2,9.3-2.2,5.5-5.5c-0.7-0.6-1.4-1.1-2.2-1.7&#10;&#9;&#9;&#9;c5.9-10.3,16.9-16.1,28.9-15.3c13.1,0.8,23.5,12.4,26,24.6c1,4.9,8.4,2.8,7.5-2.1c-0.4-1.9-0.9-3.7-1.5-5.5&#10;&#9;&#9;&#9;c7.8-1.5,15.5-0.8,22.5,3.7c7.6,5,9.7,15.1,4.6,22.5c-2.9,4.1,3.8,8,6.7,3.9c0.9-1.3,1.7-2.7,2.3-4.1c7.1,3.7,13.5,8.4,17.8,15.4&#10;&#9;&#9;&#9;c5,8.1,4.2,18.7-3.2,25c-3.8,3.2,1.7,8.7,5.5,5.5c1.2-1,2.3-2.2,3.2-3.4c4.8,3.9,9.2,8.1,12.1,13.8c3.6,7.2,1.1,18.4-8.5,18.3&#10;&#9;&#9;&#9;c-5-0.1-5,7.6,0,7.7c1.7,0,3.2-0.2,4.7-0.6c3.4,7.9,1.2,16.7-6.1,21.7c-0.2,0.1-0.4,0.3-0.6,0.5c-4.3-2.5-9.4-3.7-14.5-3&#10;&#9;&#9;&#9;c0-1.6-0.1-3.3-0.3-4.9c0.3,0.1,0.6,0.1,0.9,0.2c4.9,0.7,7-6.7,2.1-7.5c-5.9-0.9-11-3.9-14.3-9c-0.4-0.7-1-1.2-1.6-1.4&#10;&#9;&#9;&#9;c1.9-4.7,2.7-10.1,3-14.9c0.3-5-7.4-4.9-7.7,0c-0.4,7-1.5,14.7-7.8,18.9c-6.8,4.5-15.9,0.6-18.7-6.6c-0.1-0.3-0.2-0.5-0.4-0.8&#10;&#9;&#9;&#9;c2-7.3,1.1-15.4-2.5-22.3c-2.4-4.4-9-0.5-6.7,3.9c5.4,10.1,2.3,22-7.4,28.1c-9.1,5.7-20.8,2.4-27-5.7c2.5-3.5,4.5-7.4,5.9-11.5&#10;&#9;&#9;&#9;c1.6-4.7-5.9-6.7-7.5-2.1c-3.2,9.5-10.2,17.1-19.6,20.9c-6.7,2.7-27.5,5.3-27-6.4c8.5-3.4,16.4-8.2,23.3-14.6&#10;&#9;&#9;&#9;c3.7-3.4-1.8-8.8-5.5-5.5c-16.9,15.5-40.8,21.3-62.9,15.3C132.9,647.1,130.8,654.6,135.6,655.9z M167.4,714.8&#10;&#9;&#9;&#9;c-12.6-15.5-17.8-37-12.1-56.2c0-0.1,0-0.1,0-0.2c6.7,0,13.3-0.9,19.8-2.7c1.4,13.8,20.9,15,31.7,12.8c7.4-1.5,13.9-5.2,19.1-10.4&#10;&#9;&#9;&#9;c8.6,10,22.2,12.9,34.6,7.2c4.3-2,7.7-5,10.2-8.7c5,6.6,12.9,9.7,21.7,7.8c4.3-1,7.5-3.1,9.9-6c2.5,3.4,5.6,6.2,9.2,8.1&#10;&#9;&#9;&#9;c-0.1,0.5-0.2,1.1-0.1,1.7c3.1,22.9-7.3,45-26,58.2c-17.9,12.6-41.1,17.4-62.6,16C201.3,741.1,181,731.6,167.4,714.8z&#10;&#9;&#9;&#9; M237.2,750.3c-6.4,6.7-17.2,6.3-22.6-1.1c2.7,0.4,5.5,0.8,8.2,1C227.5,750.6,232.4,750.6,237.2,750.3z M183.3,924.6&#10;&#9;&#9;&#9;c-10.1,2-20.2,3.2-30.5,3.4C158.9,916,174.9,914.9,183.3,924.6z M290,921.8c-10.3-0.2-20.4-1.4-30.5-3.4&#10;&#9;&#9;&#9;C267.9,908.6,283.9,909.7,290,921.8z M272.5,855.9c-10.2,6.2-21.6,9.1-33.5,8.5c-1.1-3.4-2.2-6.8-3.3-10.2&#10;&#9;&#9;&#9;c0.9-0.2,1.9-0.5,2.8-0.7c4.8-1.2,2.8-8.6-2.1-7.5c-7.7,1.9-15.4,3.7-23.2,5.6c-2.2,0.5-3,2.3-2.7,4.1c-1.8,5.4-3.5,10.8-5.3,16.2&#10;&#9;&#9;&#9;c-13.9-0.8-27.1-5-39.1-12.2c3.9-10.8,7.7-21.6,11.6-32.4c27.3,11.5,58.4,11.1,85.4-1.1C266.3,836.1,269.4,846,272.5,855.9z&#10;&#9;&#9;&#9; M262.7,817.9c-26.4,13-58,13.4-84.7,1.1c11.4-24,15.9-50.3,13.3-76.6c4.4,1.9,9,3.5,13.7,4.8c6.7,18.6,31.7,21.3,41.4,3.6&#10;&#9;&#9;&#9;c0.3-0.5,0.4-1,0.5-1.5c1.2-0.2,2.4-0.4,3.6-0.6C258.2,771,262.4,794.3,262.7,817.9z" transform="matrix(1, 0, 0, 1, 0, 0)"/></g></g></g><path d="M 619.9617309570312 334.1104431152344 C 619.1357421875 334.1433410644531 618.6361694335938 334.079833984375 618.4630126953125 333.9199523925781 C 615.6397705078125 331.5504455566406 610.0653686523438 319.3226318359375 601.7396850585938 297.2364807128906 C 593.4140014648438 275.1503601074219 589.0850830078125 259.9372863769531 588.7528686523438 251.59722900390625 C 588.7462158203125 251.43069458007812 589.3126220703125 251.077880859375 590.4520874023438 250.53875732421875 C 593.8533935546875 248.8286895751953 596.9795532226562 247.91688537597656 599.8306274414062 247.80331420898438 C 602.6817016601562 247.6897430419922 604.1121215820312 247.75619506835938 604.1219482421875 248.00265502929688 C 604.6096801757812 252.03977966308594 607.493896484375 262.6400451660156 612.7745361328125 279.803466796875 C 618.0482788085938 296.96051025390625 622.4705200195312 308.820556640625 626.0411987304688 315.3836364746094 C 626.8397827148438 316.83966064453125 627.5972900390625 317.1797790527344 628.3136596679688 316.40399169921875 C 628.55029296875 316.147705078125 628.7019653320312 315.8514404296875 628.7686157226562 315.5151672363281 C 630.8324584960938 311.21630859375 633.6920166015625 302.5222473144531 637.3472900390625 289.4330749511719 C 641.0089721679688 276.3369445800781 642.6736450195312 265.6188659667969 642.3414916992188 257.27880859375 C 642.3019409179688 256.2862548828125 641.3299560546875 255.25079345703125 639.425537109375 254.1724090576172 C 637.5208129882812 253.0873565673828 635.819091796875 252.4912872314453 634.3203125 252.38418579101562 C 634.2337036132812 252.22084045410156 634.1757202148438 251.7694549560547 634.146240234375 251.03004455566406 C 634.1165161132812 250.28396606445312 634.2760620117188 249.0966796875 634.6248779296875 247.46817016601562 C 634.9739379882812 245.84632873535156 635.3099365234375 244.90220642089844 635.6329345703125 244.63580322265625 C 643.1446533203125 242.26828002929688 650.7008056640625 240.93313598632812 658.3014526367188 240.63038635253906 C 659.547119140625 240.74755859375 660.1732788085938 240.88941955566406 660.1798706054688 241.0559539794922 C 660.4627685546875 248.156982421875 658.964599609375 258.8684387207031 655.6853637695312 273.1903076171875 C 652.4124755859375 287.5052490234375 648.9723510742188 300.2989807128906 645.3648071289062 311.5715026855469 C 641.763916015625 322.84375 639.36865234375 329.1240539550781 638.1790161132812 330.4124450683594 C 634.6207275390625 332.5357360839844 628.5482788085938 333.7684020996094 619.9617309570312 334.1104431152344 ZM 719.6287231445312 256.7513122558594 C 718.3051147460938 256.5616760253906 716.7968139648438 256.4521484375 715.1036987304688 256.42279052734375 C 713.41064453125 256.3934020996094 711.3413696289062 256.5242004394531 708.89599609375 256.8151550292969 C 706.4572143554688 257.1062316894531 703.9286499023438 257.5791015625 701.3102416992188 258.2337951660156 C 698.6918334960938 258.8884582519531 696.5430908203125 259.9480285644531 694.8641357421875 261.4124450683594 C 693.1852416992188 262.8702087402344 692.3275756835938 264.65228271484375 692.291015625 266.7586364746094 C 692.2544555664062 268.8649597167969 693.4853515625 270.7466125488281 695.983642578125 272.4035339355469 C 698.4752807617188 274.0603332519531 701.4857177734375 275.5994567871094 705.014892578125 277.0208740234375 C 708.5440063476562 278.448974609375 712.0899047851562 280.06072998046875 715.6526489257812 281.85614013671875 C 719.221923828125 283.6583251953125 722.2373657226562 286.25433349609375 724.6989135742188 289.64422607421875 C 727.1604614257812 293.0340881347656 728.3504028320312 297.0853576660156 728.2686157226562 301.7979736328125 C 728.1238403320312 310.14337158203125 724.0148315429688 317.1598205566406 715.941650390625 322.8473205566406 C 707.8617553710938 328.53466796875 697.74609375 331.27294921875 685.5946044921875 331.0621337890625 C 679.482177734375 330.9560852050781 674.9452514648438 330.5473327636719 671.9838256835938 329.83587646484375 C 671.2501831054688 329.07635498046875 670.9539794921875 324.6272277832031 671.09521484375 316.4884338378906 C 671.2363891601562 308.34967041015625 671.4879760742188 303.4566345214844 671.8499145507812 301.809326171875 C 672.1094970703125 301.0670471191406 673.57177734375 300.1822814941406 676.2366333007812 299.155029296875 C 678.8948364257812 298.12762451171875 681.4638061523438 297.6354675292969 683.9434204101562 297.678466796875 C 683.7742309570312 307.43035888671875 684.7048950195312 313.3573913574219 686.7354125976562 315.4595947265625 C 687.547607421875 316.30047607421875 689.1101684570312 316.740966796875 691.4231567382812 316.7810974121094 C 696.7156982421875 316.8729248046875 701.350830078125 315.4664306640625 705.3284301757812 312.5616760253906 C 709.3062133789062 309.6502380371094 711.3302001953125 306.1714782714844 711.400390625 302.12542724609375 C 711.4478149414062 299.3924865722656 710.206298828125 296.9706115722656 707.6758422851562 294.8597106933594 C 705.152099609375 292.74896240234375 702.063720703125 290.8984375 698.4107666015625 289.30816650390625 C 694.7644653320312 287.718017578125 691.1362915039062 286.0448303222656 687.5261840820312 284.2886047363281 C 683.916259765625 282.5257263183594 680.8572387695312 280.1356506347656 678.3491821289062 277.11834716796875 C 675.8411865234375 274.1010437011719 674.622314453125 270.5660400390625 674.692626953125 266.5133361816406 C 674.7972412109375 260.48089599609375 678.5090942382812 255.02780151367188 685.8280639648438 250.15402221679688 C 693.1470336914062 245.28024291992188 703.6654663085938 242.9623565673828 717.3834228515625 243.20033264160156 C 720.6029663085938 243.25619506835938 722.415771484375 243.4943389892578 722.8218383789062 243.91477966308594 C 722.9042358398438 244.16290283203125 722.9371948242188 244.76023864746094 722.9207763671875 245.70675659179688 C 722.9042358398438 246.6599578857422 722.5823974609375 248.49464416503906 721.9551391601562 251.21084594726562 C 721.3279418945312 253.92703247070312 720.552490234375 255.77386474609375 719.6287231445312 256.7513122558594 ZM 754.544921875 317.7559814453125 C 754.544921875 317.7559814453125 754.86767578125 318.1312561035156 755.51318359375 318.88177490234375 C 756.1653442382812 319.6328125 756.4169311523438 320.9988708496094 756.2678833007812 322.9799499511719 C 756.118896484375 324.9610290527344 755.2225952148438 326.65521240234375 753.5790405273438 328.06256103515625 C 751.942138671875 329.47039794921875 750.1331787109375 330.0998229980469 748.152099609375 329.9508056640625 C 746.1776733398438 329.8022766113281 744.5800170898438 329.0001525878906 743.359130859375 327.5444641113281 C 742.1453857421875 326.0826416015625 741.6174926757812 324.3013610839844 741.7755126953125 322.20062255859375 C 741.9335327148438 320.0998840332031 742.7881469726562 318.38250732421875 744.3392333984375 317.0484313964844 C 745.8903198242188 315.71435546875 747.6564331054688 315.121826171875 749.6375122070312 315.2708435058594 C 751.6119384765625 315.41937255859375 753.2477416992188 316.2477722167969 754.544921875 317.7559814453125 Z" transform="matrix(1, 0, 0, 1, 3.4010181427001953, 8.502545356750488)" style="fill: rgb(51, 51, 51); white-space: pre; color: rgb(51, 51, 51);"/></g></svg>