<?xml version="1.0" encoding="utf-8"?>
<svg id="master-artboard" viewBox="0 0 1375.9332275390625 493.85125732421875" version="1.1" xmlns="http://www.w3.org/2000/svg" x="0px" y="0px" style="enable-background:new 0 0 336 235.2;" width="1375.9332275390625px" height="493.85125732421875px"><defs><path id="text-path-0" d="M 485.828125 382.78228759765625 A 100 28 0 0 1 674.296875 382.78228759765625 A 100 28 0 0 1 485.828125 382.78228759765625 Z" style="fill: none; stroke: red; stroke-width: 2;"/></defs><rect id="ee-background" x="0" y="0" width="1375.9332275390625" height="493.85125732421875" style="fill: white; fill-opacity: 0; pointer-events: none;"/><g transform="matrix(1.1849211425412993, 0, 0, 1.1849211425412993, -70.48114657014814, -149.57496501071822)"><rect id="rect-1" x="0" y="0" width="1400" height="980" style="fill: white; fill-opacity: 0; pointer-events: none;"/><g transform="matrix(0.292072842099791, 0, 0, 0.292072842099791, 116.45384216308594, 225.53927568746388)"><path style="fill:#464655;" d="M494.345,39.724H17.655C7.904,39.724,0,47.628,0,57.379v282.483h512V57.379&#10;&#9;C512,47.628,504.096,39.724,494.345,39.724z M485.517,313.379H26.483V66.207h459.034V313.379z"/><g>
	<path style="fill:#FFFFFF;" d="M203.033,176.552c2.44,0,4.414,1.974,4.414,4.414h13.241v-13.241h-17.655&#10;&#9;&#9;c-2.44,0-4.414-1.974-4.414-4.414c0-2.44,1.974-4.414,4.414-4.414h17.655v-57.379H141.24v79.448h57.379&#10;&#9;&#9;C198.62,178.526,200.594,176.552,203.033,176.552z"/>
	<path style="fill:#FFFFFF;" d="M26.483,313.379h459.034V66.207H26.483V313.379z M220.689,291.31h-17.655&#10;&#9;&#9;c-2.44,0-4.414-1.974-4.414-4.414s1.974-4.414,4.414-4.414h17.655c2.44,0,4.414,1.974,4.414,4.414S223.128,291.31,220.689,291.31z&#10;&#9;&#9; M203.033,247.172c2.44,0,4.414,1.974,4.414,4.414v17.655c0,2.44-1.974,4.414-4.414,4.414s-4.414-1.974-4.414-4.414v-17.655&#10;&#9;&#9;C198.62,249.146,200.594,247.172,203.033,247.172z M198.62,233.931v-17.655c0-2.44,1.974-4.414,4.414-4.414&#10;&#9;&#9;s4.414,1.974,4.414,4.414v17.655c0,2.44-1.974,4.414-4.414,4.414S198.62,236.371,198.62,233.931z M255.999,291.31h-17.655&#10;&#9;&#9;c-2.44,0-4.414-1.974-4.414-4.414s1.974-4.414,4.414-4.414h17.655c2.44,0,4.414,1.974,4.414,4.414S258.439,291.31,255.999,291.31z&#10;&#9;&#9; M331.033,269.241c0,2.44-1.974,4.414-4.414,4.414s-4.414-1.974-4.414-4.414v-17.655c0-2.44,1.974-4.414,4.414-4.414&#10;&#9;&#9;s4.414,1.974,4.414,4.414V269.241z M331.033,233.931c0,2.44-1.974,4.414-4.414,4.414s-4.414-1.974-4.414-4.414v-17.655&#10;&#9;&#9;c0-2.44,1.974-4.414,4.414-4.414s4.414,1.974,4.414,4.414V233.931z M331.033,198.621c0,2.44-1.974,4.414-4.414,4.414&#10;&#9;&#9;s-4.414-1.974-4.414-4.414v-17.655c0-2.44,1.974-4.414,4.414-4.414s4.414,1.974,4.414,4.414V198.621z M370.759,207.448v-61.793&#10;&#9;&#9;V92.69c0-4.875,3.953-8.828,8.828-8.828h79.448c4.875,0,8.828,3.953,8.828,8.828v52.966v61.793v79.448&#10;&#9;&#9;c0,4.875-3.953,8.828-8.828,8.828h-79.448c-4.875,0-8.828-3.953-8.828-8.828V207.448z M308.964,158.897h17.655&#10;&#9;&#9;c2.44,0,4.414,1.974,4.414,4.414c0,2.44-1.974,4.414-4.414,4.414h-17.655c-2.44,0-4.414-1.974-4.414-4.414&#10;&#9;&#9;C304.551,160.871,306.525,158.897,308.964,158.897z M308.964,282.483h17.655c2.44,0,4.414,1.974,4.414,4.414&#10;&#9;&#9;s-1.974,4.414-4.414,4.414h-17.655c-2.44,0-4.414-1.974-4.414-4.414S306.525,282.483,308.964,282.483z M273.654,158.897h17.655&#10;&#9;&#9;c2.44,0,4.414,1.974,4.414,4.414c0,2.44-1.974,4.414-4.414,4.414h-17.655c-2.44,0-4.414-1.974-4.414-4.414&#10;&#9;&#9;C269.24,160.871,271.214,158.897,273.654,158.897z M273.654,282.483h17.655c2.44,0,4.414,1.974,4.414,4.414&#10;&#9;&#9;s-1.974,4.414-4.414,4.414h-17.655c-2.44,0-4.414-1.974-4.414-4.414S271.214,282.483,273.654,282.483z M123.585,92.69&#10;&#9;&#9;c0-4.879,3.953-8.828,8.828-8.828h97.103c4.875,0,8.828,3.948,8.828,8.828v66.207h17.655c2.44,0,4.414,1.974,4.414,4.414&#10;&#9;&#9;c0,2.44-1.974,4.414-4.414,4.414h-17.655v22.069c0,0.957-0.157,1.877-0.438,2.739l23.165,20.754&#10;&#9;&#9;c1.919,1.719,1.419,4.847-0.94,5.884l-8.778,3.853l7.84,17.857c0.979,2.232-0.039,4.836-2.268,5.818&#10;&#9;&#9;c-0.577,0.25-1.181,0.371-1.771,0.371c-1.703,0-3.319-0.983-4.047-2.638l-7.841-17.859l-8.781,3.854&#10;&#9;&#9;c-2.359,1.036-5.001-0.714-4.967-3.29l0.371-28.534c-0.125,0.006-0.247,0.019-0.373,0.019h-22.069c0,2.44-1.974,4.414-4.414,4.414&#10;&#9;&#9;s-4.414-1.974-4.414-4.414h-66.207c-4.875,0-8.828-3.948-8.828-8.828V92.69H123.585z M44.138,92.69&#10;&#9;&#9;c0-4.875,3.953-8.828,8.828-8.828h26.483c4.875,0,8.828,3.953,8.828,8.828v194.207c0,4.875-3.953,8.828-8.828,8.828H52.966&#10;&#9;&#9;c-4.875,0-8.828-3.953-8.828-8.828V92.69z"/>
</g><path style="fill:#BEC8DC;" d="M0,375.172c0,9.751,7.904,17.655,17.655,17.655h167.724h141.241h167.724&#10;&#9;c9.751,0,17.655-7.904,17.655-17.655v-35.31H0V375.172z M256,353.103c7.313,0,13.241,5.929,13.241,13.241&#10;&#9;s-5.929,13.241-13.241,13.241c-7.313,0-13.241-5.929-13.241-13.241S248.687,353.103,256,353.103z"/><path d="M 177.65499877929688 454.6210021972656 L 334.3450012207031 454.6210021972656 L 328.8280029296875 410.4830017089844 L 183.1719970703125 410.4830017089844 Z" style="fill:#AFBBD0;"/><path style="fill:#BEC8DC;" d="M176.552,454.621c-4.875,0-8.828,3.953-8.828,8.828s3.953,8.828,8.828,8.828h158.897&#10;&#9;c4.875,0,8.828-3.953,8.828-8.828s-3.953-8.828-8.828-8.828h-1.103h-156.69H176.552z"/><g>
	<path d="M 183.1719970703125 410.4830017089844 L 328.8280029296875 410.4830017089844 L 326.6210021972656 392.8280029296875 L 185.37899780273438 392.8280029296875 Z" style="fill:#96A5B9;"/>
	<path d="M 269.241 366.345001 A 13.241 13.241 0 0 1 256 379.586001 A 13.241 13.241 0 0 1 242.759 366.345001 A 13.241 13.241 0 0 1 256 353.104001 A 13.241 13.241 0 0 1 269.241 366.345001 Z" style="fill:#96A5B9;"/>
</g><path style="fill:#BEC8DC;" d="M52.966,295.724h26.483c4.875,0,8.828-3.953,8.828-8.828V92.69c0-4.875-3.953-8.828-8.828-8.828&#10;&#9;H52.966c-4.875,0-8.828,3.953-8.828,8.828v194.207C44.138,291.772,48.09,295.724,52.966,295.724z M61.793,101.517h8.828&#10;&#9;c4.875,0,8.828,3.953,8.828,8.828c0,4.875-3.953,8.828-8.828,8.828h-8.828c-4.875,0-8.828-3.953-8.828-8.828&#10;&#9;C52.966,105.47,56.918,101.517,61.793,101.517z M61.793,128h8.828c4.875,0,8.828,3.953,8.828,8.828c0,4.875-3.953,8.828-8.828,8.828&#10;&#9;h-8.828c-4.875,0-8.828-3.953-8.828-8.828C52.966,131.953,56.918,128,61.793,128z M61.793,154.483h8.828&#10;&#9;c4.875,0,8.828,3.953,8.828,8.828s-3.953,8.828-8.828,8.828h-8.828c-4.875,0-8.828-3.953-8.828-8.828S56.918,154.483,61.793,154.483&#10;&#9;z M61.793,180.966h8.828c4.875,0,8.828,3.953,8.828,8.828s-3.953,8.828-8.828,8.828h-8.828c-4.875,0-8.828-3.953-8.828-8.828&#10;&#9;S56.918,180.966,61.793,180.966z M61.793,207.448h8.828c4.875,0,8.828,3.953,8.828,8.828s-3.953,8.828-8.828,8.828h-8.828&#10;&#9;c-4.875,0-8.828-3.953-8.828-8.828S56.918,207.448,61.793,207.448z M52.966,251.586c0-4.875,3.953-8.828,8.828-8.828h8.828&#10;&#9;c4.875,0,8.828,3.953,8.828,8.828v17.655c0,4.875-3.953,8.828-8.828,8.828h-8.828c-4.875,0-8.828-3.953-8.828-8.828V251.586z"/><path style="fill:#E4EAF6;" d="M61.793,119.172h8.828c4.875,0,8.828-3.953,8.828-8.828c0-4.875-3.953-8.828-8.828-8.828h-8.828&#10;&#9;c-4.875,0-8.828,3.953-8.828,8.828C52.966,115.22,56.918,119.172,61.793,119.172z"/><path style="fill:#96A5B9;" d="M61.793,145.655h8.828c4.875,0,8.828-3.953,8.828-8.828c0-4.875-3.953-8.828-8.828-8.828h-8.828&#10;&#9;c-4.875,0-8.828,3.953-8.828,8.828C52.966,141.703,56.918,145.655,61.793,145.655z"/><g>
	<path style="fill:#E4EAF6;" d="M61.793,172.138h8.828c4.875,0,8.828-3.953,8.828-8.828s-3.953-8.828-8.828-8.828h-8.828&#10;&#9;&#9;c-4.875,0-8.828,3.953-8.828,8.828S56.918,172.138,61.793,172.138z"/>
	<path style="fill:#E4EAF6;" d="M61.793,198.621h8.828c4.875,0,8.828-3.953,8.828-8.828s-3.953-8.828-8.828-8.828h-8.828&#10;&#9;&#9;c-4.875,0-8.828,3.953-8.828,8.828S56.918,198.621,61.793,198.621z"/>
	<path style="fill:#E4EAF6;" d="M61.793,225.103h8.828c4.875,0,8.828-3.953,8.828-8.828s-3.953-8.828-8.828-8.828h-8.828&#10;&#9;&#9;c-4.875,0-8.828,3.953-8.828,8.828S56.918,225.103,61.793,225.103z"/>
</g><path style="fill:#96A5B9;" d="M61.793,278.069h8.828c4.875,0,8.828-3.953,8.828-8.828v-17.655c0-4.875-3.953-8.828-8.828-8.828&#10;&#9;h-8.828c-4.875,0-8.828,3.953-8.828,8.828v17.655C52.966,274.116,56.917,278.069,61.793,278.069z"/><g>
	<path style="fill:#BEC8DC;" d="M467.862,92.69c0-4.875-3.953-8.828-8.828-8.828h-79.448c-4.875,0-8.828,3.953-8.828,8.828v52.966&#10;&#9;&#9;h97.103V92.69z M454.621,136.828h-35.31h-8.828H384c-2.438,0-4.414-1.976-4.414-4.414S381.562,128,384,128h26.483h8.828h35.31&#10;&#9;&#9;c2.438,0,4.414,1.976,4.414,4.414S457.058,136.828,454.621,136.828z M454.621,119.172h-8.828h-8.828H384&#10;&#9;&#9;c-2.438,0-4.414-1.976-4.414-4.414s1.976-4.414,4.414-4.414h52.966h8.828h8.828c2.438,0,4.414,1.976,4.414,4.414&#10;&#9;&#9;S457.058,119.172,454.621,119.172z M454.621,101.517h-52.966h-8.828H384c-2.438,0-4.414-1.976-4.414-4.414s1.976-4.414,4.414-4.414&#10;&#9;&#9;h8.828h8.828h52.966c2.438,0,4.414,1.976,4.414,4.414S457.058,101.517,454.621,101.517z"/>
	<path style="fill:#BEC8DC;" d="M379.586,295.724h79.448c4.875,0,8.828-3.953,8.828-8.828v-79.448h-97.103v79.448&#10;&#9;&#9;C370.759,291.772,374.711,295.724,379.586,295.724z M419.31,216.276h35.31c2.438,0,4.414,1.976,4.414,4.414&#10;&#9;&#9;s-1.976,4.414-4.414,4.414h-35.31c-2.438,0-4.414-1.976-4.414-4.414S416.873,216.276,419.31,216.276z M419.31,233.931h35.31&#10;&#9;&#9;c2.438,0,4.414,1.976,4.414,4.414c0,2.438-1.976,4.414-4.414,4.414h-35.31c-2.438,0-4.414-1.976-4.414-4.414&#10;&#9;&#9;C414.897,235.907,416.873,233.931,419.31,233.931z M419.31,251.586h35.31c2.438,0,4.414,1.976,4.414,4.414&#10;&#9;&#9;c0,2.438-1.976,4.414-4.414,4.414h-35.31c-2.438,0-4.414-1.976-4.414-4.414C414.897,253.562,416.873,251.586,419.31,251.586z&#10;&#9;&#9; M419.31,269.241h35.31c2.438,0,4.414,1.976,4.414,4.414c0,2.438-1.976,4.414-4.414,4.414h-35.31c-2.438,0-4.414-1.976-4.414-4.414&#10;&#9;&#9;C414.897,271.218,416.873,269.241,419.31,269.241z M401.655,216.276L401.655,216.276c2.438,0,4.414,1.976,4.414,4.414&#10;&#9;&#9;s-1.976,4.414-4.414,4.414l0,0c-2.438,0-4.414-1.976-4.414-4.414S399.218,216.276,401.655,216.276z M401.655,233.931&#10;&#9;&#9;L401.655,233.931c2.438,0,4.414,1.976,4.414,4.414c0,2.438-1.976,4.414-4.414,4.414l0,0c-2.438,0-4.414-1.976-4.414-4.414&#10;&#9;&#9;C397.241,235.907,399.218,233.931,401.655,233.931z M401.655,251.586L401.655,251.586c2.438,0,4.414,1.976,4.414,4.414&#10;&#9;&#9;c0,2.438-1.976,4.414-4.414,4.414l0,0c-2.438,0-4.414-1.976-4.414-4.414C397.241,253.562,399.218,251.586,401.655,251.586z&#10;&#9;&#9; M401.655,269.241L401.655,269.241c2.438,0,4.414,1.976,4.414,4.414c0,2.438-1.976,4.414-4.414,4.414l0,0&#10;&#9;&#9;c-2.438,0-4.414-1.976-4.414-4.414C397.241,271.218,399.218,269.241,401.655,269.241z M384,216.276L384,216.276&#10;&#9;&#9;c2.438,0,4.414,1.976,4.414,4.414s-1.976,4.414-4.414,4.414l0,0c-2.438,0-4.414-1.976-4.414-4.414S381.562,216.276,384,216.276z&#10;&#9;&#9; M384,233.931L384,233.931c2.438,0,4.414,1.976,4.414,4.414c0,2.438-1.976,4.414-4.414,4.414l0,0c-2.438,0-4.414-1.976-4.414-4.414&#10;&#9;&#9;C379.586,235.907,381.562,233.931,384,233.931z M384,251.586L384,251.586c2.438,0,4.414,1.976,4.414,4.414&#10;&#9;&#9;c0,2.438-1.976,4.414-4.414,4.414l0,0c-2.438,0-4.414-1.976-4.414-4.414C379.586,253.562,381.562,251.586,384,251.586z&#10;&#9;&#9; M384,269.241L384,269.241c2.438,0,4.414,1.976,4.414,4.414c0,2.438-1.976,4.414-4.414,4.414l0,0c-2.438,0-4.414-1.976-4.414-4.414&#10;&#9;&#9;C379.586,271.218,381.562,269.241,384,269.241z"/>
</g><g>
	<path style="fill:#96A5B9;" d="M467.862,145.655h-97.103v61.793h97.103V145.655z M392.828,198.621H384&#10;&#9;&#9;c-2.438,0-4.414-1.976-4.414-4.414s1.976-4.414,4.414-4.414h8.828c2.438,0,4.414,1.976,4.414,4.414&#10;&#9;&#9;S395.265,198.621,392.828,198.621z M392.828,180.966H384c-2.438,0-4.414-1.976-4.414-4.414s1.976-4.414,4.414-4.414h8.828&#10;&#9;&#9;c2.438,0,4.414,1.976,4.414,4.414S395.265,180.966,392.828,180.966z M392.828,163.31H384c-2.438,0-4.414-1.976-4.414-4.414&#10;&#9;&#9;s1.976-4.414,4.414-4.414h8.828c2.438,0,4.414,1.976,4.414,4.414S395.265,163.31,392.828,163.31z M454.621,198.621h-44.138&#10;&#9;&#9;c-2.438,0-4.414-1.976-4.414-4.414s1.976-4.414,4.414-4.414h44.138c2.438,0,4.414,1.976,4.414,4.414&#10;&#9;&#9;S457.058,198.621,454.621,198.621z M454.621,180.966h-44.138c-2.438,0-4.414-1.976-4.414-4.414s1.976-4.414,4.414-4.414h44.138&#10;&#9;&#9;c2.438,0,4.414,1.976,4.414,4.414S457.058,180.966,454.621,180.966z M454.621,163.31h-44.138c-2.438,0-4.414-1.976-4.414-4.414&#10;&#9;&#9;s1.976-4.414,4.414-4.414h44.138c2.438,0,4.414,1.976,4.414,4.414S457.058,163.31,454.621,163.31z"/>
	<path style="fill:#96A5B9;" d="M454.621,92.69h-52.966c2.438,0,4.414,1.976,4.414,4.414s-1.976,4.414-4.414,4.414h52.966&#10;&#9;&#9;c2.438,0,4.414-1.976,4.414-4.414S457.058,92.69,454.621,92.69z"/>
	<path style="fill:#96A5B9;" d="M388.414,97.103c0-2.438,1.976-4.414,4.414-4.414H384c-2.438,0-4.414,1.976-4.414,4.414&#10;&#9;&#9;s1.976,4.414,4.414,4.414h8.828C390.39,101.517,388.414,99.541,388.414,97.103z"/>
	<path style="fill:#96A5B9;" d="M454.621,128h-35.31c2.438,0,4.414,1.976,4.414,4.414s-1.976,4.414-4.414,4.414h35.31&#10;&#9;&#9;c2.438,0,4.414-1.976,4.414-4.414S457.058,128,454.621,128z"/>
	<path style="fill:#96A5B9;" d="M406.069,132.414c0-2.438,1.976-4.414,4.414-4.414H384c-2.438,0-4.414,1.976-4.414,4.414&#10;&#9;&#9;s1.976,4.414,4.414,4.414h26.483C408.045,136.828,406.069,134.851,406.069,132.414z"/>
</g><path style="fill:#BEC8DC;" d="M454.621,154.483h-44.138c-2.438,0-4.414,1.976-4.414,4.414s1.976,4.414,4.414,4.414h44.138&#10;&#9;c2.438,0,4.414-1.976,4.414-4.414S457.058,154.483,454.621,154.483z"/><g>
	<path style="fill:#96A5B9;" d="M432.552,114.759c0-2.438,1.976-4.414,4.414-4.414H384c-2.438,0-4.414,1.976-4.414,4.414&#10;&#9;&#9;s1.976,4.414,4.414,4.414h52.966C434.528,119.172,432.552,117.196,432.552,114.759z"/>
	<path style="fill:#96A5B9;" d="M454.621,110.345h-8.828c2.438,0,4.414,1.976,4.414,4.414s-1.976,4.414-4.414,4.414h8.828&#10;&#9;&#9;c2.438,0,4.414-1.976,4.414-4.414S457.058,110.345,454.621,110.345z"/>
</g><g>
	<path style="fill:#E4EAF6;" d="M406.069,97.103c0-2.438-1.976-4.414-4.414-4.414h-8.828c-2.438,0-4.414,1.976-4.414,4.414&#10;&#9;&#9;s1.976,4.414,4.414,4.414h8.828C404.093,101.517,406.069,99.541,406.069,97.103z"/>
	<path style="fill:#E4EAF6;" d="M423.724,132.414c0-2.438-1.976-4.414-4.414-4.414h-8.828c-2.438,0-4.414,1.976-4.414,4.414&#10;&#9;&#9;s1.976,4.414,4.414,4.414h8.828C421.748,136.828,423.724,134.851,423.724,132.414z"/>
	<path style="fill:#E4EAF6;" d="M392.828,154.483H384c-2.438,0-4.414,1.976-4.414,4.414s1.976,4.414,4.414,4.414h8.828&#10;&#9;&#9;c2.438,0,4.414-1.976,4.414-4.414S395.265,154.483,392.828,154.483z"/>
</g><path style="fill:#BEC8DC;" d="M454.621,172.138h-44.138c-2.438,0-4.414,1.976-4.414,4.414s1.976,4.414,4.414,4.414h44.138&#10;&#9;c2.438,0,4.414-1.976,4.414-4.414S457.058,172.138,454.621,172.138z"/><path style="fill:#E4EAF6;" d="M392.828,172.138H384c-2.438,0-4.414,1.976-4.414,4.414s1.976,4.414,4.414,4.414h8.828&#10;&#9;c2.438,0,4.414-1.976,4.414-4.414S395.265,172.138,392.828,172.138z"/><path style="fill:#BEC8DC;" d="M454.621,189.793h-44.138c-2.438,0-4.414,1.976-4.414,4.414s1.976,4.414,4.414,4.414h44.138&#10;&#9;c2.438,0,4.414-1.976,4.414-4.414S457.058,189.793,454.621,189.793z"/><g>
	<path style="fill:#E4EAF6;" d="M392.828,189.793H384c-2.438,0-4.414,1.976-4.414,4.414s1.976,4.414,4.414,4.414h8.828&#10;&#9;&#9;c2.438,0,4.414-1.976,4.414-4.414S395.265,189.793,392.828,189.793z"/>
	<path style="fill:#E4EAF6;" d="M384,242.759L384,242.759c2.438,0,4.414-1.976,4.414-4.414c0-2.438-1.976-4.414-4.414-4.414l0,0&#10;&#9;&#9;c-2.438,0-4.414,1.976-4.414,4.414C379.586,240.782,381.562,242.759,384,242.759z"/>
	<path style="fill:#E4EAF6;" d="M384,225.103L384,225.103c2.438,0,4.414-1.976,4.414-4.414s-1.976-4.414-4.414-4.414l0,0&#10;&#9;&#9;c-2.438,0-4.414,1.976-4.414,4.414S381.562,225.103,384,225.103z"/>
	<path style="fill:#E4EAF6;" d="M384,278.069L384,278.069c2.438,0,4.414-1.976,4.414-4.414c0-2.438-1.976-4.414-4.414-4.414l0,0&#10;&#9;&#9;c-2.438,0-4.414,1.976-4.414,4.414C379.586,276.093,381.562,278.069,384,278.069z"/>
	<path style="fill:#E4EAF6;" d="M384,260.414L384,260.414c2.438,0,4.414-1.976,4.414-4.414c0-2.438-1.976-4.414-4.414-4.414l0,0&#10;&#9;&#9;c-2.438,0-4.414,1.976-4.414,4.414C379.586,258.438,381.562,260.414,384,260.414z"/>
</g><g>
	<path style="fill:#96A5B9;" d="M401.655,242.759L401.655,242.759c2.438,0,4.414-1.976,4.414-4.414c0-2.438-1.976-4.414-4.414-4.414&#10;&#9;&#9;l0,0c-2.438,0-4.414,1.976-4.414,4.414C397.241,240.782,399.218,242.759,401.655,242.759z"/>
	<path style="fill:#96A5B9;" d="M401.655,225.103L401.655,225.103c2.438,0,4.414-1.976,4.414-4.414s-1.976-4.414-4.414-4.414l0,0&#10;&#9;&#9;c-2.438,0-4.414,1.976-4.414,4.414S399.218,225.103,401.655,225.103z"/>
	<path style="fill:#96A5B9;" d="M401.655,278.069L401.655,278.069c2.438,0,4.414-1.976,4.414-4.414c0-2.438-1.976-4.414-4.414-4.414&#10;&#9;&#9;l0,0c-2.438,0-4.414,1.976-4.414,4.414C397.241,276.093,399.218,278.069,401.655,278.069z"/>
	<path style="fill:#96A5B9;" d="M401.655,260.414L401.655,260.414c2.438,0,4.414-1.976,4.414-4.414c0-2.438-1.976-4.414-4.414-4.414&#10;&#9;&#9;l0,0c-2.438,0-4.414,1.976-4.414,4.414C397.241,258.438,399.218,260.414,401.655,260.414z"/>
	<path style="fill:#96A5B9;" d="M419.31,242.759h35.31c2.438,0,4.414-1.976,4.414-4.414c0-2.438-1.976-4.414-4.414-4.414h-35.31&#10;&#9;&#9;c-2.438,0-4.414,1.976-4.414,4.414C414.897,240.782,416.873,242.759,419.31,242.759z"/>
	<path style="fill:#96A5B9;" d="M419.31,225.103h35.31c2.438,0,4.414-1.976,4.414-4.414s-1.976-4.414-4.414-4.414h-35.31&#10;&#9;&#9;c-2.438,0-4.414,1.976-4.414,4.414S416.873,225.103,419.31,225.103z"/>
	<path style="fill:#96A5B9;" d="M419.31,278.069h35.31c2.438,0,4.414-1.976,4.414-4.414c0-2.438-1.976-4.414-4.414-4.414h-35.31&#10;&#9;&#9;c-2.438,0-4.414,1.976-4.414,4.414C414.897,276.093,416.873,278.069,419.31,278.069z"/>
	<path style="fill:#96A5B9;" d="M419.31,260.414h35.31c2.438,0,4.414-1.976,4.414-4.414c0-2.438-1.976-4.414-4.414-4.414h-35.31&#10;&#9;&#9;c-2.438,0-4.414,1.976-4.414,4.414C414.897,258.438,416.873,260.414,419.31,260.414z"/>
</g><path style="fill:#E4EAF6;" d="M450.207,114.759c0-2.438-1.976-4.414-4.414-4.414h-8.828c-2.438,0-4.414,1.976-4.414,4.414&#10;&#9;s1.976,4.414,4.414,4.414h8.828C448.231,119.172,450.207,117.196,450.207,114.759z"/><path style="fill:#FF6469;" d="M132.413,198.621h66.207v-17.655H141.24v-79.448h79.448v57.379c2.44,0,4.414,1.974,4.414,4.414&#10;&#9;c0,2.44-1.974,4.414-4.414,4.414v13.241h-13.241v17.655h22.069c0.126,0,0.248-0.013,0.373-0.019l0.07-5.305&#10;&#9;c0.04-3.042,3.641-4.622,5.907-2.593l2.041,1.828c0.281-0.863,0.438-1.782,0.438-2.739v-22.069c-2.44,0-4.414-1.974-4.414-4.414&#10;&#9;c0-2.44,1.974-4.414,4.414-4.414V92.69c0-4.879-3.953-8.828-8.828-8.828h-97.103c-4.875,0-8.828,3.948-8.828,8.828v97.103&#10;&#9;C123.585,194.673,127.538,198.621,132.413,198.621z"/><g>
	<path style="fill:#96A5B9;" d="M203.033,238.345c2.44,0,4.414-1.974,4.414-4.414v-17.655c0-2.44-1.974-4.414-4.414-4.414&#10;&#9;&#9;s-4.414,1.974-4.414,4.414v17.655C198.62,236.371,200.594,238.345,203.033,238.345z"/>
	<path style="fill:#96A5B9;" d="M308.964,291.31h17.655c2.44,0,4.414-1.974,4.414-4.414s-1.974-4.414-4.414-4.414h-17.655&#10;&#9;&#9;c-2.44,0-4.414,1.974-4.414,4.414S306.525,291.31,308.964,291.31z"/>
	<path style="fill:#96A5B9;" d="M326.62,247.172c-2.44,0-4.414,1.974-4.414,4.414v17.655c0,2.44,1.974,4.414,4.414,4.414&#10;&#9;&#9;s4.414-1.974,4.414-4.414v-17.655C331.033,249.146,329.059,247.172,326.62,247.172z"/>
	<path style="fill:#96A5B9;" d="M308.964,167.724h17.655c2.44,0,4.414-1.974,4.414-4.414c0-2.44-1.974-4.414-4.414-4.414h-17.655&#10;&#9;&#9;c-2.44,0-4.414,1.974-4.414,4.414C304.551,165.75,306.525,167.724,308.964,167.724z"/>
	<path style="fill:#96A5B9;" d="M326.62,176.552c-2.44,0-4.414,1.974-4.414,4.414v17.655c0,2.44,1.974,4.414,4.414,4.414&#10;&#9;&#9;s4.414-1.974,4.414-4.414v-17.655C331.033,178.526,329.059,176.552,326.62,176.552z"/>
	<path style="fill:#96A5B9;" d="M255.999,282.483h-17.655c-2.44,0-4.414,1.974-4.414,4.414s1.974,4.414,4.414,4.414h17.655&#10;&#9;&#9;c2.44,0,4.414-1.974,4.414-4.414S258.439,282.483,255.999,282.483z"/>
	<path style="fill:#96A5B9;" d="M203.033,176.552c-2.44,0-4.414,1.974-4.414,4.414v17.655c0,2.44,1.974,4.414,4.414,4.414&#10;&#9;&#9;s4.414-1.974,4.414-4.414v-17.655C207.447,178.526,205.473,176.552,203.033,176.552z"/>
	<path style="fill:#96A5B9;" d="M220.689,282.483h-17.655c-2.44,0-4.414,1.974-4.414,4.414s1.974,4.414,4.414,4.414h17.655&#10;&#9;&#9;c2.44,0,4.414-1.974,4.414-4.414S223.128,282.483,220.689,282.483z"/>
	<path style="fill:#96A5B9;" d="M198.62,269.241c0,2.44,1.974,4.414,4.414,4.414s4.414-1.974,4.414-4.414v-17.655&#10;&#9;&#9;c0-2.44-1.974-4.414-4.414-4.414s-4.414,1.974-4.414,4.414V269.241z"/>
	<path style="fill:#96A5B9;" d="M326.62,211.862c-2.44,0-4.414,1.974-4.414,4.414v17.655c0,2.44,1.974,4.414,4.414,4.414&#10;&#9;&#9;s4.414-1.974,4.414-4.414v-17.655C331.033,213.836,329.059,211.862,326.62,211.862z"/>
	<path style="fill:#96A5B9;" d="M273.654,167.724h17.655c2.44,0,4.414-1.974,4.414-4.414c0-2.44-1.974-4.414-4.414-4.414h-17.655&#10;&#9;&#9;c-2.44,0-4.414,1.974-4.414,4.414C269.24,165.75,271.214,167.724,273.654,167.724z"/>
	<path style="fill:#96A5B9;" d="M198.62,163.31c0,2.44,1.974,4.414,4.414,4.414h17.655c2.44,0,4.414-1.974,4.414-4.414&#10;&#9;&#9;c0-2.44-1.974-4.414-4.414-4.414h-17.655C200.594,158.897,198.62,160.871,198.62,163.31z"/>
	<path style="fill:#96A5B9;" d="M273.654,291.31h17.655c2.44,0,4.414-1.974,4.414-4.414s-1.974-4.414-4.414-4.414h-17.655&#10;&#9;&#9;c-2.44,0-4.414,1.974-4.414,4.414S271.214,291.31,273.654,291.31z"/>
	<path style="fill:#96A5B9;" d="M233.93,163.31c0,2.44,1.974,4.414,4.414,4.414h17.655c2.44,0,4.414-1.974,4.414-4.414&#10;&#9;&#9;c0-2.44-1.974-4.414-4.414-4.414h-17.655C235.904,158.897,233.93,160.871,233.93,163.31z"/>
</g><path style="fill:#464655;" d="M229.958,193.297l-0.07,5.305l-0.371,28.534c-0.033,2.577,2.607,4.327,4.967,3.29l8.781-3.854&#10;&#9;l7.841,17.859c0.728,1.655,2.345,2.638,4.047,2.638c0.59,0,1.194-0.12,1.771-0.371c2.229-0.983,3.245-3.586,2.268-5.818&#10;&#9;l-7.84-17.857l8.778-3.853c2.359-1.036,2.859-4.163,0.94-5.884l-23.165-20.754l-2.041-1.828&#10;&#9;C233.599,188.674,229.997,190.255,229.958,193.297z"/><g>
</g><g>
</g><g>
</g><g>
</g><g>
</g><g>
</g><g>
</g><g>
</g><g>
</g><g>
</g><g>
</g><g>
</g><g>
</g><g>
</g><g>
</g></g><g transform="matrix(0.28806787729263306, 0, 0, 0.28806787729263306, 1015.5367770263883, 225.69834753407412)"><path style="fill:#464655;" d="M494.345,39.724H17.655C7.904,39.724,0,47.628,0,57.379v282.483h512V57.379&#10;&#9;C512,47.628,504.096,39.724,494.345,39.724z M485.517,313.379H26.483V66.207h459.034V313.379z"/><g>
	<path style="fill:#FFFFFF;" d="M203.033,176.552c2.44,0,4.414,1.974,4.414,4.414h13.241v-13.241h-17.655&#10;&#9;&#9;c-2.44,0-4.414-1.974-4.414-4.414c0-2.44,1.974-4.414,4.414-4.414h17.655v-57.379H141.24v79.448h57.379&#10;&#9;&#9;C198.62,178.526,200.594,176.552,203.033,176.552z"/>
	<path style="fill:#FFFFFF;" d="M26.483,313.379h459.034V66.207H26.483V313.379z M220.689,291.31h-17.655&#10;&#9;&#9;c-2.44,0-4.414-1.974-4.414-4.414s1.974-4.414,4.414-4.414h17.655c2.44,0,4.414,1.974,4.414,4.414S223.128,291.31,220.689,291.31z&#10;&#9;&#9; M203.033,247.172c2.44,0,4.414,1.974,4.414,4.414v17.655c0,2.44-1.974,4.414-4.414,4.414s-4.414-1.974-4.414-4.414v-17.655&#10;&#9;&#9;C198.62,249.146,200.594,247.172,203.033,247.172z M198.62,233.931v-17.655c0-2.44,1.974-4.414,4.414-4.414&#10;&#9;&#9;s4.414,1.974,4.414,4.414v17.655c0,2.44-1.974,4.414-4.414,4.414S198.62,236.371,198.62,233.931z M255.999,291.31h-17.655&#10;&#9;&#9;c-2.44,0-4.414-1.974-4.414-4.414s1.974-4.414,4.414-4.414h17.655c2.44,0,4.414,1.974,4.414,4.414S258.439,291.31,255.999,291.31z&#10;&#9;&#9; M331.033,269.241c0,2.44-1.974,4.414-4.414,4.414s-4.414-1.974-4.414-4.414v-17.655c0-2.44,1.974-4.414,4.414-4.414&#10;&#9;&#9;s4.414,1.974,4.414,4.414V269.241z M331.033,233.931c0,2.44-1.974,4.414-4.414,4.414s-4.414-1.974-4.414-4.414v-17.655&#10;&#9;&#9;c0-2.44,1.974-4.414,4.414-4.414s4.414,1.974,4.414,4.414V233.931z M331.033,198.621c0,2.44-1.974,4.414-4.414,4.414&#10;&#9;&#9;s-4.414-1.974-4.414-4.414v-17.655c0-2.44,1.974-4.414,4.414-4.414s4.414,1.974,4.414,4.414V198.621z M370.759,207.448v-61.793&#10;&#9;&#9;V92.69c0-4.875,3.953-8.828,8.828-8.828h79.448c4.875,0,8.828,3.953,8.828,8.828v52.966v61.793v79.448&#10;&#9;&#9;c0,4.875-3.953,8.828-8.828,8.828h-79.448c-4.875,0-8.828-3.953-8.828-8.828V207.448z M308.964,158.897h17.655&#10;&#9;&#9;c2.44,0,4.414,1.974,4.414,4.414c0,2.44-1.974,4.414-4.414,4.414h-17.655c-2.44,0-4.414-1.974-4.414-4.414&#10;&#9;&#9;C304.551,160.871,306.525,158.897,308.964,158.897z M308.964,282.483h17.655c2.44,0,4.414,1.974,4.414,4.414&#10;&#9;&#9;s-1.974,4.414-4.414,4.414h-17.655c-2.44,0-4.414-1.974-4.414-4.414S306.525,282.483,308.964,282.483z M273.654,158.897h17.655&#10;&#9;&#9;c2.44,0,4.414,1.974,4.414,4.414c0,2.44-1.974,4.414-4.414,4.414h-17.655c-2.44,0-4.414-1.974-4.414-4.414&#10;&#9;&#9;C269.24,160.871,271.214,158.897,273.654,158.897z M273.654,282.483h17.655c2.44,0,4.414,1.974,4.414,4.414&#10;&#9;&#9;s-1.974,4.414-4.414,4.414h-17.655c-2.44,0-4.414-1.974-4.414-4.414S271.214,282.483,273.654,282.483z M123.585,92.69&#10;&#9;&#9;c0-4.879,3.953-8.828,8.828-8.828h97.103c4.875,0,8.828,3.948,8.828,8.828v66.207h17.655c2.44,0,4.414,1.974,4.414,4.414&#10;&#9;&#9;c0,2.44-1.974,4.414-4.414,4.414h-17.655v22.069c0,0.957-0.157,1.877-0.438,2.739l23.165,20.754&#10;&#9;&#9;c1.919,1.719,1.419,4.847-0.94,5.884l-8.778,3.853l7.84,17.857c0.979,2.232-0.039,4.836-2.268,5.818&#10;&#9;&#9;c-0.577,0.25-1.181,0.371-1.771,0.371c-1.703,0-3.319-0.983-4.047-2.638l-7.841-17.859l-8.781,3.854&#10;&#9;&#9;c-2.359,1.036-5.001-0.714-4.967-3.29l0.371-28.534c-0.125,0.006-0.247,0.019-0.373,0.019h-22.069c0,2.44-1.974,4.414-4.414,4.414&#10;&#9;&#9;s-4.414-1.974-4.414-4.414h-66.207c-4.875,0-8.828-3.948-8.828-8.828V92.69H123.585z M44.138,92.69&#10;&#9;&#9;c0-4.875,3.953-8.828,8.828-8.828h26.483c4.875,0,8.828,3.953,8.828,8.828v194.207c0,4.875-3.953,8.828-8.828,8.828H52.966&#10;&#9;&#9;c-4.875,0-8.828-3.953-8.828-8.828V92.69z"/>
</g><path style="fill:#BEC8DC;" d="M0,375.172c0,9.751,7.904,17.655,17.655,17.655h167.724h141.241h167.724&#10;&#9;c9.751,0,17.655-7.904,17.655-17.655v-35.31H0V375.172z M256,353.103c7.313,0,13.241,5.929,13.241,13.241&#10;&#9;s-5.929,13.241-13.241,13.241c-7.313,0-13.241-5.929-13.241-13.241S248.687,353.103,256,353.103z"/><path d="M 177.65499877929688 454.6210021972656 L 334.3450012207031 454.6210021972656 L 328.8280029296875 410.4830017089844 L 183.1719970703125 410.4830017089844 Z" style="fill:#AFBBD0;"/><path style="fill:#BEC8DC;" d="M176.552,454.621c-4.875,0-8.828,3.953-8.828,8.828s3.953,8.828,8.828,8.828h158.897&#10;&#9;c4.875,0,8.828-3.953,8.828-8.828s-3.953-8.828-8.828-8.828h-1.103h-156.69H176.552z"/><g>
	<path d="M 183.1719970703125 410.4830017089844 L 328.8280029296875 410.4830017089844 L 326.6210021972656 392.8280029296875 L 185.37899780273438 392.8280029296875 Z" style="fill:#96A5B9;"/>
	<path d="M 269.241 366.345001 A 13.241 13.241 0 0 1 256 379.586001 A 13.241 13.241 0 0 1 242.759 366.345001 A 13.241 13.241 0 0 1 256 353.104001 A 13.241 13.241 0 0 1 269.241 366.345001 Z" style="fill:#96A5B9;"/>
</g><path style="fill:#BEC8DC;" d="M52.966,295.724h26.483c4.875,0,8.828-3.953,8.828-8.828V92.69c0-4.875-3.953-8.828-8.828-8.828&#10;&#9;H52.966c-4.875,0-8.828,3.953-8.828,8.828v194.207C44.138,291.772,48.09,295.724,52.966,295.724z M61.793,101.517h8.828&#10;&#9;c4.875,0,8.828,3.953,8.828,8.828c0,4.875-3.953,8.828-8.828,8.828h-8.828c-4.875,0-8.828-3.953-8.828-8.828&#10;&#9;C52.966,105.47,56.918,101.517,61.793,101.517z M61.793,128h8.828c4.875,0,8.828,3.953,8.828,8.828c0,4.875-3.953,8.828-8.828,8.828&#10;&#9;h-8.828c-4.875,0-8.828-3.953-8.828-8.828C52.966,131.953,56.918,128,61.793,128z M61.793,154.483h8.828&#10;&#9;c4.875,0,8.828,3.953,8.828,8.828s-3.953,8.828-8.828,8.828h-8.828c-4.875,0-8.828-3.953-8.828-8.828S56.918,154.483,61.793,154.483&#10;&#9;z M61.793,180.966h8.828c4.875,0,8.828,3.953,8.828,8.828s-3.953,8.828-8.828,8.828h-8.828c-4.875,0-8.828-3.953-8.828-8.828&#10;&#9;S56.918,180.966,61.793,180.966z M61.793,207.448h8.828c4.875,0,8.828,3.953,8.828,8.828s-3.953,8.828-8.828,8.828h-8.828&#10;&#9;c-4.875,0-8.828-3.953-8.828-8.828S56.918,207.448,61.793,207.448z M52.966,251.586c0-4.875,3.953-8.828,8.828-8.828h8.828&#10;&#9;c4.875,0,8.828,3.953,8.828,8.828v17.655c0,4.875-3.953,8.828-8.828,8.828h-8.828c-4.875,0-8.828-3.953-8.828-8.828V251.586z"/><path style="fill:#E4EAF6;" d="M61.793,119.172h8.828c4.875,0,8.828-3.953,8.828-8.828c0-4.875-3.953-8.828-8.828-8.828h-8.828&#10;&#9;c-4.875,0-8.828,3.953-8.828,8.828C52.966,115.22,56.918,119.172,61.793,119.172z"/><path style="fill:#96A5B9;" d="M61.793,145.655h8.828c4.875,0,8.828-3.953,8.828-8.828c0-4.875-3.953-8.828-8.828-8.828h-8.828&#10;&#9;c-4.875,0-8.828,3.953-8.828,8.828C52.966,141.703,56.918,145.655,61.793,145.655z"/><g>
	<path style="fill:#E4EAF6;" d="M61.793,172.138h8.828c4.875,0,8.828-3.953,8.828-8.828s-3.953-8.828-8.828-8.828h-8.828&#10;&#9;&#9;c-4.875,0-8.828,3.953-8.828,8.828S56.918,172.138,61.793,172.138z"/>
	<path style="fill:#E4EAF6;" d="M61.793,198.621h8.828c4.875,0,8.828-3.953,8.828-8.828s-3.953-8.828-8.828-8.828h-8.828&#10;&#9;&#9;c-4.875,0-8.828,3.953-8.828,8.828S56.918,198.621,61.793,198.621z"/>
	<path style="fill:#E4EAF6;" d="M61.793,225.103h8.828c4.875,0,8.828-3.953,8.828-8.828s-3.953-8.828-8.828-8.828h-8.828&#10;&#9;&#9;c-4.875,0-8.828,3.953-8.828,8.828S56.918,225.103,61.793,225.103z"/>
</g><path style="fill:#96A5B9;" d="M61.793,278.069h8.828c4.875,0,8.828-3.953,8.828-8.828v-17.655c0-4.875-3.953-8.828-8.828-8.828&#10;&#9;h-8.828c-4.875,0-8.828,3.953-8.828,8.828v17.655C52.966,274.116,56.917,278.069,61.793,278.069z"/><g>
	<path style="fill:#BEC8DC;" d="M467.862,92.69c0-4.875-3.953-8.828-8.828-8.828h-79.448c-4.875,0-8.828,3.953-8.828,8.828v52.966&#10;&#9;&#9;h97.103V92.69z M454.621,136.828h-35.31h-8.828H384c-2.438,0-4.414-1.976-4.414-4.414S381.562,128,384,128h26.483h8.828h35.31&#10;&#9;&#9;c2.438,0,4.414,1.976,4.414,4.414S457.058,136.828,454.621,136.828z M454.621,119.172h-8.828h-8.828H384&#10;&#9;&#9;c-2.438,0-4.414-1.976-4.414-4.414s1.976-4.414,4.414-4.414h52.966h8.828h8.828c2.438,0,4.414,1.976,4.414,4.414&#10;&#9;&#9;S457.058,119.172,454.621,119.172z M454.621,101.517h-52.966h-8.828H384c-2.438,0-4.414-1.976-4.414-4.414s1.976-4.414,4.414-4.414&#10;&#9;&#9;h8.828h8.828h52.966c2.438,0,4.414,1.976,4.414,4.414S457.058,101.517,454.621,101.517z"/>
	<path style="fill:#BEC8DC;" d="M379.586,295.724h79.448c4.875,0,8.828-3.953,8.828-8.828v-79.448h-97.103v79.448&#10;&#9;&#9;C370.759,291.772,374.711,295.724,379.586,295.724z M419.31,216.276h35.31c2.438,0,4.414,1.976,4.414,4.414&#10;&#9;&#9;s-1.976,4.414-4.414,4.414h-35.31c-2.438,0-4.414-1.976-4.414-4.414S416.873,216.276,419.31,216.276z M419.31,233.931h35.31&#10;&#9;&#9;c2.438,0,4.414,1.976,4.414,4.414c0,2.438-1.976,4.414-4.414,4.414h-35.31c-2.438,0-4.414-1.976-4.414-4.414&#10;&#9;&#9;C414.897,235.907,416.873,233.931,419.31,233.931z M419.31,251.586h35.31c2.438,0,4.414,1.976,4.414,4.414&#10;&#9;&#9;c0,2.438-1.976,4.414-4.414,4.414h-35.31c-2.438,0-4.414-1.976-4.414-4.414C414.897,253.562,416.873,251.586,419.31,251.586z&#10;&#9;&#9; M419.31,269.241h35.31c2.438,0,4.414,1.976,4.414,4.414c0,2.438-1.976,4.414-4.414,4.414h-35.31c-2.438,0-4.414-1.976-4.414-4.414&#10;&#9;&#9;C414.897,271.218,416.873,269.241,419.31,269.241z M401.655,216.276L401.655,216.276c2.438,0,4.414,1.976,4.414,4.414&#10;&#9;&#9;s-1.976,4.414-4.414,4.414l0,0c-2.438,0-4.414-1.976-4.414-4.414S399.218,216.276,401.655,216.276z M401.655,233.931&#10;&#9;&#9;L401.655,233.931c2.438,0,4.414,1.976,4.414,4.414c0,2.438-1.976,4.414-4.414,4.414l0,0c-2.438,0-4.414-1.976-4.414-4.414&#10;&#9;&#9;C397.241,235.907,399.218,233.931,401.655,233.931z M401.655,251.586L401.655,251.586c2.438,0,4.414,1.976,4.414,4.414&#10;&#9;&#9;c0,2.438-1.976,4.414-4.414,4.414l0,0c-2.438,0-4.414-1.976-4.414-4.414C397.241,253.562,399.218,251.586,401.655,251.586z&#10;&#9;&#9; M401.655,269.241L401.655,269.241c2.438,0,4.414,1.976,4.414,4.414c0,2.438-1.976,4.414-4.414,4.414l0,0&#10;&#9;&#9;c-2.438,0-4.414-1.976-4.414-4.414C397.241,271.218,399.218,269.241,401.655,269.241z M384,216.276L384,216.276&#10;&#9;&#9;c2.438,0,4.414,1.976,4.414,4.414s-1.976,4.414-4.414,4.414l0,0c-2.438,0-4.414-1.976-4.414-4.414S381.562,216.276,384,216.276z&#10;&#9;&#9; M384,233.931L384,233.931c2.438,0,4.414,1.976,4.414,4.414c0,2.438-1.976,4.414-4.414,4.414l0,0c-2.438,0-4.414-1.976-4.414-4.414&#10;&#9;&#9;C379.586,235.907,381.562,233.931,384,233.931z M384,251.586L384,251.586c2.438,0,4.414,1.976,4.414,4.414&#10;&#9;&#9;c0,2.438-1.976,4.414-4.414,4.414l0,0c-2.438,0-4.414-1.976-4.414-4.414C379.586,253.562,381.562,251.586,384,251.586z&#10;&#9;&#9; M384,269.241L384,269.241c2.438,0,4.414,1.976,4.414,4.414c0,2.438-1.976,4.414-4.414,4.414l0,0c-2.438,0-4.414-1.976-4.414-4.414&#10;&#9;&#9;C379.586,271.218,381.562,269.241,384,269.241z"/>
</g><g>
	<path style="fill:#96A5B9;" d="M467.862,145.655h-97.103v61.793h97.103V145.655z M392.828,198.621H384&#10;&#9;&#9;c-2.438,0-4.414-1.976-4.414-4.414s1.976-4.414,4.414-4.414h8.828c2.438,0,4.414,1.976,4.414,4.414&#10;&#9;&#9;S395.265,198.621,392.828,198.621z M392.828,180.966H384c-2.438,0-4.414-1.976-4.414-4.414s1.976-4.414,4.414-4.414h8.828&#10;&#9;&#9;c2.438,0,4.414,1.976,4.414,4.414S395.265,180.966,392.828,180.966z M392.828,163.31H384c-2.438,0-4.414-1.976-4.414-4.414&#10;&#9;&#9;s1.976-4.414,4.414-4.414h8.828c2.438,0,4.414,1.976,4.414,4.414S395.265,163.31,392.828,163.31z M454.621,198.621h-44.138&#10;&#9;&#9;c-2.438,0-4.414-1.976-4.414-4.414s1.976-4.414,4.414-4.414h44.138c2.438,0,4.414,1.976,4.414,4.414&#10;&#9;&#9;S457.058,198.621,454.621,198.621z M454.621,180.966h-44.138c-2.438,0-4.414-1.976-4.414-4.414s1.976-4.414,4.414-4.414h44.138&#10;&#9;&#9;c2.438,0,4.414,1.976,4.414,4.414S457.058,180.966,454.621,180.966z M454.621,163.31h-44.138c-2.438,0-4.414-1.976-4.414-4.414&#10;&#9;&#9;s1.976-4.414,4.414-4.414h44.138c2.438,0,4.414,1.976,4.414,4.414S457.058,163.31,454.621,163.31z"/>
	<path style="fill:#96A5B9;" d="M454.621,92.69h-52.966c2.438,0,4.414,1.976,4.414,4.414s-1.976,4.414-4.414,4.414h52.966&#10;&#9;&#9;c2.438,0,4.414-1.976,4.414-4.414S457.058,92.69,454.621,92.69z"/>
	<path style="fill:#96A5B9;" d="M388.414,97.103c0-2.438,1.976-4.414,4.414-4.414H384c-2.438,0-4.414,1.976-4.414,4.414&#10;&#9;&#9;s1.976,4.414,4.414,4.414h8.828C390.39,101.517,388.414,99.541,388.414,97.103z"/>
	<path style="fill:#96A5B9;" d="M454.621,128h-35.31c2.438,0,4.414,1.976,4.414,4.414s-1.976,4.414-4.414,4.414h35.31&#10;&#9;&#9;c2.438,0,4.414-1.976,4.414-4.414S457.058,128,454.621,128z"/>
	<path style="fill:#96A5B9;" d="M406.069,132.414c0-2.438,1.976-4.414,4.414-4.414H384c-2.438,0-4.414,1.976-4.414,4.414&#10;&#9;&#9;s1.976,4.414,4.414,4.414h26.483C408.045,136.828,406.069,134.851,406.069,132.414z"/>
</g><path style="fill:#BEC8DC;" d="M454.621,154.483h-44.138c-2.438,0-4.414,1.976-4.414,4.414s1.976,4.414,4.414,4.414h44.138&#10;&#9;c2.438,0,4.414-1.976,4.414-4.414S457.058,154.483,454.621,154.483z"/><g>
	<path style="fill:#96A5B9;" d="M432.552,114.759c0-2.438,1.976-4.414,4.414-4.414H384c-2.438,0-4.414,1.976-4.414,4.414&#10;&#9;&#9;s1.976,4.414,4.414,4.414h52.966C434.528,119.172,432.552,117.196,432.552,114.759z"/>
	<path style="fill:#96A5B9;" d="M454.621,110.345h-8.828c2.438,0,4.414,1.976,4.414,4.414s-1.976,4.414-4.414,4.414h8.828&#10;&#9;&#9;c2.438,0,4.414-1.976,4.414-4.414S457.058,110.345,454.621,110.345z"/>
</g><g>
	<path style="fill:#E4EAF6;" d="M406.069,97.103c0-2.438-1.976-4.414-4.414-4.414h-8.828c-2.438,0-4.414,1.976-4.414,4.414&#10;&#9;&#9;s1.976,4.414,4.414,4.414h8.828C404.093,101.517,406.069,99.541,406.069,97.103z"/>
	<path style="fill:#E4EAF6;" d="M423.724,132.414c0-2.438-1.976-4.414-4.414-4.414h-8.828c-2.438,0-4.414,1.976-4.414,4.414&#10;&#9;&#9;s1.976,4.414,4.414,4.414h8.828C421.748,136.828,423.724,134.851,423.724,132.414z"/>
	<path style="fill:#E4EAF6;" d="M392.828,154.483H384c-2.438,0-4.414,1.976-4.414,4.414s1.976,4.414,4.414,4.414h8.828&#10;&#9;&#9;c2.438,0,4.414-1.976,4.414-4.414S395.265,154.483,392.828,154.483z"/>
</g><path style="fill:#BEC8DC;" d="M454.621,172.138h-44.138c-2.438,0-4.414,1.976-4.414,4.414s1.976,4.414,4.414,4.414h44.138&#10;&#9;c2.438,0,4.414-1.976,4.414-4.414S457.058,172.138,454.621,172.138z"/><path style="fill:#E4EAF6;" d="M392.828,172.138H384c-2.438,0-4.414,1.976-4.414,4.414s1.976,4.414,4.414,4.414h8.828&#10;&#9;c2.438,0,4.414-1.976,4.414-4.414S395.265,172.138,392.828,172.138z"/><path style="fill:#BEC8DC;" d="M454.621,189.793h-44.138c-2.438,0-4.414,1.976-4.414,4.414s1.976,4.414,4.414,4.414h44.138&#10;&#9;c2.438,0,4.414-1.976,4.414-4.414S457.058,189.793,454.621,189.793z"/><g>
	<path style="fill:#E4EAF6;" d="M392.828,189.793H384c-2.438,0-4.414,1.976-4.414,4.414s1.976,4.414,4.414,4.414h8.828&#10;&#9;&#9;c2.438,0,4.414-1.976,4.414-4.414S395.265,189.793,392.828,189.793z"/>
	<path style="fill:#E4EAF6;" d="M384,242.759L384,242.759c2.438,0,4.414-1.976,4.414-4.414c0-2.438-1.976-4.414-4.414-4.414l0,0&#10;&#9;&#9;c-2.438,0-4.414,1.976-4.414,4.414C379.586,240.782,381.562,242.759,384,242.759z"/>
	<path style="fill:#E4EAF6;" d="M384,225.103L384,225.103c2.438,0,4.414-1.976,4.414-4.414s-1.976-4.414-4.414-4.414l0,0&#10;&#9;&#9;c-2.438,0-4.414,1.976-4.414,4.414S381.562,225.103,384,225.103z"/>
	<path style="fill:#E4EAF6;" d="M384,278.069L384,278.069c2.438,0,4.414-1.976,4.414-4.414c0-2.438-1.976-4.414-4.414-4.414l0,0&#10;&#9;&#9;c-2.438,0-4.414,1.976-4.414,4.414C379.586,276.093,381.562,278.069,384,278.069z"/>
	<path style="fill:#E4EAF6;" d="M384,260.414L384,260.414c2.438,0,4.414-1.976,4.414-4.414c0-2.438-1.976-4.414-4.414-4.414l0,0&#10;&#9;&#9;c-2.438,0-4.414,1.976-4.414,4.414C379.586,258.438,381.562,260.414,384,260.414z"/>
</g><g>
	<path style="fill:#96A5B9;" d="M401.655,242.759L401.655,242.759c2.438,0,4.414-1.976,4.414-4.414c0-2.438-1.976-4.414-4.414-4.414&#10;&#9;&#9;l0,0c-2.438,0-4.414,1.976-4.414,4.414C397.241,240.782,399.218,242.759,401.655,242.759z"/>
	<path style="fill:#96A5B9;" d="M401.655,225.103L401.655,225.103c2.438,0,4.414-1.976,4.414-4.414s-1.976-4.414-4.414-4.414l0,0&#10;&#9;&#9;c-2.438,0-4.414,1.976-4.414,4.414S399.218,225.103,401.655,225.103z"/>
	<path style="fill:#96A5B9;" d="M401.655,278.069L401.655,278.069c2.438,0,4.414-1.976,4.414-4.414c0-2.438-1.976-4.414-4.414-4.414&#10;&#9;&#9;l0,0c-2.438,0-4.414,1.976-4.414,4.414C397.241,276.093,399.218,278.069,401.655,278.069z"/>
	<path style="fill:#96A5B9;" d="M401.655,260.414L401.655,260.414c2.438,0,4.414-1.976,4.414-4.414c0-2.438-1.976-4.414-4.414-4.414&#10;&#9;&#9;l0,0c-2.438,0-4.414,1.976-4.414,4.414C397.241,258.438,399.218,260.414,401.655,260.414z"/>
	<path style="fill:#96A5B9;" d="M419.31,242.759h35.31c2.438,0,4.414-1.976,4.414-4.414c0-2.438-1.976-4.414-4.414-4.414h-35.31&#10;&#9;&#9;c-2.438,0-4.414,1.976-4.414,4.414C414.897,240.782,416.873,242.759,419.31,242.759z"/>
	<path style="fill:#96A5B9;" d="M419.31,225.103h35.31c2.438,0,4.414-1.976,4.414-4.414s-1.976-4.414-4.414-4.414h-35.31&#10;&#9;&#9;c-2.438,0-4.414,1.976-4.414,4.414S416.873,225.103,419.31,225.103z"/>
	<path style="fill:#96A5B9;" d="M419.31,278.069h35.31c2.438,0,4.414-1.976,4.414-4.414c0-2.438-1.976-4.414-4.414-4.414h-35.31&#10;&#9;&#9;c-2.438,0-4.414,1.976-4.414,4.414C414.897,276.093,416.873,278.069,419.31,278.069z"/>
	<path style="fill:#96A5B9;" d="M419.31,260.414h35.31c2.438,0,4.414-1.976,4.414-4.414c0-2.438-1.976-4.414-4.414-4.414h-35.31&#10;&#9;&#9;c-2.438,0-4.414,1.976-4.414,4.414C414.897,258.438,416.873,260.414,419.31,260.414z"/>
</g><path style="fill:#E4EAF6;" d="M450.207,114.759c0-2.438-1.976-4.414-4.414-4.414h-8.828c-2.438,0-4.414,1.976-4.414,4.414&#10;&#9;s1.976,4.414,4.414,4.414h8.828C448.231,119.172,450.207,117.196,450.207,114.759z"/><path style="fill:#FF6469;" d="M132.413,198.621h66.207v-17.655H141.24v-79.448h79.448v57.379c2.44,0,4.414,1.974,4.414,4.414&#10;&#9;c0,2.44-1.974,4.414-4.414,4.414v13.241h-13.241v17.655h22.069c0.126,0,0.248-0.013,0.373-0.019l0.07-5.305&#10;&#9;c0.04-3.042,3.641-4.622,5.907-2.593l2.041,1.828c0.281-0.863,0.438-1.782,0.438-2.739v-22.069c-2.44,0-4.414-1.974-4.414-4.414&#10;&#9;c0-2.44,1.974-4.414,4.414-4.414V92.69c0-4.879-3.953-8.828-8.828-8.828h-97.103c-4.875,0-8.828,3.948-8.828,8.828v97.103&#10;&#9;C123.585,194.673,127.538,198.621,132.413,198.621z"/><g>
	<path style="fill:#96A5B9;" d="M203.033,238.345c2.44,0,4.414-1.974,4.414-4.414v-17.655c0-2.44-1.974-4.414-4.414-4.414&#10;&#9;&#9;s-4.414,1.974-4.414,4.414v17.655C198.62,236.371,200.594,238.345,203.033,238.345z"/>
	<path style="fill:#96A5B9;" d="M308.964,291.31h17.655c2.44,0,4.414-1.974,4.414-4.414s-1.974-4.414-4.414-4.414h-17.655&#10;&#9;&#9;c-2.44,0-4.414,1.974-4.414,4.414S306.525,291.31,308.964,291.31z"/>
	<path style="fill:#96A5B9;" d="M326.62,247.172c-2.44,0-4.414,1.974-4.414,4.414v17.655c0,2.44,1.974,4.414,4.414,4.414&#10;&#9;&#9;s4.414-1.974,4.414-4.414v-17.655C331.033,249.146,329.059,247.172,326.62,247.172z"/>
	<path style="fill:#96A5B9;" d="M308.964,167.724h17.655c2.44,0,4.414-1.974,4.414-4.414c0-2.44-1.974-4.414-4.414-4.414h-17.655&#10;&#9;&#9;c-2.44,0-4.414,1.974-4.414,4.414C304.551,165.75,306.525,167.724,308.964,167.724z"/>
	<path style="fill:#96A5B9;" d="M326.62,176.552c-2.44,0-4.414,1.974-4.414,4.414v17.655c0,2.44,1.974,4.414,4.414,4.414&#10;&#9;&#9;s4.414-1.974,4.414-4.414v-17.655C331.033,178.526,329.059,176.552,326.62,176.552z"/>
	<path style="fill:#96A5B9;" d="M255.999,282.483h-17.655c-2.44,0-4.414,1.974-4.414,4.414s1.974,4.414,4.414,4.414h17.655&#10;&#9;&#9;c2.44,0,4.414-1.974,4.414-4.414S258.439,282.483,255.999,282.483z"/>
	<path style="fill:#96A5B9;" d="M203.033,176.552c-2.44,0-4.414,1.974-4.414,4.414v17.655c0,2.44,1.974,4.414,4.414,4.414&#10;&#9;&#9;s4.414-1.974,4.414-4.414v-17.655C207.447,178.526,205.473,176.552,203.033,176.552z"/>
	<path style="fill:#96A5B9;" d="M220.689,282.483h-17.655c-2.44,0-4.414,1.974-4.414,4.414s1.974,4.414,4.414,4.414h17.655&#10;&#9;&#9;c2.44,0,4.414-1.974,4.414-4.414S223.128,282.483,220.689,282.483z"/>
	<path style="fill:#96A5B9;" d="M198.62,269.241c0,2.44,1.974,4.414,4.414,4.414s4.414-1.974,4.414-4.414v-17.655&#10;&#9;&#9;c0-2.44-1.974-4.414-4.414-4.414s-4.414,1.974-4.414,4.414V269.241z"/>
	<path style="fill:#96A5B9;" d="M326.62,211.862c-2.44,0-4.414,1.974-4.414,4.414v17.655c0,2.44,1.974,4.414,4.414,4.414&#10;&#9;&#9;s4.414-1.974,4.414-4.414v-17.655C331.033,213.836,329.059,211.862,326.62,211.862z"/>
	<path style="fill:#96A5B9;" d="M273.654,167.724h17.655c2.44,0,4.414-1.974,4.414-4.414c0-2.44-1.974-4.414-4.414-4.414h-17.655&#10;&#9;&#9;c-2.44,0-4.414,1.974-4.414,4.414C269.24,165.75,271.214,167.724,273.654,167.724z"/>
	<path style="fill:#96A5B9;" d="M198.62,163.31c0,2.44,1.974,4.414,4.414,4.414h17.655c2.44,0,4.414-1.974,4.414-4.414&#10;&#9;&#9;c0-2.44-1.974-4.414-4.414-4.414h-17.655C200.594,158.897,198.62,160.871,198.62,163.31z"/>
	<path style="fill:#96A5B9;" d="M273.654,291.31h17.655c2.44,0,4.414-1.974,4.414-4.414s-1.974-4.414-4.414-4.414h-17.655&#10;&#9;&#9;c-2.44,0-4.414,1.974-4.414,4.414S271.214,291.31,273.654,291.31z"/>
	<path style="fill:#96A5B9;" d="M233.93,163.31c0,2.44,1.974,4.414,4.414,4.414h17.655c2.44,0,4.414-1.974,4.414-4.414&#10;&#9;&#9;c0-2.44-1.974-4.414-4.414-4.414h-17.655C235.904,158.897,233.93,160.871,233.93,163.31z"/>
</g><path style="fill:#464655;" d="M229.958,193.297l-0.07,5.305l-0.371,28.534c-0.033,2.577,2.607,4.327,4.967,3.29l8.781-3.854&#10;&#9;l7.841,17.859c0.728,1.655,2.345,2.638,4.047,2.638c0.59,0,1.194-0.12,1.771-0.371c2.229-0.983,3.245-3.586,2.268-5.818&#10;&#9;l-7.84-17.857l8.778-3.853c2.359-1.036,2.859-4.163,0.94-5.884l-23.165-20.754l-2.041-1.828&#10;&#9;C233.599,188.674,229.997,190.255,229.958,193.297z"/><g>
</g><g>
</g><g>
</g><g>
</g><g>
</g><g>
</g><g>
</g><g>
</g><g>
</g><g>
</g><g>
</g><g>
</g><g>
</g><g>
</g><g>
</g></g><g transform="matrix(1.6395952701568601, 0, 0, 1.6395952701568601, -390.251321965988, -1141.458544372189)"><g transform="matrix(0.31268230080604553, 0, 0, 0.31268230080604553, 295.427978515625, 817.1217041015625)"><path fill="#58595B" d="M465.3,115.9c7.2-9.7,17.2-16.7,28.5-20.7c4.7-1.7,6.7,5.8,2.1,7.5c-9.1,3.3-17.4,9-23.4,16.7&#10;&#9;&#9;&#9;&#9;c-2.9,3.7-5.7,7.9-7.3,12.3c-0.6,1.8-1.8,4.3-1.1,6.2c1.2,3.5,7,0.3,8.6-0.5c17.4-8.6,32.7-20.5,45.5-35.1&#10;&#9;&#9;&#9;&#9;c-0.3-3.7,5.1-6.3,7.1-2.4c4.2,8.4,10.2,16,18,21.3c3.6,2.4,8.3,5.8,12.7,6.5c7.9,1.1,0.5-9.5-0.8-11.2c-3-3.9,3.7-7.8,6.7-3.9&#10;&#9;&#9;&#9;&#9;c2.1,2.7,4.3,6.1,5.1,9.6c3.7,3.4,9.1,7.7,14.5,5.6c6.7-2.6,2.5-9.6-0.2-13.7c-2.7-4.2,4-8.1,6.7-3.9c1.3,2,2.6,4.5,3.5,7&#10;&#9;&#9;&#9;&#9;c0.6,0,1.2,0.1,1.9,0.4c8.7,4.1,16.2,10,22.2,17.4c3.2,4,5.9,8.3,7.9,12.9c2.9-12.1-2.3-25.6-13.1-32.3c-2.5-1.5-2.5-5.1,0-6.7&#10;&#9;&#9;&#9;&#9;c3.2-2,6.4-3.9,9.6-5.9c-7.7-6.3-16.4-11.1-26-14.2c-4-1.3-3.5-8,1-7.6c2.2,0.2,6.1-1.6,3.9-4.5c-1.2-1.6-3.5-2.1-5.4-2.3&#10;&#9;&#9;&#9;&#9;c-3.7-0.5-7.5-0.8-11.2-1c-7.2-0.3-14.3-0.2-21.5,0.3c-2.7,0.2-5.1-3.5-3.3-5.8c1.4-1.9,2.8-3.8,4.2-5.7&#10;&#9;&#9;&#9;&#9;c-10.9,1.1-21.5,4-31.5,8.9c-3.4,1.6-7.3-1.8-5.3-5.3c1.5-2.5,2.9-5.1,4.4-7.6c-14.1,5.5-26.6,14.7-35.9,26.8&#10;&#9;&#9;&#9;&#9;c-2,2.6-5.5,1.8-6.9-0.2c-8.5-5.1-18.9-7-28.6-4.4c-2.9,0.8-5.7,1.7-8.2,3.2c0,0-0.1,0.1-0.1,0.1c0.5,0.1,0.9,0.1,1.4,0.2&#10;&#9;&#9;&#9;&#9;c6,0.7,12,1.4,18,2c4.9,0.6,4.9,8.3,0,7.7c-0.7-0.1-1.4-0.2-2.1-0.2c-0.2,0.1-0.5,0.2-0.8,0.3c-11.8,3.2-22.1,10.6-28.7,20.8&#10;&#9;&#9;&#9;&#9;c3.1-1.2,6.1-2.4,9.2-3.7c4-1.6,5.8,3.8,3.8,6.5c-6.7,8.6-11.4,18.7-13.5,29.4c2.5-1.4,4.9-2.9,7.4-4.3c3.1-1.8,6.2,1.2,5.7,4.4&#10;&#9;&#9;&#9;&#9;c-0.8,4.7-0.3,9.1,1.4,13.2c1.8-5.4,4.5-10.5,8.1-15.2C451.5,136.5,460,123.1,465.3,115.9z" transform="matrix(1, 0, 0, 1, 0, 0)"/><path fill="#F6C28D" d="M448.9,170.8c-0.3-0.2-0.5-0.5-0.8-0.8c-0.7-1-1.4-2-2-3c-0.1,0-0.2,0-0.3,0&#10;&#9;&#9;&#9;&#9;c-10.4-1.7-20.3,8.2-16.9,18.7c3.2,9.9,13.8,13.2,22.3,8.3C448.8,186.4,448,178.5,448.9,170.8z" transform="matrix(1, 0, 0, 1, 0, 0)"/><path fill="#336270" d="M513.1,350.1c-6.4-1.1-12.8-2.5-19.1-4.3c-1.1,5.6-2.2,11.3-3.3,16.9c-0.5,2.7-2.7,8.3-0.2,10.6&#10;&#9;&#9;&#9;&#9;c1.6,1.5,3.4,2.4,5.5,3c4.6,1.3,9.5,2.1,14.3,2.7C510.1,369.2,510.9,359.4,513.1,350.1z" transform="matrix(1, 0, 0, 1, 0, 0)"/><path fill="#3E7084" d="M597.9,345.5c-27.3,8.2-56.6,9.4-84.8,4.6c-2.2,9.4-3.1,19.2-2.8,28.9c6.4,0.7,12.9,1,19.2,1&#10;&#9;&#9;&#9;&#9;c0.7-4.4,1.4-8.8,2.1-13.2c0.3-1.8,2.1-2.7,3.7-2.8c7.4-0.6,14.8-1.1,22.2-1.7c0.9-0.5,2.2-0.6,3.3-0.2c2.9,0,3.9,2.8,3.1,5&#10;&#9;&#9;&#9;&#9;c0.6,4.6,1.2,9.3,1.8,13.9c12.9,0.3,25.5-1.9,37.5-6.8C601.5,364.6,599.7,355,597.9,345.5z" transform="matrix(1, 0, 0, 1, 0, 0)"/><path fill="#69C2EC" d="M661.3,384.6c2.1-11.6-1.4-23.4-9.7-32C642.6,363.6,647.1,380.9,661.3,384.6z" transform="matrix(1, 0, 0, 1, 0, 0)"/><path fill="#69C2EC" d="M457.1,457.3c8.3-0.6,16.7-1.1,25-1.7c-0.5-1.1-1-2.3-1.4-3.4C472.1,448.3,463,450.6,457.1,457.3z" transform="matrix(1, 0, 0, 1, 0, 0)"/><path fill="#69C2EC" d="M560.9,336.5c4.3,2.1,8.7,4.3,13.2,6.4c6.3-1,12.6-2.4,18.8-4.1c2.3-0.6,5.1-1.1,7.1-2.3&#10;&#9;&#9;&#9;&#9;c2.6-1.6,1.9-4.1,0.9-6.6c-1.6-4-3.2-8.1-4.9-12.1c-3.5-8.7-7-17.5-10.5-26.2c-6.9-17.2-13.8-34.4-20.7-51.6&#10;&#9;&#9;&#9;&#9;c-7.7,1.8-15.5,2.9-23.2,3.4c-10.6,0.7-21.3,0.2-31.7-1.9c0.1,9-0.3,18-1.2,26.9C516.9,297,532.8,322.5,560.9,336.5z" transform="matrix(1, 0, 0, 1, 0, 0)"/><path fill="#48B7E2" d="M560.9,336.5c-28.1-14.1-44-39.6-52.2-68.2c-2.5,23.5-8.6,46.6-18.1,68.4c26.9,8.3,55.7,10.6,83.5,6.2&#10;&#9;&#9;&#9;&#9;C569.6,340.8,565.2,338.7,560.9,336.5z" transform="matrix(1, 0, 0, 1, 0, 0)"/><path fill="#F6C28D" d="M628.3,178.8c9.6,4.9,23.5-0.5,23.5-12.6c0-11.3-10.9-19.8-21.6-14.9c-0.7,2.4-1.6,4.7-2.8,7&#10;&#9;&#9;&#9;&#9;c-0.1,0.2-0.3,0.4-0.4,0.6C628.5,165.4,629,172.2,628.3,178.8z" transform="matrix(1, 0, 0, 1, 0, 0)"/><path fill="#F6C28D" d="M557.6,233.5c24.6-4.8,52.1-17.2,60.4-43.1c8.2-25.5-2.5-52.2-25.7-64.8c-0.5,3.2-2.2,6.2-5.9,8.1&#10;&#9;&#9;&#9;&#9;c-7.6,3.9-14.8,1.5-21.1-3c-3.7,5.5-10.1,5.4-15.9,2.8c-11.4-5.1-21-13.4-27.6-23.9c-8.7,9.6-18.5,18.3-29.4,25.3&#10;&#9;&#9;&#9;&#9;c-6.1,3.9-12.4,7.6-19.1,10.5c-1.8,0.8-4,1.5-6.1,1.7c0,0,0,0.1-0.1,0.1c-18.5,20.4-11.9,51.8,7.5,69&#10;&#9;&#9;&#9;&#9;C497,236.3,529.2,239.1,557.6,233.5z M568.2,144.1c10.7,0,10.7,16.6,0,16.6C557.5,160.7,557.5,144.1,568.2,144.1z M498.7,149.6&#10;&#9;&#9;&#9;&#9;c10.7,0,10.7,16.6,0,16.6C488,166.2,488,149.6,498.7,149.6z M487.9,186.9c-3.4-3.6,2-9.1,5.5-5.5c22.7,23.9,61.8,22.2,81.7-4.5&#10;&#9;&#9;&#9;&#9;c2.9-4,9.6-0.1,6.7,3.9C559,211.4,514.3,214.7,487.9,186.9z" transform="matrix(1, 0, 0, 1, 0, 0)"/><path d="M498.7,166.2c10.7,0,10.7-16.6,0-16.6C488,149.6,488,166.2,498.7,166.2z" transform="matrix(1, 0, 0, 1, 0, 0)"/><path d="M568.2,160.7c10.7,0,10.7-16.6,0-16.6C557.5,144.1,557.5,160.7,568.2,160.7z" transform="matrix(1, 0, 0, 1, 0, 0)"/><path d="M581.7,180.8c3-4-3.7-7.9-6.7-3.9c-19.8,26.7-59,28.4-81.7,4.5c-3.4-3.6-8.9,1.9-5.5,5.5&#10;&#9;&#9;&#9;&#9;C514.3,214.7,559,211.4,581.7,180.8z" transform="matrix(1, 0, 0, 1, 0, 0)"/><path d="M502.2,246.6c-0.3,31.2-7.1,62.1-20.2,90.5c-1.1,2.3-0.2,4.8,2.3,5.7c0.8,0.3,1.5,0.5,2.3,0.7c-1.5,7.7-3,15.3-4.4,23&#10;&#9;&#9;&#9;&#9;c-1.1,6.1,0.8,10.8,5.7,14.5c1.2,0.9,2.6,1.6,4.1,2.2c-3.3,20.4-6.6,40.7-9.9,61.1c-13.8-5-29.6,1-35.6,15.3&#10;&#9;&#9;&#9;&#9;c-1,2.4,0.1,6,3.3,5.8c12.6-0.9,25.3-1.7,37.9-2.6c2.2-0.2,4.8-2.4,3.7-4.9c-0.9-2.2-1.8-4.4-2.8-6.6c0-0.1,0.1-0.2,0.1-0.3&#10;&#9;&#9;&#9;&#9;c3.5-22,7.1-44,10.6-66c2.4,0.4,4.9,0.6,7,0.9c8.8,1.2,17.6,1.7,26.4,1.7c2.3,0,3.5-1.6,3.7-3.4c0-0.1,0-0.1,0.1-0.2&#10;&#9;&#9;&#9;&#9;c0.7-4.2,1.3-8.4,2-12.6c6-0.5,12-0.9,18-1.4c0.6,4.9,1.3,9.8,1.9,14.7c0.3,2.2,1.5,3.7,3.9,3.9c5,0.3,9.9,0.2,14.8-0.3&#10;&#9;&#9;&#9;&#9;c8.9,8.9,21.7,10.5,33.5,7.5c11.8-3,21.4-11.4,30-20c3.7,9.6,13.5,15.9,23.5,17c1.7,0.2,3.3-1.3,3.7-2.8&#10;&#9;&#9;&#9;&#9;c4.5-15.8-0.2-33-12.3-44.3c-0.4-0.4-0.8-0.6-1.2-0.8c-1.3-1.5-3.8-2.2-5.7-0.5c-6.6,5.6-10,13.8-9.8,22.1&#10;&#9;&#9;&#9;&#9;c-12.4,12.5-33.8,31-51.3,20.2c7.3-1.5,14.5-3.7,21.5-6.8c1.8-0.8,2.2-2.3,1.9-3.7c0.2-0.6,0.2-1.2,0.1-1.9&#10;&#9;&#9;&#9;&#9;c-2-10.7-4.1-21.5-6.1-32.2c3.8-2.9,5.4-7.3,3.8-12.7c-2.9-10.2-8-20.1-12-29.9c-6.9-17.3-13.9-34.6-20.8-51.9&#10;&#9;&#9;&#9;&#9;c40,18,87.7,9.2,118.4-23c0.2-0.2,0.4-0.4,0.5-0.7c1.7,0,3.4-0.6,5.1-1.2c5.5-2,10.9-4.1,16.4-6.1c4.6-1.7,2.6-9.2-2.1-7.5&#10;&#9;&#9;&#9;&#9;c-6.1,2.3-12.1,4.5-18.2,6.8c0.1,0-1.7-16.6-1.8-18.4c-0.4-4.9-8.1-5-7.7,0c0.4,4.8,0.8,9.7,1.2,14.5c0,0.1,0,0.2,0,0.3&#10;&#9;&#9;&#9;&#9;c-2.4-1.7-4.8-3.5-7.2-5.2c-1.7-1.2-4.3-0.3-5.3,1.4c-1.1,2-0.3,4,1.4,5.3c3.4,2.5,6.8,4.9,10.2,7.4&#10;&#9;&#9;&#9;&#9;c-30.2,29.7-76.3,36.5-113.7,16.3c16.3-5,31.4-13.5,42.1-26.7c5.8-7.2,9.7-15.5,11.6-24.2c14.9,6,31-3.9,32.5-20.5&#10;&#9;&#9;&#9;&#9;c1.4-15.7-14-26-27.9-23.3c0.6-11.4-4-22.8-12.7-30.5c3.1-1.9,6.2-3.8,9.2-5.6c2.1-1.3,2.6-4.3,0.8-6.1&#10;&#9;&#9;&#9;&#9;c-7.3-6.8-15.5-12.2-24.4-16.1c3.1-4.2,3.1-10.6-1.8-14.8c-4.2-3.6-11.1-3.5-16.3-4c-5.9-0.5-11.8-0.6-17.7-0.4&#10;&#9;&#9;&#9;&#9;c1.4-1.9,2.8-3.8,4.3-5.7c1.8-2.4-0.6-5.9-3.3-5.8c-11.2,0.2-22,2.1-32.4,5.8c1.2-2.2,2.5-4.3,3.7-6.5c1.7-3-1.1-6.5-4.4-5.7&#10;&#9;&#9;&#9;&#9;c-18.6,4.9-34.8,15.4-47.1,30c-13-7.5-28.7-7.8-42.3-1.4c-4.8,2.2-11.8,9.6-4.5,13.9c2.3,1.3,5.4,1.5,8.2,1.6&#10;&#9;&#9;&#9;&#9;c-11.4,6.4-20.3,16.7-25.3,29.2c-1,2.6,2.1,5.8,4.8,4.8c2.4-1,4.9-2,7.3-2.9c-5.3,9.6-8.6,20.1-9.7,31.4c-0.3,3,3.5,4.7,5.8,3.3&#10;&#9;&#9;&#9;&#9;c2.7-1.6,5.4-3.2,8.1-4.8c0.1,2.3,0.4,4.5,1,6.7c-13.1,0.5-24.4,11.5-22.1,25.6c2.6,15.6,19.6,23.7,33.1,16.4&#10;&#9;&#9;&#9;&#9;c1.9,4.2,4.4,8.3,7.3,12c10.2,12.9,23.9,21.2,38.9,25.8c-17.5,8.5-36.6,17.4-56.4,12.1c-15.5-4.1-28.1-17-34.6-31.4&#10;&#9;&#9;&#9;&#9;c3.5,0.1,7,0.2,10.5,0.3c5,0.1,5-7.6,0-7.7c-4.3-0.1-8.5-0.2-12.8-0.4c0.4-5.3,0.9-10.6,1.3-16c0.4-4.7-6.1-4.7-7.6-1&#10;&#9;&#9;&#9;&#9;c-0.2,0.5-0.5,1.1-0.7,1.6c-0.5,1.2-0.3,2.3,0.2,3.1c-0.3,4.1-0.7,8.2-1,12.4c-5.2-2.3-10.5-4.7-15.7-7c-4.5-2-8.4,4.6-3.9,6.7&#10;&#9;&#9;&#9;&#9;c7,3.1,14.1,6.3,21.1,9.4c0.3,0.1,0.6,0.2,0.9,0.3c7.4,17,20.8,30.7,38.6,36.7C461.4,265.3,483.2,255.8,502.2,246.6z&#10;&#9;&#9;&#9;&#9; M457.1,457.3c5.8-6.6,15-8.9,23.6-5.1c0.5,1.1,1,2.3,1.4,3.4C473.8,456.1,465.4,456.7,457.1,457.3z M651.7,352.6&#10;&#9;&#9;&#9;&#9;c8.2,8.6,11.8,20.4,9.7,32C647.1,380.9,642.6,363.6,651.7,352.6z M565.8,381c-0.6-4.6-1.2-9.3-1.8-13.9c0.8-2.2-0.3-5.1-3.1-5&#10;&#9;&#9;&#9;&#9;c-1.1-0.4-2.4-0.3-3.3,0.2c-7.4,0.6-14.8,1.1-22.2,1.7c-1.6,0.1-3.4,1.1-3.7,2.8c-0.7,4.4-1.4,8.8-2.1,13.2&#10;&#9;&#9;&#9;&#9;c-11.2-0.1-22.8-0.7-33.5-3.7c-2.1-0.6-3.9-1.5-5.5-3c-2.4-2.3-0.3-7.9,0.2-10.6c1.1-5.6,2.2-11.3,3.3-16.9&#10;&#9;&#9;&#9;&#9;c33.7,9.3,70.4,9.7,103.9-0.3c1.8,9.6,3.6,19.2,5.4,28.7C591.4,379.1,578.7,381.3,565.8,381z M585.5,291.6&#10;&#9;&#9;&#9;&#9;c3.5,8.7,7,17.5,10.5,26.2c1.6,4,3.2,8.1,4.9,12.1c1,2.5,1.8,5-0.9,6.6c-2,1.3-4.8,1.7-7.1,2.3c-33.4,9.2-69.3,8.1-102.3-2.1&#10;&#9;&#9;&#9;&#9;c13.2-30,19.8-62.4,19.3-95.3c10.4,2.1,21.1,2.6,31.7,1.9c7.6-0.5,15.5-1.6,23.2-3.4C571.7,257.2,578.6,274.4,585.5,291.6z&#10;&#9;&#9;&#9;&#9; M627.4,158.3c1.2-2.3,2.1-4.6,2.8-7c10.7-4.9,21.6,3.7,21.6,14.9c0,12.1-13.9,17.5-23.5,12.6c0.6-6.7,0.2-13.4-1.3-19.9&#10;&#9;&#9;&#9;&#9;C627.2,158.7,627.3,158.5,627.4,158.3z M428.9,185.7c-3.4-10.5,6.5-20.4,16.9-18.7c0.1,0,0.2,0,0.3,0c0.6,1,1.3,2,2,3&#10;&#9;&#9;&#9;&#9;c0.2,0.3,0.5,0.6,0.8,0.8c-0.8,7.7,0,15.6,2.3,23.1C442.7,198.8,432,195.6,428.9,185.7z M451.2,159.8c-1.7-4.1-2.2-8.6-1.4-13.2&#10;&#9;&#9;&#9;&#9;c0.6-3.2-2.5-6.2-5.7-4.4c-2.5,1.4-4.9,2.9-7.4,4.3c2.2-10.7,6.8-20.7,13.5-29.4c2.1-2.6,0.3-8.1-3.8-6.5&#10;&#9;&#9;&#9;&#9;c-3.1,1.2-6.1,2.4-9.2,3.7c6.6-10.1,16.9-17.6,28.7-20.8c0.3-0.1,0.5-0.2,0.8-0.3c0.7,0.1,1.4,0.2,2.1,0.2c4.9,0.6,4.9-7.2,0-7.7&#10;&#9;&#9;&#9;&#9;c-6-0.7-12-1.4-18-2c-0.5,0-0.9-0.1-1.4-0.2c0,0,0.1-0.1,0.1-0.1c2.6-1.5,5.4-2.4,8.2-3.2c9.7-2.6,20.1-0.7,28.6,4.4&#10;&#9;&#9;&#9;&#9;c1.4,2,4.9,2.7,6.9,0.2c9.3-12.1,21.8-21.3,35.9-26.8c-1.5,2.5-2.9,5.1-4.4,7.6c-2,3.5,1.9,6.9,5.3,5.3c10-4.9,20.6-7.8,31.5-8.9&#10;&#9;&#9;&#9;&#9;c-1.4,1.9-2.8,3.8-4.2,5.7c-1.7,2.3,0.6,6,3.3,5.8c7.2-0.6,14.3-0.7,21.5-0.3c3.7,0.2,7.5,0.5,11.2,1c1.8,0.3,4.1,0.7,5.4,2.3&#10;&#9;&#9;&#9;&#9;c2.2,2.9-1.7,4.7-3.9,4.5c-4.5-0.4-5,6.3-1,7.6c9.6,3.1,18.3,7.9,26,14.2c-3.2,2-6.4,3.9-9.6,5.9c-2.5,1.5-2.5,5.1,0,6.7&#10;&#9;&#9;&#9;&#9;c10.8,6.7,16,20.2,13.1,32.3c-2-4.6-4.7-8.9-7.9-12.9c-6-7.4-13.5-13.4-22.2-17.4c-0.7-0.3-1.3-0.4-1.9-0.4&#10;&#9;&#9;&#9;&#9;c-0.9-2.5-2.1-4.9-3.5-7c-2.7-4.2-9.4-0.3-6.7,3.9c2.7,4.1,6.8,11.1,0.2,13.7c-5.4,2.1-10.8-2.3-14.5-5.6c-0.9-3.5-3-6.9-5.1-9.6&#10;&#9;&#9;&#9;&#9;c-3-3.9-9.7,0-6.7,3.9c1.3,1.7,8.7,12.4,0.8,11.2c-4.4-0.6-9.1-4-12.7-6.5c-7.8-5.3-13.8-12.9-18-21.3c-2-3.9-7.4-1.3-7.1,2.4&#10;&#9;&#9;&#9;&#9;c-12.8,14.6-28.1,26.4-45.5,35.1c-1.6,0.8-7.4,4.1-8.6,0.5c-0.7-1.9,0.5-4.5,1.1-6.2c1.6-4.4,4.4-8.7,7.3-12.3&#10;&#9;&#9;&#9;&#9;c6-7.7,14.3-13.4,23.4-16.7c4.7-1.7,2.6-9.1-2.1-7.5c-11.3,4.1-21.3,11.1-28.5,20.7c-5.3,7.2-13.8,20.5-6,28.7&#10;&#9;&#9;&#9;&#9;C455.7,149.3,453,154.4,451.2,159.8z M474.6,216.3c-19.4-17.2-26-48.6-7.5-69c0,0,0-0.1,0.1-0.1c2.2-0.2,4.3-0.9,6.1-1.7&#10;&#9;&#9;&#9;&#9;c6.6-2.9,13-6.6,19.1-10.5c10.9-7.1,20.7-15.7,29.4-25.3c6.7,10.5,16.2,18.8,27.6,23.9c5.8,2.6,12.2,2.8,15.9-2.8&#10;&#9;&#9;&#9;&#9;c6.3,4.5,13.5,6.9,21.1,3c3.7-1.9,5.5-4.8,5.9-8.1c23.2,12.6,33.9,39.3,25.7,64.8c-8.3,25.8-35.8,38.2-60.4,43.1&#10;&#9;&#9;&#9;&#9;C529.2,239.1,497,236.3,474.6,216.3z" transform="matrix(1, 0, 0, 1, 0, 0)"/></g></g><g transform="matrix(1.765114426612854, 0, 0, 1.765114426612854, -108.55551492306938, -1273.7571859432605)"><g transform="matrix(0.3222920596599579, 0, 0, 0.3222920596599579, 283.32489013671875, 820.1808471679688)"><path fill="#F7C558" d="M805.4,435.5c7.8,0.4,15.5-0.2,23.2-1.8C825.2,422.2,808.2,423.1,805.4,435.5z" transform="matrix(1, 0, 0, 1, 0, 0)"/><path fill="#F15A29" d="M813.1,373c-5.3-1-10.6-2.2-15.7-3.8C798.3,376.7,808.3,379.6,813.1,373z" transform="matrix(1, 0, 0, 1, 0, 0)"/><path fill="#F15A29" d="M840.1,375.8c-6.4-0.2-12.7-0.7-19-1.5C824.5,383.2,835.8,383.4,840.1,375.8z" transform="matrix(1, 0, 0, 1, 0, 0)"/><path fill="#FED19F" d="M761.8,198.6c1.5,6.4,6.9,9.6,12.8,9c-1.1-6.7-1.1-13.6,0.2-20.3C767.9,185.1,759.9,190.9,761.8,198.6z" transform="matrix(1, 0, 0, 1, 0, 0)"/><path fill="#754C29" d="M961.5,113.8c4.6,6.8,3,15.4-2.6,20.2c5.4,32.3,27,60.7,56.6,74.5c-5.7-10.3-6.9-23-5.3-34.8&#10;&#9;&#9;&#9;&#9;c2.9-20.4,13.5-40.1,12.4-61c-1-19-14.6-36.1-34.9-35.7c-17.1,0.4-31.5,14.3-33,31.3C957.4,109.4,959.8,111.2,961.5,113.8z" transform="matrix(1, 0, 0, 1, 0, 0)"/><path fill="#F7C558" d="M951.6,129.4c4.1-1.8,6.8-6.5,3.9-10.7c-2.9-4.4-8.7-4.7-12-0.9c1.2,1.2,2.4,2.4,3.4,3.8&#10;&#9;&#9;&#9;&#9;C948.9,124.1,950.4,126.7,951.6,129.4z" transform="matrix(1, 0, 0, 1, 0, 0)"/><path fill="#754C29" d="M775.8,165.5c31.6,1.7,62.9-9.2,86.5-30.3c3.7-3.3,9.2,2.1,5.5,5.5c-7,6.3-14.7,11.8-22.8,16.3&#10;&#9;&#9;&#9;&#9;c16.9,0.4,33.5-6.4,45.4-18.6c3.5-3.6,8.9,1.9,5.5,5.5c-1,1-2,2-3,2.9c9.2,10.2,22.1,15.7,36,14.9c5-0.3,5,7.5,0,7.7&#10;&#9;&#9;&#9;&#9;c-0.3,0-0.6,0-0.9,0c2.3,3.5,4.3,7.2,5.9,11.1c3.2-1.2,6.6-1.4,9.9-0.8c3.8-15.5,8.4-33.9,0.1-48.8c-6.6-11.8-23.1-19.7-34-8.2&#10;&#9;&#9;&#9;&#9;c-2.6,2.8-6.5,0.2-6.5-2.8c-0.1-0.2-0.3-0.5-0.4-0.8C891,81.2,843,80,813.7,96.4c-30.2,17-48.1,48.9-46.9,83.4&#10;&#9;&#9;&#9;&#9;c3.2-0.8,6.6-0.9,9.9,0.1c0.8-2.2,1.7-4.5,2.8-6.6c-1.2,0-2.4-0.1-3.7-0.1C770.9,172.9,770.8,165.2,775.8,165.5z" transform="matrix(1, 0, 0, 1, 0, 0)"/><path fill="#FED19F" d="M859.8,260.3c7.7-0.2,15.8-1,23.6-2.8c0.8-0.5,1.7-0.7,2.6-0.6c14.7-3.8,28.2-11.3,36.5-24.7&#10;&#9;&#9;&#9;&#9;c12.3-20.1,10.7-45.4-4.7-63.5c0,0,0,0,0,0c-11.9-1.9-23-7.9-31-17.2c-15.2,11-34.4,15.4-53.1,12c-0.5-0.1-0.8-0.2-1.2-0.4&#10;&#9;&#9;&#9;&#9;c-14,6-28.9,9.5-44.2,10.2c-12.2,20.2-7.5,46.4,8.5,63.1C813.2,253.4,836.5,260.8,859.8,260.3z M887.9,179.4c0.2,0,0.4,0,0.6,0&#10;&#9;&#9;&#9;&#9;c4.5,0,8.3,3.8,8.3,8.3c0,4.5-3.8,8.3-8.3,8.3c-0.2,0-0.4,0-0.6,0c-4.5,0-8.3-3.8-8.3-8.3C879.7,183.2,883.4,179.4,887.9,179.4z&#10;&#9;&#9;&#9;&#9; M815.6,180.5c0.2,0,0.4,0,0.6,0c4.5,0,8.3,3.8,8.3,8.3c0,4.5-3.8,8.3-8.3,8.3c-0.2,0-0.4,0-0.6,0c-4.5,0-8.3-3.8-8.3-8.3&#10;&#9;&#9;&#9;&#9;C807.3,184.3,811.1,180.5,815.6,180.5z M799.7,204.8c-0.3-1.8,0.6-3.3,1.9-4.1c1.1-1.2,2.8-1.8,4.6-0.7&#10;&#9;&#9;&#9;&#9;c29.3,18.8,68.4,17.8,96.9-2.1c1.4-1,2.8-0.8,3.8-0.1c1.3,0.5,2.2,1.6,2,3.4c-2.9,27.1-27.1,50.2-54.7,50.2&#10;&#9;&#9;&#9;&#9;C827,251.6,803.6,232,799.7,204.8z" transform="matrix(1, 0, 0, 1, 0, 0)"/><path fill="#C63430" d="M809,210.6c6.1,19.4,24,33.9,45.2,33.2c20.4-0.7,39.4-15,45.3-34.5C872,224.8,837,225.3,809,210.6z" transform="matrix(1, 0, 0, 1, 0, 0)"/><path fill="#F15A29" d="M867.9,374.7c-5.8,0.6-11.6,1-17.5,1.2C854.8,382,864.2,381.4,867.9,374.7z" transform="matrix(1, 0, 0, 1, 0, 0)"/><path fill="#E39D64" d="M845.8,267.2c3.7,7.7,15.2,8.5,19.6,0.6c-1.2,0.1-2.4,0.1-3.6,0.1C856.5,268.1,851.1,267.9,845.8,267.2z" transform="matrix(1, 0, 0, 1, 0, 0)"/><path fill="#FED19F" d="M936.3,187.7c1.8,6.4,2.6,13.1,2.2,19.8c6.1,0.6,12-3.9,11.7-10.8C949.8,189.5,943,184.7,936.3,187.7z" transform="matrix(1, 0, 0, 1, 0, 0)"/><path fill="#F15A29" d="M892.8,370.5c-5.1,1.2-10.4,2.1-15.6,2.9C881,380.7,891.7,378.7,892.8,370.5z" transform="matrix(1, 0, 0, 1, 0, 0)"/><path fill="#F15A29" d="M914.9,364.4c-4.6,1.5-9.3,2.9-14,4.2C905.6,374.6,914.5,371.2,914.9,364.4z" transform="matrix(1, 0, 0, 1, 0, 0)"/><path fill="#F7C558" d="M912,432.2c-2.8-12.4-19.8-13.3-23.2-1.8C896.5,432,904.2,432.5,912,432.2z" transform="matrix(1, 0, 0, 1, 0, 0)"/><path fill="#F7C558" d="M878.3,365.4c11.7-1.9,23.2-4.7,34.1-8.4c-18.4-27-28.9-58.7-30.3-91.3c-2.7,0.5-5.4,1-8.1,1.3&#10;&#9;&#9;&#9;&#9;c0,0.2-0.1,0.4-0.1,0.6c-2.9,8.6-11.7,15.4-21.1,13.6c-8-1.5-13.8-7.6-15.4-15.3c-1.1-0.2-2.2-0.5-3.3-0.7&#10;&#9;&#9;&#9;&#9;C834.6,303.6,849.9,343,878.3,365.4z" transform="matrix(1, 0, 0, 1, 0, 0)"/><path fill="#EFAF2E" d="M834,265.2c-2.1-0.5-4.2-1-6.3-1.6c-1.1,34.6-11.4,68.4-29.7,97.7c25.3,7.8,53.4,8.4,80.3,4.1&#10;&#9;&#9;&#9;&#9;C849.9,343,834.6,303.6,834,265.2z" transform="matrix(1, 0, 0, 1, 0, 0)"/><path d="M819.4,274.5c-2.8,30.5-12.9,59.9-29.7,85.7c-0.2,0.3-0.3,0.5-0.4,0.8c-1.1,1.6-1.1,4.1,0.5,5.5&#10;&#9;&#9;&#9;&#9;c-0.5,7,2.9,13.7,9.6,16.9c5.6,2.6,11.9,1.3,16.6-2.3c2.6,3.8,6.4,6.2,10.5,7.3c-0.1,10.5-0.1,21-0.2,31.5&#10;&#9;&#9;&#9;&#9;c-2.1-1.1-4.3-1.9-6.8-2.1c-10.3-1.1-19.8,6.4-21.6,16.5c-0.1,0.7-0.1,1.4,0.1,2c-1.9,2-1,6.5,2.8,6.8c11.2,1,22.4,0.2,33.3-2.5&#10;&#9;&#9;&#9;&#9;c1.6-0.4,3-2.1,2.8-3.7c-0.3-3.3-1.3-6.5-2.9-9.3c0.1-12.9,0.1-25.9,0.2-38.8c4.4-0.7,8.5-3,11.4-6.8c7.4,8.1,20.9,7.8,27.6-1&#10;&#9;&#9;&#9;&#9;c2.6,2.7,6.1,4.5,10,5c0.1,12.8,0.1,25.6,0.2,38.4c-1.6,2.8-2.7,6-2.9,9.2c-0.1,1.7,1.3,3.3,2.8,3.7c11,2.7,22.1,3.6,33.3,2.5&#10;&#9;&#9;&#9;&#9;c3.7-0.3,4.6-4.8,2.8-6.8c0.2-0.6,0.3-1.3,0.1-2c-1.7-9.8-10.4-16.6-20.2-16.7c-3,0-5.8,0.8-8.3,2.2c-0.1-10.6-0.1-21.1-0.2-31.7&#10;&#9;&#9;&#9;&#9;c3.4-1.5,6.2-4.4,7.8-7.8c4.1,2.7,9.3,3.5,14.2,1.7c7.4-2.7,10.9-11.1,9.3-18.4c0.6-1.8-0.2-4-1.8-4.9&#10;&#9;&#9;&#9;&#9;c-17.1-24.2-27.5-52.3-30.2-81.6c29.2,22.3,68.8,28.9,103.6,16.5c0.5,0,1,0,1.4-0.2c0.2,0.1,0.4,0.2,0.5,0.3&#10;&#9;&#9;&#9;&#9;c5.2,2.7,10.3,5.3,15.5,8c4.4,2.3,8.3-4.4,3.9-6.7c-3.2-1.7-6.5-3.3-9.7-5c-1.5-0.8-4.8-1.9-6.8-3.2c1.9-2.3,5.8-4.6,7.4-6.1&#10;&#9;&#9;&#9;&#9;c3.2-2.7,6.3-5.5,9.5-8.2c3.8-3.3-1.7-8.7-5.5-5.5c-3.7,3.2-7.4,6.4-11.1,9.6c-0.4,0.3-0.8,0.6-1.2,1c0-2,0-4,0-6&#10;&#9;&#9;&#9;&#9;c0-5-7.7-5-7.7,0c0,5,0,10,0,15.1c-33.4,11.2-71.5,4.4-98.6-18.4c-0.6-0.5-1.3-0.8-2-0.9c0-0.1,0-0.1,0-0.2&#10;&#9;&#9;&#9;&#9;c16.4-4.8,31-13.9,40.4-29.2c3.7-6.1,6.2-12.7,7.5-19.4c11.3,1.5,20.9-8.3,20.3-20.1c-0.3-5.5-3.1-9.9-7-12.6&#10;&#9;&#9;&#9;&#9;c0.1-0.2,0.1-0.3,0.2-0.5c2.3-9.4,4.5-19.3,4.8-29.1c11.1,31.7,37.2,57.5,69.5,67.7c2.6,0.8,4.4-1,4.7-3.1&#10;&#9;&#9;&#9;&#9;c0.7-1.3,0.6-2.9-0.8-4.2c-17.9-15.7-11.7-41.6-5.9-61.4c6-20.5,12.3-43.8,0.2-63.4c-9.3-15.1-28.8-22.1-45.7-17.9&#10;&#9;&#9;&#9;&#9;c-16.8,4.2-28.9,20.2-30.5,37c-3.7,0.6-7.3,2.5-9.9,5.6c-8.8-4.8-19.7-5.4-28.3,0c-6-15-18.6-25.9-33.7-31.5&#10;&#9;&#9;&#9;&#9;c-19.3-7.1-41.1-3.3-59.3,4.9c-36.6,16.4-59,55.4-56.8,95c0,0.7,0.3,1.3,0.6,1.8c-3.2,2.8-5.5,6.7-5.7,11.6&#10;&#9;&#9;&#9;&#9;c-0.7,12.8,10.4,21.8,22.3,20.1c2.6,8.7,7,16.9,12.9,24.1c8.3,10,19,17.1,30.9,21.7c0,1.1-0.1,2.2-0.1,3.3&#10;&#9;&#9;&#9;&#9;c-0.3,0.2-0.7,0.3-1,0.6c-27,22.8-65.2,29.6-98.6,18.4c0-5,0-10,0-15.1c0-5-7.7-5-7.7,0c0,2,0,4,0,6c-4.1-3.5-8.2-7.1-12.2-10.6&#10;&#9;&#9;&#9;&#9;c-3.7-3.2-9.2,2.2-5.5,5.5c3.2,2.7,6.3,5.5,9.5,8.2c1.6,1.4,5.5,3.8,7.4,6.1c-2,1.3-5.3,2.4-6.8,3.2c-3.2,1.7-6.5,3.3-9.7,5&#10;&#9;&#9;&#9;&#9;c-4.4,2.3-0.5,9,3.9,6.7c4.5-2.3,9-4.7,13.5-7c0.8-0.4,1.7-0.8,2.6-1.3c0.4,0.1,0.9,0.2,1.4,0.2&#10;&#9;&#9;&#9;&#9;C751.1,302.5,790.3,296.1,819.4,274.5z M797.4,369.2c5.1,1.5,10.4,2.8,15.7,3.8C808.3,379.6,798.3,376.7,797.4,369.2z&#10;&#9;&#9;&#9;&#9; M805.4,435.5c2.8-12.4,19.8-13.3,23.2-1.8C820.9,435.3,813.2,435.9,805.4,435.5z M821.1,374.3c6.3,0.8,12.6,1.3,19,1.5&#10;&#9;&#9;&#9;&#9;C835.8,383.4,824.5,383.2,821.1,374.3z M850.5,375.8c5.8-0.1,11.7-0.5,17.5-1.2C864.2,381.4,854.8,382,850.5,375.8z M912,432.2&#10;&#9;&#9;&#9;&#9;c-7.8,0.4-15.5-0.2-23.2-1.8C892.2,418.9,909.2,419.8,912,432.2z M877.2,373.5c5.3-0.8,10.5-1.8,15.6-2.9&#10;&#9;&#9;&#9;&#9;C891.7,378.7,881,380.7,877.2,373.5z M900.9,368.6c4.8-1.3,9.4-2.7,14-4.2C914.5,371.2,905.6,374.6,900.9,368.6z M938.5,207.5&#10;&#9;&#9;&#9;&#9;c0.3-6.7-0.4-13.3-2.2-19.8c6.7-3,13.5,1.9,13.9,9C950.6,203.6,944.7,208.1,938.5,207.5z M987.8,77.1&#10;&#9;&#9;&#9;&#9;c20.3-0.5,33.9,16.7,34.9,35.7c1.1,21-9.5,40.6-12.4,61c-1.7,11.7-0.4,24.4,5.3,34.8c-29.5-13.8-51.1-42.2-56.6-74.5&#10;&#9;&#9;&#9;&#9;c5.6-4.8,7.2-13.4,2.6-20.2c-1.8-2.6-4.1-4.4-6.7-5.4C956.3,91.5,970.7,77.5,987.8,77.1z M955.5,118.7c2.9,4.3,0.2,9-3.9,10.7&#10;&#9;&#9;&#9;&#9;c-1.2-2.7-2.8-5.3-4.7-7.9c-1-1.4-2.2-2.6-3.4-3.8C946.8,114,952.6,114.3,955.5,118.7z M774.5,207.7c-5.9,0.5-11.2-2.7-12.8-9&#10;&#9;&#9;&#9;&#9;c-1.9-7.7,6.1-13.6,13-11.3C773.5,194.1,773.4,200.9,774.5,207.7z M776.7,180c-3.3-0.9-6.7-0.9-9.9-0.1&#10;&#9;&#9;&#9;&#9;c-1.2-34.5,16.7-66.5,46.9-83.4C843,80,891,81.2,902.8,119c0.1,0.3,0.2,0.6,0.4,0.8c0.1,3,3.9,5.6,6.5,2.8&#10;&#9;&#9;&#9;&#9;c11-11.5,27.4-3.6,34,8.2c8.3,14.9,3.7,33.3-0.1,48.8c-3.2-0.6-6.6-0.4-9.9,0.8c-1.6-3.9-3.6-7.6-5.9-11.1c0.3,0,0.6,0,0.9,0&#10;&#9;&#9;&#9;&#9;c5-0.3,5-8,0-7.7c-13.9,0.8-26.8-4.7-36-14.9c1-0.9,2-1.9,3-2.9c3.5-3.6-2-9.1-5.5-5.5c-11.9,12.3-28.5,19-45.4,18.6&#10;&#9;&#9;&#9;&#9;c8.1-4.6,15.8-10,22.8-16.3c3.7-3.3-1.8-8.8-5.5-5.5c-23.6,21.2-54.9,32-86.5,30.3c-5-0.3-5,7.5,0,7.7c1.2,0.1,2.4,0.1,3.7,0.1&#10;&#9;&#9;&#9;&#9;C778.4,175.5,777.5,177.7,776.7,180z M796.9,236.3c-16.1-16.7-20.8-42.9-8.5-63.1c15.3-0.7,30.3-4.2,44.2-10.2&#10;&#9;&#9;&#9;&#9;c0.3,0.2,0.7,0.3,1.2,0.4c18.7,3.4,37.9-1,53.1-12c8,9.3,19,15.3,31,17.2c0,0,0,0,0,0c15.4,18,17,43.4,4.7,63.5&#10;&#9;&#9;&#9;&#9;c-8.2,13.4-21.8,20.8-36.5,24.7c-0.9-0.1-1.9,0.1-2.6,0.6c-7.8,1.8-15.9,2.6-23.6,2.8C836.5,260.8,813.2,253.4,796.9,236.3z&#10;&#9;&#9;&#9;&#9; M865.4,267.8c-4.5,8-16,7.2-19.6-0.6c5.4,0.6,10.7,0.8,16,0.7C863,267.9,864.2,267.9,865.4,267.8z M827.7,263.6&#10;&#9;&#9;&#9;&#9;c3.2,0.9,6.4,1.7,9.6,2.3c1.6,7.7,7.4,13.8,15.4,15.3c9.4,1.8,18.2-5,21.1-13.6c0.1-0.2,0.1-0.4,0.1-0.6c2.7-0.3,5.4-0.8,8.1-1.3&#10;&#9;&#9;&#9;&#9;c1.4,32.6,11.9,64.4,30.3,91.3c-35.9,11.9-78.1,15.5-114.4,4.3C816.4,332,826.6,298.2,827.7,263.6z" transform="matrix(1, 0, 0, 1, 0, 0)"/><path d="M815.6,197.1c0.2,0,0.4,0,0.6,0c4.5,0,8.3-3.8,8.3-8.3c0-4.5-3.8-8.3-8.3-8.3c-0.2,0-0.4,0-0.6,0c-4.5,0-8.3,3.8-8.3,8.3&#10;&#9;&#9;&#9;&#9;C807.3,193.3,811.1,197.1,815.6,197.1z" transform="matrix(1, 0, 0, 1, 0, 0)"/><path d="M887.9,196c0.2,0,0.4,0,0.6,0c4.5,0,8.3-3.8,8.3-8.3c0-4.5-3.8-8.3-8.3-8.3c-0.2,0-0.4,0-0.6,0c-4.5,0-8.3,3.8-8.3,8.3&#10;&#9;&#9;&#9;&#9;C879.7,192.2,883.4,196,887.9,196z" transform="matrix(1, 0, 0, 1, 0, 0)"/><path d="M908.9,201.3c0.2-1.8-0.7-3-2-3.4c-1-0.7-2.4-0.9-3.8,0.1c-28.5,19.9-67.6,20.9-96.9,2.1c-1.8-1.2-3.5-0.6-4.6,0.7&#10;&#9;&#9;&#9;&#9;c-1.2,0.8-2.1,2.3-1.9,4.1c3.9,27.1,27.3,46.8,54.5,46.7C881.8,251.5,906,228.4,908.9,201.3z M854.2,243.8&#10;&#9;&#9;&#9;&#9;c-21.2,0.7-39.1-13.8-45.2-33.2c28,14.7,63,14.2,90.6-1.3C893.6,228.8,874.6,243.1,854.2,243.8z" transform="matrix(1, 0, 0, 1, 0, 0)"/></g></g><path d="M 520.060302734375 376.5043640136719 C 519.1419677734375 376.6710205078125 518.5743408203125 376.6791687011719 518.3572998046875 376.5288391113281 C 514.8268432617188 374.32379150390625 506.6710205078125 361.5277404785156 493.8897705078125 338.1407165527344 C 481.1085510253906 314.7536926269531 473.8763427734375 298.422607421875 472.19317626953125 289.1474304199219 C 472.15985107421875 288.9637451171875 472.73602294921875 288.4797668457031 473.92169189453125 287.6954650878906 C 477.4620666503906 285.2507019042969 480.8163757324219 283.7408447265625 483.9846496582031 283.1658935546875 C 487.15289306640625 282.5909423828125 488.76202392578125 282.44122314453125 488.81201171875 282.71673583984375 C 489.9959411621094 287.14990234375 494.8861083984375 298.5465393066406 503.4825134277344 316.90667724609375 C 512.0789184570312 335.26678466796875 518.8887329101562 347.83282470703125 523.9119262695312 354.604736328125 C 525.0383911132812 356.1077575683594 525.93994140625 356.3710021972656 526.616455078125 355.39453125 C 526.8419189453125 355.06903076171875 526.96728515625 354.7142639160156 526.992431640625 354.3302917480469 C 528.6220092773438 349.1968078613281 530.4515991210938 339.0233154296875 532.4810791015625 323.809814453125 C 534.5106201171875 308.5962829589844 534.6837768554688 296.3519287109375 533.0006103515625 287.0767517089844 C 532.8006591796875 285.9747314453125 531.5508422851562 284.9683837890625 529.2512817382812 284.05767822265625 C 526.9517211914062 283.14697265625 524.9588012695312 282.7497863769531 523.2724609375 282.8660888671875 C 523.1472778320312 282.6990661621094 523.0097045898438 282.20233154296875 522.8597412109375 281.3758239746094 C 522.7097778320312 280.54931640625 522.7018432617188 279.19903564453125 522.8360595703125 277.324951171875 C 522.9702758789062 275.45086669921875 523.196044921875 274.3427734375 523.5133666992188 274.0006103515625 C 531.54541015625 270.17156982421875 539.7857666015625 267.490478515625 548.2344360351562 265.9573059082031 C 549.6453247070312 265.8909912109375 550.3673706054688 265.9496765136719 550.4006958007812 266.1333312988281 C 551.8339233398438 274.031005859375 551.8444213867188 286.2420349121094 550.4321899414062 302.7663879394531 C 549.0199584960938 319.290771484375 547.1846923828125 334.1370544433594 544.92626953125 347.30523681640625 C 542.6679077148438 360.4734191894531 540.9749145507812 367.8712463378906 539.847412109375 369.49871826171875 C 536.2067260742188 372.4360046386719 529.6110229492188 374.7712097167969 520.060302734375 376.5043640136719 ZM 634.3800048828125 287.1314697265625 C 632.9055786132812 286.8298645019531 631.2145385742188 286.60504150390625 629.3069458007812 286.45703125 C 627.3993530273438 286.30902099609375 625.05859375 286.3146057128906 622.2846069335938 286.4738464355469 C 619.5106201171875 286.633056640625 616.6273803710938 286.99444580078125 613.6348266601562 287.5579528808594 C 610.6422729492188 288.1214904785156 608.1504516601562 289.16851806640625 606.159423828125 290.6990966796875 C 604.1683959960938 292.2296447753906 603.080810546875 294.1813659667969 602.896728515625 296.5542297363281 C 602.7125854492188 298.9270935058594 603.96923828125 301.13092041015625 606.6665649414062 303.1656799316406 C 609.3638916015625 305.200439453125 612.6536865234375 307.1407470703125 616.5358276367188 308.9866027832031 C 620.4180297851562 310.8324279785156 624.3071899414062 312.88946533203125 628.2034301757812 315.15765380859375 C 632.099609375 317.4258728027344 635.3206176757812 320.5544128417969 637.8663330078125 324.5433044433594 C 640.4120483398438 328.53216552734375 641.4791259765625 333.17864990234375 641.067626953125 338.4826965332031 C 640.33837890625 347.8811340332031 635.2294311523438 355.5121154785156 625.74072265625 361.3756408691406 C 616.2520141601562 367.23919677734375 604.668212890625 369.6402893066406 590.9893798828125 368.5789489746094 C 584.1033935546875 368.0446472167969 579.0142822265625 367.27532958984375 575.72216796875 366.27099609375 C 574.9496459960938 365.3685302734375 574.9190063476562 360.33441162109375 575.630126953125 351.1686096191406 C 576.34130859375 342.0028381347656 576.9552001953125 336.50384521484375 577.4718627929688 334.6716613769531 C 577.8159790039062 333.8558349609375 579.5238647460938 332.9585876464844 582.5953979492188 331.97991943359375 C 585.6669921875 331.00128173828125 588.5985717773438 330.6202392578125 591.3901977539062 330.83685302734375 C 590.5382080078125 341.8171691894531 591.1851806640625 348.5607604980469 593.3309936523438 351.067626953125 C 594.1893310546875 352.0703430175781 595.9212646484375 352.67279052734375 598.5267944335938 352.8749694824219 C 604.482177734375 353.3370361328125 609.7999267578125 352.0646057128906 614.4798583984375 349.0576171875 C 619.1598510742188 346.0506286621094 621.6766967773438 342.267333984375 622.030517578125 337.70770263671875 C 622.2687377929688 334.6369323730469 621.0358276367188 331.82647705078125 618.3316650390625 329.27630615234375 C 615.6275024414062 326.72613525390625 612.271728515625 324.4296569824219 608.2644653320312 322.3868713378906 C 604.2571411132812 320.3441162109375 600.2802734375 318.2100830078125 596.3339233398438 315.9847717285156 C 592.3875732421875 313.7594909667969 589.10205078125 310.8599853515625 586.477294921875 307.2862243652344 C 583.8525390625 303.71246337890625 582.7171020507812 299.6457824707031 583.0708618164062 295.0861511230469 C 583.5979614257812 288.2932434082031 588.1510009765625 282.3977966308594 596.72998046875 277.3997802734375 C 605.3090209960938 272.4018249511719 617.3219604492188 270.5020751953125 632.7688598632812 271.70062255859375 C 636.39794921875 271.9822082519531 638.4270629882812 272.3736572265625 638.8562622070312 272.8750305175781 C 638.9276123046875 273.1614074707031 638.9218139648438 273.83966064453125 638.8388061523438 274.9097900390625 C 638.7557373046875 275.9798889160156 638.2694091796875 278.02508544921875 637.3797607421875 281.0453186035156 C 636.4901733398438 284.0655212402344 635.490234375 286.0942687988281 634.3800048828125 287.1314697265625 ZM 670.250244140625 364.8124084472656 C 670.250244140625 364.8124084472656 670.48291015625 365.3228759765625 670.9481811523438 366.3437805175781 C 671.4135131835938 367.36468505859375 671.2539672851562 368.9242248535156 670.4696044921875 371.02239990234375 C 669.6852416992188 373.1205749511719 668.18212890625 374.6760559082031 665.9601440429688 375.68878173828125 C 663.7381591796875 376.7015380859375 661.578125 376.8157043457031 659.4799194335938 376.0313415527344 C 657.3817138671875 375.2469787597656 655.9028930664062 373.8721008300781 655.0433349609375 371.9067077636719 C 654.1837768554688 369.9412841796875 654.1707153320312 367.84393310546875 655.0040893554688 365.6145935058594 C 655.8374633789062 363.3852844238281 657.3051147460938 361.7916259765625 659.406982421875 360.8336181640625 C 661.5087890625 359.8756408691406 663.6088256835938 359.788818359375 665.70703125 360.57318115234375 C 667.8052368164062 361.3575439453125 669.3196411132812 362.7706298828125 670.250244140625 364.8124084472656 Z" transform="matrix(1, 0, 0, 1, 67.56114959716797, -15.591033935546875)" style="fill: rgb(51, 51, 51); white-space: pre; color: rgb(51, 51, 51);"/></g></svg>