<?xml version="1.0" encoding="utf-8"?>
<svg id="master-artboard" viewBox="0 0 1375.9332275390625 493.85125732421875" version="1.1" xmlns="http://www.w3.org/2000/svg" x="0px" y="0px" style="enable-background:new 0 0 336 235.2;" width="1375.9332275390625px" height="493.85125732421875px"><rect id="ee-background" x="0" y="0" width="1375.9332275390625" height="493.85125732421875" style="fill: white; fill-opacity: 0; pointer-events: none;"/><g transform="matrix(1.2533913850784302, 0, 0, 1.2533913850784302, -178.2014923095703, -115.14014434814453)"><g transform="matrix(0.7246033945090069, 0, 0, 0.7246033945090069, 833.6414184570312, 102.68485675257588)"><path style="fill:#464655;" d="M494.345,39.724H17.655C7.904,39.724,0,47.628,0,57.379v282.483h512V57.379&#10;&#9;C512,47.628,504.096,39.724,494.345,39.724z M485.517,313.379H26.483V66.207h459.034V313.379z"/><g>
	<path style="fill:#FFFFFF;" d="M203.033,176.552c2.44,0,4.414,1.974,4.414,4.414h13.241v-13.241h-17.655&#10;&#9;&#9;c-2.44,0-4.414-1.974-4.414-4.414c0-2.44,1.974-4.414,4.414-4.414h17.655v-57.379H141.24v79.448h57.379&#10;&#9;&#9;C198.62,178.526,200.594,176.552,203.033,176.552z"/>
	<path style="fill:#FFFFFF;" d="M26.483,313.379h459.034V66.207H26.483V313.379z M220.689,291.31h-17.655&#10;&#9;&#9;c-2.44,0-4.414-1.974-4.414-4.414s1.974-4.414,4.414-4.414h17.655c2.44,0,4.414,1.974,4.414,4.414S223.128,291.31,220.689,291.31z&#10;&#9;&#9; M203.033,247.172c2.44,0,4.414,1.974,4.414,4.414v17.655c0,2.44-1.974,4.414-4.414,4.414s-4.414-1.974-4.414-4.414v-17.655&#10;&#9;&#9;C198.62,249.146,200.594,247.172,203.033,247.172z M198.62,233.931v-17.655c0-2.44,1.974-4.414,4.414-4.414&#10;&#9;&#9;s4.414,1.974,4.414,4.414v17.655c0,2.44-1.974,4.414-4.414,4.414S198.62,236.371,198.62,233.931z M255.999,291.31h-17.655&#10;&#9;&#9;c-2.44,0-4.414-1.974-4.414-4.414s1.974-4.414,4.414-4.414h17.655c2.44,0,4.414,1.974,4.414,4.414S258.439,291.31,255.999,291.31z&#10;&#9;&#9; M331.033,269.241c0,2.44-1.974,4.414-4.414,4.414s-4.414-1.974-4.414-4.414v-17.655c0-2.44,1.974-4.414,4.414-4.414&#10;&#9;&#9;s4.414,1.974,4.414,4.414V269.241z M331.033,233.931c0,2.44-1.974,4.414-4.414,4.414s-4.414-1.974-4.414-4.414v-17.655&#10;&#9;&#9;c0-2.44,1.974-4.414,4.414-4.414s4.414,1.974,4.414,4.414V233.931z M331.033,198.621c0,2.44-1.974,4.414-4.414,4.414&#10;&#9;&#9;s-4.414-1.974-4.414-4.414v-17.655c0-2.44,1.974-4.414,4.414-4.414s4.414,1.974,4.414,4.414V198.621z M370.759,207.448v-61.793&#10;&#9;&#9;V92.69c0-4.875,3.953-8.828,8.828-8.828h79.448c4.875,0,8.828,3.953,8.828,8.828v52.966v61.793v79.448&#10;&#9;&#9;c0,4.875-3.953,8.828-8.828,8.828h-79.448c-4.875,0-8.828-3.953-8.828-8.828V207.448z M308.964,158.897h17.655&#10;&#9;&#9;c2.44,0,4.414,1.974,4.414,4.414c0,2.44-1.974,4.414-4.414,4.414h-17.655c-2.44,0-4.414-1.974-4.414-4.414&#10;&#9;&#9;C304.551,160.871,306.525,158.897,308.964,158.897z M308.964,282.483h17.655c2.44,0,4.414,1.974,4.414,4.414&#10;&#9;&#9;s-1.974,4.414-4.414,4.414h-17.655c-2.44,0-4.414-1.974-4.414-4.414S306.525,282.483,308.964,282.483z M273.654,158.897h17.655&#10;&#9;&#9;c2.44,0,4.414,1.974,4.414,4.414c0,2.44-1.974,4.414-4.414,4.414h-17.655c-2.44,0-4.414-1.974-4.414-4.414&#10;&#9;&#9;C269.24,160.871,271.214,158.897,273.654,158.897z M273.654,282.483h17.655c2.44,0,4.414,1.974,4.414,4.414&#10;&#9;&#9;s-1.974,4.414-4.414,4.414h-17.655c-2.44,0-4.414-1.974-4.414-4.414S271.214,282.483,273.654,282.483z M123.585,92.69&#10;&#9;&#9;c0-4.879,3.953-8.828,8.828-8.828h97.103c4.875,0,8.828,3.948,8.828,8.828v66.207h17.655c2.44,0,4.414,1.974,4.414,4.414&#10;&#9;&#9;c0,2.44-1.974,4.414-4.414,4.414h-17.655v22.069c0,0.957-0.157,1.877-0.438,2.739l23.165,20.754&#10;&#9;&#9;c1.919,1.719,1.419,4.847-0.94,5.884l-8.778,3.853l7.84,17.857c0.979,2.232-0.039,4.836-2.268,5.818&#10;&#9;&#9;c-0.577,0.25-1.181,0.371-1.771,0.371c-1.703,0-3.319-0.983-4.047-2.638l-7.841-17.859l-8.781,3.854&#10;&#9;&#9;c-2.359,1.036-5.001-0.714-4.967-3.29l0.371-28.534c-0.125,0.006-0.247,0.019-0.373,0.019h-22.069c0,2.44-1.974,4.414-4.414,4.414&#10;&#9;&#9;s-4.414-1.974-4.414-4.414h-66.207c-4.875,0-8.828-3.948-8.828-8.828V92.69H123.585z M44.138,92.69&#10;&#9;&#9;c0-4.875,3.953-8.828,8.828-8.828h26.483c4.875,0,8.828,3.953,8.828,8.828v194.207c0,4.875-3.953,8.828-8.828,8.828H52.966&#10;&#9;&#9;c-4.875,0-8.828-3.953-8.828-8.828V92.69z"/>
</g><path style="fill:#BEC8DC;" d="M0,375.172c0,9.751,7.904,17.655,17.655,17.655h167.724h141.241h167.724&#10;&#9;c9.751,0,17.655-7.904,17.655-17.655v-35.31H0V375.172z M256,353.103c7.313,0,13.241,5.929,13.241,13.241&#10;&#9;s-5.929,13.241-13.241,13.241c-7.313,0-13.241-5.929-13.241-13.241S248.687,353.103,256,353.103z"/><path d="M 177.65499877929688 454.6210021972656 L 334.3450012207031 454.6210021972656 L 328.8280029296875 410.4830017089844 L 183.1719970703125 410.4830017089844 Z" style="fill:#AFBBD0;"/><path style="fill:#BEC8DC;" d="M176.552,454.621c-4.875,0-8.828,3.953-8.828,8.828s3.953,8.828,8.828,8.828h158.897&#10;&#9;c4.875,0,8.828-3.953,8.828-8.828s-3.953-8.828-8.828-8.828h-1.103h-156.69H176.552z"/><g>
	<path d="M 183.1719970703125 410.4830017089844 L 328.8280029296875 410.4830017089844 L 326.6210021972656 392.8280029296875 L 185.37899780273438 392.8280029296875 Z" style="fill:#96A5B9;"/>
	<path d="M 269.241 366.345001 A 13.241 13.241 0 0 1 256 379.586001 A 13.241 13.241 0 0 1 242.759 366.345001 A 13.241 13.241 0 0 1 256 353.104001 A 13.241 13.241 0 0 1 269.241 366.345001 Z" style="fill:#96A5B9;"/>
</g><path style="fill:#BEC8DC;" d="M52.966,295.724h26.483c4.875,0,8.828-3.953,8.828-8.828V92.69c0-4.875-3.953-8.828-8.828-8.828&#10;&#9;H52.966c-4.875,0-8.828,3.953-8.828,8.828v194.207C44.138,291.772,48.09,295.724,52.966,295.724z M61.793,101.517h8.828&#10;&#9;c4.875,0,8.828,3.953,8.828,8.828c0,4.875-3.953,8.828-8.828,8.828h-8.828c-4.875,0-8.828-3.953-8.828-8.828&#10;&#9;C52.966,105.47,56.918,101.517,61.793,101.517z M61.793,128h8.828c4.875,0,8.828,3.953,8.828,8.828c0,4.875-3.953,8.828-8.828,8.828&#10;&#9;h-8.828c-4.875,0-8.828-3.953-8.828-8.828C52.966,131.953,56.918,128,61.793,128z M61.793,154.483h8.828&#10;&#9;c4.875,0,8.828,3.953,8.828,8.828s-3.953,8.828-8.828,8.828h-8.828c-4.875,0-8.828-3.953-8.828-8.828S56.918,154.483,61.793,154.483&#10;&#9;z M61.793,180.966h8.828c4.875,0,8.828,3.953,8.828,8.828s-3.953,8.828-8.828,8.828h-8.828c-4.875,0-8.828-3.953-8.828-8.828&#10;&#9;S56.918,180.966,61.793,180.966z M61.793,207.448h8.828c4.875,0,8.828,3.953,8.828,8.828s-3.953,8.828-8.828,8.828h-8.828&#10;&#9;c-4.875,0-8.828-3.953-8.828-8.828S56.918,207.448,61.793,207.448z M52.966,251.586c0-4.875,3.953-8.828,8.828-8.828h8.828&#10;&#9;c4.875,0,8.828,3.953,8.828,8.828v17.655c0,4.875-3.953,8.828-8.828,8.828h-8.828c-4.875,0-8.828-3.953-8.828-8.828V251.586z"/><path style="fill:#E4EAF6;" d="M61.793,119.172h8.828c4.875,0,8.828-3.953,8.828-8.828c0-4.875-3.953-8.828-8.828-8.828h-8.828&#10;&#9;c-4.875,0-8.828,3.953-8.828,8.828C52.966,115.22,56.918,119.172,61.793,119.172z"/><path style="fill:#96A5B9;" d="M61.793,145.655h8.828c4.875,0,8.828-3.953,8.828-8.828c0-4.875-3.953-8.828-8.828-8.828h-8.828&#10;&#9;c-4.875,0-8.828,3.953-8.828,8.828C52.966,141.703,56.918,145.655,61.793,145.655z"/><g>
	<path style="fill:#E4EAF6;" d="M61.793,172.138h8.828c4.875,0,8.828-3.953,8.828-8.828s-3.953-8.828-8.828-8.828h-8.828&#10;&#9;&#9;c-4.875,0-8.828,3.953-8.828,8.828S56.918,172.138,61.793,172.138z"/>
	<path style="fill:#E4EAF6;" d="M61.793,198.621h8.828c4.875,0,8.828-3.953,8.828-8.828s-3.953-8.828-8.828-8.828h-8.828&#10;&#9;&#9;c-4.875,0-8.828,3.953-8.828,8.828S56.918,198.621,61.793,198.621z"/>
	<path style="fill:#E4EAF6;" d="M61.793,225.103h8.828c4.875,0,8.828-3.953,8.828-8.828s-3.953-8.828-8.828-8.828h-8.828&#10;&#9;&#9;c-4.875,0-8.828,3.953-8.828,8.828S56.918,225.103,61.793,225.103z"/>
</g><path style="fill:#96A5B9;" d="M61.793,278.069h8.828c4.875,0,8.828-3.953,8.828-8.828v-17.655c0-4.875-3.953-8.828-8.828-8.828&#10;&#9;h-8.828c-4.875,0-8.828,3.953-8.828,8.828v17.655C52.966,274.116,56.917,278.069,61.793,278.069z"/><g>
	<path style="fill:#BEC8DC;" d="M467.862,92.69c0-4.875-3.953-8.828-8.828-8.828h-79.448c-4.875,0-8.828,3.953-8.828,8.828v52.966&#10;&#9;&#9;h97.103V92.69z M454.621,136.828h-35.31h-8.828H384c-2.438,0-4.414-1.976-4.414-4.414S381.562,128,384,128h26.483h8.828h35.31&#10;&#9;&#9;c2.438,0,4.414,1.976,4.414,4.414S457.058,136.828,454.621,136.828z M454.621,119.172h-8.828h-8.828H384&#10;&#9;&#9;c-2.438,0-4.414-1.976-4.414-4.414s1.976-4.414,4.414-4.414h52.966h8.828h8.828c2.438,0,4.414,1.976,4.414,4.414&#10;&#9;&#9;S457.058,119.172,454.621,119.172z M454.621,101.517h-52.966h-8.828H384c-2.438,0-4.414-1.976-4.414-4.414s1.976-4.414,4.414-4.414&#10;&#9;&#9;h8.828h8.828h52.966c2.438,0,4.414,1.976,4.414,4.414S457.058,101.517,454.621,101.517z"/>
	<path style="fill:#BEC8DC;" d="M379.586,295.724h79.448c4.875,0,8.828-3.953,8.828-8.828v-79.448h-97.103v79.448&#10;&#9;&#9;C370.759,291.772,374.711,295.724,379.586,295.724z M419.31,216.276h35.31c2.438,0,4.414,1.976,4.414,4.414&#10;&#9;&#9;s-1.976,4.414-4.414,4.414h-35.31c-2.438,0-4.414-1.976-4.414-4.414S416.873,216.276,419.31,216.276z M419.31,233.931h35.31&#10;&#9;&#9;c2.438,0,4.414,1.976,4.414,4.414c0,2.438-1.976,4.414-4.414,4.414h-35.31c-2.438,0-4.414-1.976-4.414-4.414&#10;&#9;&#9;C414.897,235.907,416.873,233.931,419.31,233.931z M419.31,251.586h35.31c2.438,0,4.414,1.976,4.414,4.414&#10;&#9;&#9;c0,2.438-1.976,4.414-4.414,4.414h-35.31c-2.438,0-4.414-1.976-4.414-4.414C414.897,253.562,416.873,251.586,419.31,251.586z&#10;&#9;&#9; M419.31,269.241h35.31c2.438,0,4.414,1.976,4.414,4.414c0,2.438-1.976,4.414-4.414,4.414h-35.31c-2.438,0-4.414-1.976-4.414-4.414&#10;&#9;&#9;C414.897,271.218,416.873,269.241,419.31,269.241z M401.655,216.276L401.655,216.276c2.438,0,4.414,1.976,4.414,4.414&#10;&#9;&#9;s-1.976,4.414-4.414,4.414l0,0c-2.438,0-4.414-1.976-4.414-4.414S399.218,216.276,401.655,216.276z M401.655,233.931&#10;&#9;&#9;L401.655,233.931c2.438,0,4.414,1.976,4.414,4.414c0,2.438-1.976,4.414-4.414,4.414l0,0c-2.438,0-4.414-1.976-4.414-4.414&#10;&#9;&#9;C397.241,235.907,399.218,233.931,401.655,233.931z M401.655,251.586L401.655,251.586c2.438,0,4.414,1.976,4.414,4.414&#10;&#9;&#9;c0,2.438-1.976,4.414-4.414,4.414l0,0c-2.438,0-4.414-1.976-4.414-4.414C397.241,253.562,399.218,251.586,401.655,251.586z&#10;&#9;&#9; M401.655,269.241L401.655,269.241c2.438,0,4.414,1.976,4.414,4.414c0,2.438-1.976,4.414-4.414,4.414l0,0&#10;&#9;&#9;c-2.438,0-4.414-1.976-4.414-4.414C397.241,271.218,399.218,269.241,401.655,269.241z M384,216.276L384,216.276&#10;&#9;&#9;c2.438,0,4.414,1.976,4.414,4.414s-1.976,4.414-4.414,4.414l0,0c-2.438,0-4.414-1.976-4.414-4.414S381.562,216.276,384,216.276z&#10;&#9;&#9; M384,233.931L384,233.931c2.438,0,4.414,1.976,4.414,4.414c0,2.438-1.976,4.414-4.414,4.414l0,0c-2.438,0-4.414-1.976-4.414-4.414&#10;&#9;&#9;C379.586,235.907,381.562,233.931,384,233.931z M384,251.586L384,251.586c2.438,0,4.414,1.976,4.414,4.414&#10;&#9;&#9;c0,2.438-1.976,4.414-4.414,4.414l0,0c-2.438,0-4.414-1.976-4.414-4.414C379.586,253.562,381.562,251.586,384,251.586z&#10;&#9;&#9; M384,269.241L384,269.241c2.438,0,4.414,1.976,4.414,4.414c0,2.438-1.976,4.414-4.414,4.414l0,0c-2.438,0-4.414-1.976-4.414-4.414&#10;&#9;&#9;C379.586,271.218,381.562,269.241,384,269.241z"/>
</g><g>
	<path style="fill:#96A5B9;" d="M467.862,145.655h-97.103v61.793h97.103V145.655z M392.828,198.621H384&#10;&#9;&#9;c-2.438,0-4.414-1.976-4.414-4.414s1.976-4.414,4.414-4.414h8.828c2.438,0,4.414,1.976,4.414,4.414&#10;&#9;&#9;S395.265,198.621,392.828,198.621z M392.828,180.966H384c-2.438,0-4.414-1.976-4.414-4.414s1.976-4.414,4.414-4.414h8.828&#10;&#9;&#9;c2.438,0,4.414,1.976,4.414,4.414S395.265,180.966,392.828,180.966z M392.828,163.31H384c-2.438,0-4.414-1.976-4.414-4.414&#10;&#9;&#9;s1.976-4.414,4.414-4.414h8.828c2.438,0,4.414,1.976,4.414,4.414S395.265,163.31,392.828,163.31z M454.621,198.621h-44.138&#10;&#9;&#9;c-2.438,0-4.414-1.976-4.414-4.414s1.976-4.414,4.414-4.414h44.138c2.438,0,4.414,1.976,4.414,4.414&#10;&#9;&#9;S457.058,198.621,454.621,198.621z M454.621,180.966h-44.138c-2.438,0-4.414-1.976-4.414-4.414s1.976-4.414,4.414-4.414h44.138&#10;&#9;&#9;c2.438,0,4.414,1.976,4.414,4.414S457.058,180.966,454.621,180.966z M454.621,163.31h-44.138c-2.438,0-4.414-1.976-4.414-4.414&#10;&#9;&#9;s1.976-4.414,4.414-4.414h44.138c2.438,0,4.414,1.976,4.414,4.414S457.058,163.31,454.621,163.31z"/>
	<path style="fill:#96A5B9;" d="M454.621,92.69h-52.966c2.438,0,4.414,1.976,4.414,4.414s-1.976,4.414-4.414,4.414h52.966&#10;&#9;&#9;c2.438,0,4.414-1.976,4.414-4.414S457.058,92.69,454.621,92.69z"/>
	<path style="fill:#96A5B9;" d="M388.414,97.103c0-2.438,1.976-4.414,4.414-4.414H384c-2.438,0-4.414,1.976-4.414,4.414&#10;&#9;&#9;s1.976,4.414,4.414,4.414h8.828C390.39,101.517,388.414,99.541,388.414,97.103z"/>
	<path style="fill:#96A5B9;" d="M454.621,128h-35.31c2.438,0,4.414,1.976,4.414,4.414s-1.976,4.414-4.414,4.414h35.31&#10;&#9;&#9;c2.438,0,4.414-1.976,4.414-4.414S457.058,128,454.621,128z"/>
	<path style="fill:#96A5B9;" d="M406.069,132.414c0-2.438,1.976-4.414,4.414-4.414H384c-2.438,0-4.414,1.976-4.414,4.414&#10;&#9;&#9;s1.976,4.414,4.414,4.414h26.483C408.045,136.828,406.069,134.851,406.069,132.414z"/>
</g><path style="fill:#BEC8DC;" d="M454.621,154.483h-44.138c-2.438,0-4.414,1.976-4.414,4.414s1.976,4.414,4.414,4.414h44.138&#10;&#9;c2.438,0,4.414-1.976,4.414-4.414S457.058,154.483,454.621,154.483z"/><g>
	<path style="fill:#96A5B9;" d="M432.552,114.759c0-2.438,1.976-4.414,4.414-4.414H384c-2.438,0-4.414,1.976-4.414,4.414&#10;&#9;&#9;s1.976,4.414,4.414,4.414h52.966C434.528,119.172,432.552,117.196,432.552,114.759z"/>
	<path style="fill:#96A5B9;" d="M454.621,110.345h-8.828c2.438,0,4.414,1.976,4.414,4.414s-1.976,4.414-4.414,4.414h8.828&#10;&#9;&#9;c2.438,0,4.414-1.976,4.414-4.414S457.058,110.345,454.621,110.345z"/>
</g><g>
	<path style="fill:#E4EAF6;" d="M406.069,97.103c0-2.438-1.976-4.414-4.414-4.414h-8.828c-2.438,0-4.414,1.976-4.414,4.414&#10;&#9;&#9;s1.976,4.414,4.414,4.414h8.828C404.093,101.517,406.069,99.541,406.069,97.103z"/>
	<path style="fill:#E4EAF6;" d="M423.724,132.414c0-2.438-1.976-4.414-4.414-4.414h-8.828c-2.438,0-4.414,1.976-4.414,4.414&#10;&#9;&#9;s1.976,4.414,4.414,4.414h8.828C421.748,136.828,423.724,134.851,423.724,132.414z"/>
	<path style="fill:#E4EAF6;" d="M392.828,154.483H384c-2.438,0-4.414,1.976-4.414,4.414s1.976,4.414,4.414,4.414h8.828&#10;&#9;&#9;c2.438,0,4.414-1.976,4.414-4.414S395.265,154.483,392.828,154.483z"/>
</g><path style="fill:#BEC8DC;" d="M454.621,172.138h-44.138c-2.438,0-4.414,1.976-4.414,4.414s1.976,4.414,4.414,4.414h44.138&#10;&#9;c2.438,0,4.414-1.976,4.414-4.414S457.058,172.138,454.621,172.138z"/><path style="fill:#E4EAF6;" d="M392.828,172.138H384c-2.438,0-4.414,1.976-4.414,4.414s1.976,4.414,4.414,4.414h8.828&#10;&#9;c2.438,0,4.414-1.976,4.414-4.414S395.265,172.138,392.828,172.138z"/><path style="fill:#BEC8DC;" d="M454.621,189.793h-44.138c-2.438,0-4.414,1.976-4.414,4.414s1.976,4.414,4.414,4.414h44.138&#10;&#9;c2.438,0,4.414-1.976,4.414-4.414S457.058,189.793,454.621,189.793z"/><g>
	<path style="fill:#E4EAF6;" d="M392.828,189.793H384c-2.438,0-4.414,1.976-4.414,4.414s1.976,4.414,4.414,4.414h8.828&#10;&#9;&#9;c2.438,0,4.414-1.976,4.414-4.414S395.265,189.793,392.828,189.793z"/>
	<path style="fill:#E4EAF6;" d="M384,242.759L384,242.759c2.438,0,4.414-1.976,4.414-4.414c0-2.438-1.976-4.414-4.414-4.414l0,0&#10;&#9;&#9;c-2.438,0-4.414,1.976-4.414,4.414C379.586,240.782,381.562,242.759,384,242.759z"/>
	<path style="fill:#E4EAF6;" d="M384,225.103L384,225.103c2.438,0,4.414-1.976,4.414-4.414s-1.976-4.414-4.414-4.414l0,0&#10;&#9;&#9;c-2.438,0-4.414,1.976-4.414,4.414S381.562,225.103,384,225.103z"/>
	<path style="fill:#E4EAF6;" d="M384,278.069L384,278.069c2.438,0,4.414-1.976,4.414-4.414c0-2.438-1.976-4.414-4.414-4.414l0,0&#10;&#9;&#9;c-2.438,0-4.414,1.976-4.414,4.414C379.586,276.093,381.562,278.069,384,278.069z"/>
	<path style="fill:#E4EAF6;" d="M384,260.414L384,260.414c2.438,0,4.414-1.976,4.414-4.414c0-2.438-1.976-4.414-4.414-4.414l0,0&#10;&#9;&#9;c-2.438,0-4.414,1.976-4.414,4.414C379.586,258.438,381.562,260.414,384,260.414z"/>
</g><g>
	<path style="fill:#96A5B9;" d="M401.655,242.759L401.655,242.759c2.438,0,4.414-1.976,4.414-4.414c0-2.438-1.976-4.414-4.414-4.414&#10;&#9;&#9;l0,0c-2.438,0-4.414,1.976-4.414,4.414C397.241,240.782,399.218,242.759,401.655,242.759z"/>
	<path style="fill:#96A5B9;" d="M401.655,225.103L401.655,225.103c2.438,0,4.414-1.976,4.414-4.414s-1.976-4.414-4.414-4.414l0,0&#10;&#9;&#9;c-2.438,0-4.414,1.976-4.414,4.414S399.218,225.103,401.655,225.103z"/>
	<path style="fill:#96A5B9;" d="M401.655,278.069L401.655,278.069c2.438,0,4.414-1.976,4.414-4.414c0-2.438-1.976-4.414-4.414-4.414&#10;&#9;&#9;l0,0c-2.438,0-4.414,1.976-4.414,4.414C397.241,276.093,399.218,278.069,401.655,278.069z"/>
	<path style="fill:#96A5B9;" d="M401.655,260.414L401.655,260.414c2.438,0,4.414-1.976,4.414-4.414c0-2.438-1.976-4.414-4.414-4.414&#10;&#9;&#9;l0,0c-2.438,0-4.414,1.976-4.414,4.414C397.241,258.438,399.218,260.414,401.655,260.414z"/>
	<path style="fill:#96A5B9;" d="M419.31,242.759h35.31c2.438,0,4.414-1.976,4.414-4.414c0-2.438-1.976-4.414-4.414-4.414h-35.31&#10;&#9;&#9;c-2.438,0-4.414,1.976-4.414,4.414C414.897,240.782,416.873,242.759,419.31,242.759z"/>
	<path style="fill:#96A5B9;" d="M419.31,225.103h35.31c2.438,0,4.414-1.976,4.414-4.414s-1.976-4.414-4.414-4.414h-35.31&#10;&#9;&#9;c-2.438,0-4.414,1.976-4.414,4.414S416.873,225.103,419.31,225.103z"/>
	<path style="fill:#96A5B9;" d="M419.31,278.069h35.31c2.438,0,4.414-1.976,4.414-4.414c0-2.438-1.976-4.414-4.414-4.414h-35.31&#10;&#9;&#9;c-2.438,0-4.414,1.976-4.414,4.414C414.897,276.093,416.873,278.069,419.31,278.069z"/>
	<path style="fill:#96A5B9;" d="M419.31,260.414h35.31c2.438,0,4.414-1.976,4.414-4.414c0-2.438-1.976-4.414-4.414-4.414h-35.31&#10;&#9;&#9;c-2.438,0-4.414,1.976-4.414,4.414C414.897,258.438,416.873,260.414,419.31,260.414z"/>
</g><path style="fill:#E4EAF6;" d="M450.207,114.759c0-2.438-1.976-4.414-4.414-4.414h-8.828c-2.438,0-4.414,1.976-4.414,4.414&#10;&#9;s1.976,4.414,4.414,4.414h8.828C448.231,119.172,450.207,117.196,450.207,114.759z"/><path style="fill:#FF6469;" d="M132.413,198.621h66.207v-17.655H141.24v-79.448h79.448v57.379c2.44,0,4.414,1.974,4.414,4.414&#10;&#9;c0,2.44-1.974,4.414-4.414,4.414v13.241h-13.241v17.655h22.069c0.126,0,0.248-0.013,0.373-0.019l0.07-5.305&#10;&#9;c0.04-3.042,3.641-4.622,5.907-2.593l2.041,1.828c0.281-0.863,0.438-1.782,0.438-2.739v-22.069c-2.44,0-4.414-1.974-4.414-4.414&#10;&#9;c0-2.44,1.974-4.414,4.414-4.414V92.69c0-4.879-3.953-8.828-8.828-8.828h-97.103c-4.875,0-8.828,3.948-8.828,8.828v97.103&#10;&#9;C123.585,194.673,127.538,198.621,132.413,198.621z"/><g>
	<path style="fill:#96A5B9;" d="M203.033,238.345c2.44,0,4.414-1.974,4.414-4.414v-17.655c0-2.44-1.974-4.414-4.414-4.414&#10;&#9;&#9;s-4.414,1.974-4.414,4.414v17.655C198.62,236.371,200.594,238.345,203.033,238.345z"/>
	<path style="fill:#96A5B9;" d="M308.964,291.31h17.655c2.44,0,4.414-1.974,4.414-4.414s-1.974-4.414-4.414-4.414h-17.655&#10;&#9;&#9;c-2.44,0-4.414,1.974-4.414,4.414S306.525,291.31,308.964,291.31z"/>
	<path style="fill:#96A5B9;" d="M326.62,247.172c-2.44,0-4.414,1.974-4.414,4.414v17.655c0,2.44,1.974,4.414,4.414,4.414&#10;&#9;&#9;s4.414-1.974,4.414-4.414v-17.655C331.033,249.146,329.059,247.172,326.62,247.172z"/>
	<path style="fill:#96A5B9;" d="M308.964,167.724h17.655c2.44,0,4.414-1.974,4.414-4.414c0-2.44-1.974-4.414-4.414-4.414h-17.655&#10;&#9;&#9;c-2.44,0-4.414,1.974-4.414,4.414C304.551,165.75,306.525,167.724,308.964,167.724z"/>
	<path style="fill:#96A5B9;" d="M326.62,176.552c-2.44,0-4.414,1.974-4.414,4.414v17.655c0,2.44,1.974,4.414,4.414,4.414&#10;&#9;&#9;s4.414-1.974,4.414-4.414v-17.655C331.033,178.526,329.059,176.552,326.62,176.552z"/>
	<path style="fill:#96A5B9;" d="M255.999,282.483h-17.655c-2.44,0-4.414,1.974-4.414,4.414s1.974,4.414,4.414,4.414h17.655&#10;&#9;&#9;c2.44,0,4.414-1.974,4.414-4.414S258.439,282.483,255.999,282.483z"/>
	<path style="fill:#96A5B9;" d="M203.033,176.552c-2.44,0-4.414,1.974-4.414,4.414v17.655c0,2.44,1.974,4.414,4.414,4.414&#10;&#9;&#9;s4.414-1.974,4.414-4.414v-17.655C207.447,178.526,205.473,176.552,203.033,176.552z"/>
	<path style="fill:#96A5B9;" d="M220.689,282.483h-17.655c-2.44,0-4.414,1.974-4.414,4.414s1.974,4.414,4.414,4.414h17.655&#10;&#9;&#9;c2.44,0,4.414-1.974,4.414-4.414S223.128,282.483,220.689,282.483z"/>
	<path style="fill:#96A5B9;" d="M198.62,269.241c0,2.44,1.974,4.414,4.414,4.414s4.414-1.974,4.414-4.414v-17.655&#10;&#9;&#9;c0-2.44-1.974-4.414-4.414-4.414s-4.414,1.974-4.414,4.414V269.241z"/>
	<path style="fill:#96A5B9;" d="M326.62,211.862c-2.44,0-4.414,1.974-4.414,4.414v17.655c0,2.44,1.974,4.414,4.414,4.414&#10;&#9;&#9;s4.414-1.974,4.414-4.414v-17.655C331.033,213.836,329.059,211.862,326.62,211.862z"/>
	<path style="fill:#96A5B9;" d="M273.654,167.724h17.655c2.44,0,4.414-1.974,4.414-4.414c0-2.44-1.974-4.414-4.414-4.414h-17.655&#10;&#9;&#9;c-2.44,0-4.414,1.974-4.414,4.414C269.24,165.75,271.214,167.724,273.654,167.724z"/>
	<path style="fill:#96A5B9;" d="M198.62,163.31c0,2.44,1.974,4.414,4.414,4.414h17.655c2.44,0,4.414-1.974,4.414-4.414&#10;&#9;&#9;c0-2.44-1.974-4.414-4.414-4.414h-17.655C200.594,158.897,198.62,160.871,198.62,163.31z"/>
	<path style="fill:#96A5B9;" d="M273.654,291.31h17.655c2.44,0,4.414-1.974,4.414-4.414s-1.974-4.414-4.414-4.414h-17.655&#10;&#9;&#9;c-2.44,0-4.414,1.974-4.414,4.414S271.214,291.31,273.654,291.31z"/>
	<path style="fill:#96A5B9;" d="M233.93,163.31c0,2.44,1.974,4.414,4.414,4.414h17.655c2.44,0,4.414-1.974,4.414-4.414&#10;&#9;&#9;c0-2.44-1.974-4.414-4.414-4.414h-17.655C235.904,158.897,233.93,160.871,233.93,163.31z"/>
</g><path style="fill:#464655;" d="M229.958,193.297l-0.07,5.305l-0.371,28.534c-0.033,2.577,2.607,4.327,4.967,3.29l8.781-3.854&#10;&#9;l7.841,17.859c0.728,1.655,2.345,2.638,4.047,2.638c0.59,0,1.194-0.12,1.771-0.371c2.229-0.983,3.245-3.586,2.268-5.818&#10;&#9;l-7.84-17.857l8.778-3.853c2.359-1.036,2.859-4.163,0.94-5.884l-23.165-20.754l-2.041-1.828&#10;&#9;C233.599,188.674,229.997,190.255,229.958,193.297z"/><g>
</g><g>
</g><g>
</g><g>
</g><g>
</g><g>
</g><g>
</g><g>
</g><g>
</g><g>
</g><g>
</g><g>
</g><g>
</g><g>
</g><g>
</g></g><g transform="matrix(1.6002502832709198, 0, 0, 1.6002502832709198, 381.22197664176184, -1144.6405678985138)"><g transform="matrix(0.3230690658092499, 0, 0, 0.3230690658092499, -14.972562789916992, 667.4721069335938)"><path fill="#F2805B" d="M152.8,928.1c10.3-0.2,20.4-1.4,30.5-3.4C174.9,914.9,158.9,916,152.8,928.1z" transform="matrix(1, 0, 0, 1, 0, 0)"/><path fill="#C48458" d="M285.4,726.4c18.7-13.2,29.1-35.3,26-58.2c-0.1-0.6,0-1.2,0.1-1.7c-3.6-2-6.8-4.7-9.2-8.1&#10;&#9;&#9;&#9;c-2.4,2.9-5.6,5.1-9.9,6c-8.7,1.9-16.7-1.2-21.7-7.8c-2.5,3.6-5.9,6.6-10.2,8.7c-12.3,5.7-26,2.8-34.6-7.2&#10;&#9;&#9;&#9;c-5.2,5.1-11.8,8.9-19.1,10.4c-10.8,2.1-30.3,0.9-31.7-12.8c-6.4,1.8-13.1,2.7-19.8,2.7c0,0.1,0,0.1,0,0.2&#10;&#9;&#9;&#9;c-5.7,19.2-0.5,40.8,12.1,56.2c13.6,16.7,34,26.2,55.4,27.6C244.3,743.8,267.6,739,285.4,726.4z M267.1,675.9&#10;&#9;&#9;&#9;c10.7,0,10.7,16.6,0,16.6S256.4,675.9,267.1,675.9z M198.7,681.4c0-4.5,3.8-8.3,8.3-8.3c4.5,0,8.3,3.8,8.3,8.3c0,0.2,0,0.4,0,0.6&#10;&#9;&#9;&#9;c0,4.5-3.8,8.3-8.3,8.3c-4.5,0-8.3-3.8-8.3-8.3C198.7,681.8,198.7,681.6,198.7,681.4z M187.3,706.9c-2.8-4.1,3.9-8,6.7-3.9&#10;&#9;&#9;&#9;c15.8,23.3,48.9,25,67.7,4.3c3.4-3.7,8.8,1.8,5.5,5.5C244.9,737.4,205.8,734.1,187.3,706.9z" transform="matrix(1, 0, 0, 1, 0, 0)"/><path fill="#30BBA4" d="M177.8,827.3c-3.9,10.8-7.7,21.6-11.6,32.4c11.9,7.2,25.1,11.4,39.1,12.2c1.8-5.4,3.5-10.8,5.3-16.2&#10;&#9;&#9;&#9;c-0.2-1.7,0.5-3.5,2.7-4.1c7.7-1.9,15.4-3.7,23.2-5.6c4.8-1.2,6.9,6.3,2.1,7.5c-0.9,0.2-1.9,0.5-2.8,0.7c1.1,3.4,2.2,6.8,3.3,10.2&#10;&#9;&#9;&#9;c12,0.6,23.4-2.3,33.5-8.5c-3.1-9.9-6.2-19.8-9.3-29.7C236.1,838.4,205,838.8,177.8,827.3z" transform="matrix(1, 0, 0, 1, 0, 0)"/><path fill="#F2805B" d="M259.4,918.3c10.1,2,20.2,3.2,30.5,3.4C283.9,909.7,267.9,908.6,259.4,918.3z" transform="matrix(1, 0, 0, 1, 0, 0)"/><path fill="#F7CF11" d="M250.4,748.7c-1.2,0.2-2.4,0.4-3.6,0.6c-0.1,0.5-0.2,1-0.5,1.5c-9.7,17.7-34.8,14.9-41.4-3.6&#10;&#9;&#9;&#9;c-3-0.8-6-1.7-8.9-2.8c3.8,31,16.8,61.1,38.5,82.4c9.7-1.5,19.1-4.5,28-8.9C262.4,794.3,258.2,771,250.4,748.7z" transform="matrix(1, 0, 0, 1, 0, 0)"/><path fill="#F3B31C" d="M191.3,742.4c2.5,26.3-2,52.6-13.3,76.6c17.7,8.2,37.6,10.7,56.7,7.7c-21.7-21.4-34.7-51.5-38.5-82.4&#10;&#9;&#9;&#9;C194.5,743.7,192.9,743.1,191.3,742.4z" transform="matrix(1, 0, 0, 1, 0, 0)"/><path fill="#C48458" d="M319.3,682.1c-0.5,5.5-1.6,10.9-3.4,16.1c3.4,2.1,7.3,4.4,11.3,4.2c4.9-0.2,9.6-3.2,9.2-8.7&#10;&#9;&#9;&#9;C335.7,684.9,327.1,680.6,319.3,682.1z" transform="matrix(1, 0, 0, 1, 0, 0)"/><path fill="#C48458" d="M145.5,668.5c-8.5-4.3-20.5,0.8-19.8,11.4c0.7,10,12.4,14.9,19.5,7.4c0.3-0.4,0.7-0.6,1.1-0.8&#10;&#9;&#9;&#9;C145.2,680.5,144.9,674.5,145.5,668.5z" transform="matrix(1, 0, 0, 1, 0, 0)"/><path fill="#594A42" d="M137.7,648.4c22.1,5.9,46.1,0.1,62.9-15.3c3.7-3.4,9.1,2.1,5.5,5.5c-6.9,6.3-14.8,11.2-23.3,14.6&#10;&#9;&#9;&#9;c-0.5,11.7,20.3,9.1,27,6.4c9.4-3.8,16.4-11.4,19.6-20.9c1.6-4.7,9.1-2.7,7.5,2.1c-1.4,4.1-3.4,8-5.9,11.5&#10;&#9;&#9;&#9;c6.2,8.1,17.9,11.5,27,5.7c9.7-6.1,12.9-18,7.4-28.1c-2.4-4.4,4.3-8.3,6.7-3.9c3.7,6.9,4.5,15,2.5,22.3c0.2,0.2,0.3,0.5,0.4,0.8&#10;&#9;&#9;&#9;c2.9,7.2,11.9,11.1,18.7,6.6c6.4-4.2,7.4-11.9,7.8-18.9c0.3-4.9,8-5,7.7,0c-0.3,4.9-1.1,10.2-3,14.9c0.6,0.3,1.2,0.7,1.6,1.4&#10;&#9;&#9;&#9;c3.3,5.1,8.4,8.1,14.3,9c4.9,0.7,2.8,8.2-2.1,7.5c-0.3,0-0.6-0.1-0.9-0.2c0.2,1.6,0.2,3.3,0.3,4.9c5.1-0.6,10.3,0.5,14.5,3&#10;&#9;&#9;&#9;c0.2-0.2,0.3-0.3,0.6-0.5c7.3-5,9.6-13.8,6.1-21.7c-1.5,0.4-3,0.6-4.7,0.6c-5-0.1-5-7.8,0-7.7c9.5,0.2,12.1-11.1,8.5-18.3&#10;&#9;&#9;&#9;c-2.9-5.7-7.3-9.9-12.1-13.8c-1,1.2-2,2.3-3.2,3.4c-3.8,3.2-9.3-2.2-5.5-5.5c7.4-6.3,8.1-16.8,3.2-25c-4.3-7-10.7-11.7-17.8-15.4&#10;&#9;&#9;&#9;c-0.6,1.4-1.3,2.8-2.3,4.1c-2.8,4.1-9.5,0.2-6.7-3.9c5.1-7.4,3-17.5-4.6-22.5c-6.9-4.5-14.7-5.2-22.5-3.7c0.7,1.8,1.2,3.6,1.5,5.5&#10;&#9;&#9;&#9;c1,4.9-6.5,6.9-7.5,2.1c-2.4-12.2-12.9-23.8-26-24.6c-11.9-0.7-22.9,5.1-28.9,15.3c0.7,0.5,1.5,1.1,2.2,1.7&#10;&#9;&#9;&#9;c3.8,3.2-1.7,8.7-5.5,5.5c-12.3-10.5-30.6-2.6-32.1,13c2,0.8,3.9,1.8,5.8,2.9c4.2,2.6,0.3,9.3-3.9,6.7&#10;&#9;&#9;&#9;c-10.9-6.8-26.9-5.9-35.7,4.2c-8.6,9.9-8.9,24.5-1.5,35.1c2.4,0.1,4.9,0.4,7.3,1.2c4.8,1.5,2.7,8.9-2.1,7.5&#10;&#9;&#9;&#9;c-9.5-2.9-21.1,1.5-24.3,11.6c-3.1,9.8-0.2,19.1,5,27.5c5.4-3.3,12.4-4.2,19-1.8c0.2-0.9,0.4-1.7,0.6-2.6&#10;&#9;&#9;&#9;c-3.9-0.4-7.9-1.1-11.7-2.2C130.8,654.6,132.9,647.1,137.7,648.4z" transform="matrix(1, 0, 0, 1, 0, 0)"/><path fill="#C48458" d="M222.8,750.2c-2.8-0.2-5.5-0.6-8.2-1c5.4,7.4,16.3,7.8,22.6,1.1C232.4,750.6,227.5,750.6,222.8,750.2z" transform="matrix(1, 0, 0, 1, 0, 0)"/><path d="M206.9,690.2c4.5,0,8.3-3.8,8.3-8.3c0-0.2,0-0.4,0-0.6c0-4.5-3.8-8.3-8.3-8.3c-4.5,0-8.3,3.8-8.3,8.3c0,0.2,0,0.4,0,0.6&#10;&#9;&#9;&#9;C198.7,686.5,202.4,690.2,206.9,690.2z" transform="matrix(1, 0, 0, 1, 0, 0)"/><path d="M267.1,692.4c10.7,0,10.7-16.6,0-16.6S256.4,692.4,267.1,692.4z" transform="matrix(1, 0, 0, 1, 0, 0)"/><path d="M267.1,712.8c3.3-3.7-2.1-9.2-5.5-5.5c-18.7,20.7-51.8,19-67.7-4.3c-2.8-4.1-9.5-0.2-6.7,3.9&#10;&#9;&#9;&#9;C205.8,734.1,244.9,737.4,267.1,712.8z" transform="matrix(1, 0, 0, 1, 0, 0)"/><path d="M351.7,727.6c-2.8,1-5.6,1.9-8.4,2.9c-1.2-5.1-2.3-10.2-3.5-15.3c-1.1-4.9-8.6-2.8-7.5,2.1c1,4.5,2.1,9.1,3.1,13.6&#10;&#9;&#9;&#9;c-1.5-2-2.9-4-4.4-6c-1.2-1.7-3.3-2.5-5.3-1.4c-1.7,1-2.6,3.6-1.4,5.3c2.8,3.8,5.6,7.6,8.4,11.4c-10.2,9.3-21.5,17.5-35.2,20.7&#10;&#9;&#9;&#9;c-13,3-28.7-0.9-36.5-12.2c-0.6-0.9-1.5-1.4-2.3-1.6c12.5-3.3,24.5-8.8,34.3-16.5c8.7-6.8,15.5-15.4,20-24.9&#10;&#9;&#9;&#9;c5.7,3.3,11.6,5.2,18.4,4.3c6.8-0.9,12.4-7.7,12.7-14.4c0.2-5.1-1.4-9.5-4.1-13c9.6-7.6,12.7-19.8,7.6-31&#10;&#9;&#9;&#9;c4.1-3.7,6.5-9.4,6.4-15.4c-0.1-11.6-9.3-20.2-17.7-26.9c2.1-5.8,2-12.4-0.1-18.5c-3.9-11.8-14.6-19.6-25.4-24.9&#10;&#9;&#9;&#9;c0.1-6.8-2.8-13.5-8-18.5c-8.8-8.5-21.8-9.3-33.2-6.8c-5.7-9-15-15.5-25.8-17.3c-15.2-2.5-30.9,5.9-38.3,19.2&#10;&#9;&#9;&#9;c-15.6-5.6-33.4,4.1-36,21.7c-11.4-1.8-23.4,1.8-31.7,10.4c-10.6,10.8-11.7,28.7-4.5,41.6c-6.2,1.8-11.7,5.8-15.5,11.6&#10;&#9;&#9;&#9;c-8.2,12.5-3.3,28.9,4.1,40.4c-2.7,3.6-4.2,8.2-3.8,13.5c1,15.1,18.9,22.1,30.2,13.6c2.7,8.7,7,17,12.6,24.2&#10;&#9;&#9;&#9;c6.2,8,13.8,14.4,22.2,19.2c0.4,3.1,0.7,6.1,1,9.2c-14.3,11.9-33.6,16.5-51.7,12.2c-16.9-4-30.9-16.2-38.6-31.6&#10;&#9;&#9;&#9;c2.3-1.3,4.7-2.6,7-3.9c4.3-2.4,0.5-9.1-3.9-6.7c-0.9,0.5-1.8,1-2.6,1.5c1.2-5.3,2.4-10.7,3.6-16c1.1-4.9-6.4-6.9-7.5-2.1&#10;&#9;&#9;&#9;c-1.3,5.9-2.7,11.9-4,17.8c-4.2-1.8-8.5-3.6-12.7-5.4c-4.5-1.9-8.5,4.7-3.9,6.7c4.9,2.1,9.8,4.1,14.7,6.2&#10;&#9;&#9;&#9;c-0.1,1.4,0.5,2.8,1.6,3.6c0,0,0,0.1,0,0.1c8.3,18.4,24.7,32,44.2,37.2c18.5,4.9,38.5,0.5,54-10.3c0,21.1-4.9,42-14.4,60.9&#10;&#9;&#9;&#9;c-0.6,1.1-0.6,2.2-0.2,3.1c-0.2,1.1,0,2.2,0.9,3c-3.7,10.4-7.4,20.8-11.1,31.1c-0.3,0.3-0.6,0.6-0.8,1.1c-0.1,0.2-0.2,0.4-0.3,0.6&#10;&#9;&#9;&#9;c-0.4,0.7-0.5,1.5-0.5,2.2c-1.1,1.7-1.1,4.1,1.1,5.5c4,2.7,8.2,5,12.5,7c-4.8,12.6-5.3,26.2-1.1,39.1&#10;&#9;&#9;&#9;c-11.1-0.4-22.4,6.1-26.4,18.6c-0.1,0.4-0.2,0.8-0.2,1.2c-1,2.3,0.1,5.6,3.4,5.6c14.6,0.1,29.1-1.6,43.4-4.9&#10;&#9;&#9;&#9;c2.6-0.6,3.3-3.5,2.3-5.7c-3.2-6.6-8.3-10.9-14-13.1c0-0.5,0-1-0.2-1.6c-4.4-11.8-4.6-24.5,0-36.2c9.4,3.4,19.3,5.3,29.4,5.5&#10;&#9;&#9;&#9;c1.3,0,2.7-0.8,3.3-1.9c0.4-0.6,0.7-1.3,1.1-1.9c0.5-0.9,0.6-1.8,0.4-2.6c1.6-4.9,3.2-9.8,4.8-14.7c3.5-0.8,6.9-1.7,10.4-2.5&#10;&#9;&#9;&#9;c1.3,4.1,2.6,8.2,3.9,12.3c0.4,1.1,1.1,1.8,1.9,2.3c0.6,0.7,1.5,1.3,2.7,1.4c9.4,0.8,18.8-0.4,27.6-3.6&#10;&#9;&#9;&#9;c4.4,11.6,4.1,24.2-0.2,35.8c-0.2,0.6-0.3,1.1-0.2,1.6c-5.8,2.2-10.8,6.5-14,13.1c-1,2.2-0.3,5.1,2.3,5.7&#10;&#9;&#9;&#9;c14.2,3.4,28.7,5,43.4,4.9c3.3,0,4.4-3.3,3.4-5.6c0-0.4,0-0.8-0.2-1.2c-4-12.5-15.3-19-26.4-18.6c4.2-12.8,3.7-26.3-1-38.8&#10;&#9;&#9;&#9;c2.8-1.4,5.5-3,8.1-4.8c2.2-1.5,2.1-4.2,0.8-5.9c-3.5-11.2-7-22.3-10.5-33.5c0,0,0-0.1,0-0.1c0.4-0.6,0.7-1.4,0.7-2.3&#10;&#9;&#9;&#9;c-0.2-19.7-2.9-39.2-8.1-58.1c9.2,7.1,21.4,9.7,33.3,8.1c18.5-2.3,33.9-14.8,46.9-27.3c1-0.9,1.3-2,1.1-3.1&#10;&#9;&#9;&#9;c3.4-1.2,6.8-2.3,10.2-3.5C358.5,733.4,356.5,726,351.7,727.6z M327.2,702.4c-4.1,0.2-8-2.1-11.3-4.2c1.8-5.2,2.9-10.6,3.4-16.1&#10;&#9;&#9;&#9;c7.9-1.5,16.5,2.8,17.1,11.6C336.8,699.3,332.1,702.3,327.2,702.4z M145.2,687.2c-7.1,7.5-18.8,2.6-19.5-7.4&#10;&#9;&#9;&#9;c-0.7-10.6,11.3-15.7,19.8-11.4c-0.6,6-0.3,12.1,0.8,18C145.9,686.6,145.5,686.9,145.2,687.2z M135.6,655.9&#10;&#9;&#9;&#9;c3.9,1,7.8,1.8,11.7,2.2c-0.2,0.9-0.5,1.7-0.6,2.6c-6.6-2.4-13.6-1.5-19,1.8c-5.2-8.4-8-17.7-5-27.5c3.1-10.1,14.8-14.5,24.3-11.6&#10;&#9;&#9;&#9;c4.8,1.5,6.8-6,2.1-7.5c-2.4-0.7-4.9-1.1-7.3-1.2c-7.4-10.6-7.1-25.2,1.5-35.1c8.8-10.1,24.8-11,35.7-4.2c4.2,2.7,8.1-4,3.9-6.7&#10;&#9;&#9;&#9;c-1.9-1.2-3.8-2.1-5.8-2.9c1.5-15.5,19.8-23.5,32.1-13c3.8,3.2,9.3-2.2,5.5-5.5c-0.7-0.6-1.4-1.1-2.2-1.7&#10;&#9;&#9;&#9;c5.9-10.3,16.9-16.1,28.9-15.3c13.1,0.8,23.5,12.4,26,24.6c1,4.9,8.4,2.8,7.5-2.1c-0.4-1.9-0.9-3.7-1.5-5.5&#10;&#9;&#9;&#9;c7.8-1.5,15.5-0.8,22.5,3.7c7.6,5,9.7,15.1,4.6,22.5c-2.9,4.1,3.8,8,6.7,3.9c0.9-1.3,1.7-2.7,2.3-4.1c7.1,3.7,13.5,8.4,17.8,15.4&#10;&#9;&#9;&#9;c5,8.1,4.2,18.7-3.2,25c-3.8,3.2,1.7,8.7,5.5,5.5c1.2-1,2.3-2.2,3.2-3.4c4.8,3.9,9.2,8.1,12.1,13.8c3.6,7.2,1.1,18.4-8.5,18.3&#10;&#9;&#9;&#9;c-5-0.1-5,7.6,0,7.7c1.7,0,3.2-0.2,4.7-0.6c3.4,7.9,1.2,16.7-6.1,21.7c-0.2,0.1-0.4,0.3-0.6,0.5c-4.3-2.5-9.4-3.7-14.5-3&#10;&#9;&#9;&#9;c0-1.6-0.1-3.3-0.3-4.9c0.3,0.1,0.6,0.1,0.9,0.2c4.9,0.7,7-6.7,2.1-7.5c-5.9-0.9-11-3.9-14.3-9c-0.4-0.7-1-1.2-1.6-1.4&#10;&#9;&#9;&#9;c1.9-4.7,2.7-10.1,3-14.9c0.3-5-7.4-4.9-7.7,0c-0.4,7-1.5,14.7-7.8,18.9c-6.8,4.5-15.9,0.6-18.7-6.6c-0.1-0.3-0.2-0.5-0.4-0.8&#10;&#9;&#9;&#9;c2-7.3,1.1-15.4-2.5-22.3c-2.4-4.4-9-0.5-6.7,3.9c5.4,10.1,2.3,22-7.4,28.1c-9.1,5.7-20.8,2.4-27-5.7c2.5-3.5,4.5-7.4,5.9-11.5&#10;&#9;&#9;&#9;c1.6-4.7-5.9-6.7-7.5-2.1c-3.2,9.5-10.2,17.1-19.6,20.9c-6.7,2.7-27.5,5.3-27-6.4c8.5-3.4,16.4-8.2,23.3-14.6&#10;&#9;&#9;&#9;c3.7-3.4-1.8-8.8-5.5-5.5c-16.9,15.5-40.8,21.3-62.9,15.3C132.9,647.1,130.8,654.6,135.6,655.9z M167.4,714.8&#10;&#9;&#9;&#9;c-12.6-15.5-17.8-37-12.1-56.2c0-0.1,0-0.1,0-0.2c6.7,0,13.3-0.9,19.8-2.7c1.4,13.8,20.9,15,31.7,12.8c7.4-1.5,13.9-5.2,19.1-10.4&#10;&#9;&#9;&#9;c8.6,10,22.2,12.9,34.6,7.2c4.3-2,7.7-5,10.2-8.7c5,6.6,12.9,9.7,21.7,7.8c4.3-1,7.5-3.1,9.9-6c2.5,3.4,5.6,6.2,9.2,8.1&#10;&#9;&#9;&#9;c-0.1,0.5-0.2,1.1-0.1,1.7c3.1,22.9-7.3,45-26,58.2c-17.9,12.6-41.1,17.4-62.6,16C201.3,741.1,181,731.6,167.4,714.8z&#10;&#9;&#9;&#9; M237.2,750.3c-6.4,6.7-17.2,6.3-22.6-1.1c2.7,0.4,5.5,0.8,8.2,1C227.5,750.6,232.4,750.6,237.2,750.3z M183.3,924.6&#10;&#9;&#9;&#9;c-10.1,2-20.2,3.2-30.5,3.4C158.9,916,174.9,914.9,183.3,924.6z M290,921.8c-10.3-0.2-20.4-1.4-30.5-3.4&#10;&#9;&#9;&#9;C267.9,908.6,283.9,909.7,290,921.8z M272.5,855.9c-10.2,6.2-21.6,9.1-33.5,8.5c-1.1-3.4-2.2-6.8-3.3-10.2&#10;&#9;&#9;&#9;c0.9-0.2,1.9-0.5,2.8-0.7c4.8-1.2,2.8-8.6-2.1-7.5c-7.7,1.9-15.4,3.7-23.2,5.6c-2.2,0.5-3,2.3-2.7,4.1c-1.8,5.4-3.5,10.8-5.3,16.2&#10;&#9;&#9;&#9;c-13.9-0.8-27.1-5-39.1-12.2c3.9-10.8,7.7-21.6,11.6-32.4c27.3,11.5,58.4,11.1,85.4-1.1C266.3,836.1,269.4,846,272.5,855.9z&#10;&#9;&#9;&#9; M262.7,817.9c-26.4,13-58,13.4-84.7,1.1c11.4-24,15.9-50.3,13.3-76.6c4.4,1.9,9,3.5,13.7,4.8c6.7,18.6,31.7,21.3,41.4,3.6&#10;&#9;&#9;&#9;c0.3-0.5,0.4-1,0.5-1.5c1.2-0.2,2.4-0.4,3.6-0.6C258.2,771,262.4,794.3,262.7,817.9z" transform="matrix(1, 0, 0, 1, 0, 0)"/></g></g><g transform="matrix(1.5455842018127441, 0, 0, 1.5455842018127441, -246.959228515625, -1049.4750059998032)"><g transform="matrix(0.3249538838863373, 0, 0, 0.3249538838863373, -69.3385848999024, 651.47265625)"><path fill="#F19223" d="M1293.3,874.4c1.2-11.4,0.8-27.5-12.9-29.1c0,0,0,0-0.1,0c-6.3,4.1-5.8,12.7-1.6,18.3&#10;&#9;&#9;&#9;&#9;C1282.5,868.6,1287.8,871.7,1293.3,874.4z" transform="matrix(1, 0, 0, 1, 0, 0)"/><path fill="#FED19F" d="M1274.6,679.3c-0.2,5.8-1.2,11.6-3,17.1c0.8,0.2,1.5,0.7,2.1,1.5c6.1,8.2,20.4,3.7,19.9-6.9&#10;&#9;&#9;&#9;&#9;C1293.2,680.7,1283.5,676.1,1274.6,679.3z" transform="matrix(1, 0, 0, 1, 0, 0)"/><path fill="#F19223" d="M1045.5,850.3c-2.2,4.5-3.8,9.2-4.9,14c13-1.5,25.9-13,16.2-26.1C1051.4,839.4,1047.8,845.6,1045.5,850.3&#10;&#9;&#9;&#9;&#9;z" transform="matrix(1, 0, 0, 1, 0, 0)"/><path fill="#726658" d="M1238.2,526.1c6.5,1.5,14,5.2,17.6,10.8c18.5-6.7,7.9-30.7,1-42c-2.6-4.3,4.1-8.2,6.7-3.9&#10;&#9;&#9;&#9;&#9;c6.1,10.2,11.5,21.1,10.1,33.3c-0.3,2.4-0.9,4.6-1.8,6.8c0.7,0,1.4,0.2,2.1,0.7c8.5,6.1,19.3,7.4,28.8,4.1&#10;&#9;&#9;&#9;&#9;c-7.4-2.9-13.4-9.9-16.3-17.7c-5.9-15.8-4.9-34.7-22.1-43.4c-14.7-7.5-32.2-3.6-43.1,8.8c-11.5,13.1-12.8,31-6.8,46.8&#10;&#9;&#9;&#9;&#9;C1221.4,526,1230,524.2,1238.2,526.1z" transform="matrix(1, 0, 0, 1, 0, 0)"/><path fill="#726658" d="M1120.8,634.8c-5-0.2-5-7.9,0-7.7c11.1,0.5,21.5-2.5,30.7-8.6c-1.8-4.2-3.1-8.7-3.9-13.4&#10;&#9;&#9;&#9;&#9;c-0.8-4.9,6.6-7,7.5-2.1c3.6,22.2,20.3,39.3,41.9,43.3c-7.7-5.9-14.6-13.2-20.3-21.6c-2.8-4.1,3.9-8,6.7-3.9&#10;&#9;&#9;&#9;&#9;c19.7,29.1,55.6,42.7,89.7,34.3c4.8-1.2,6.9,6.3,2.1,7.5c-0.8,0.2-1.5,0.3-2.3,0.5c0.7,2.7,1.2,5.4,1.5,8.2&#10;&#9;&#9;&#9;&#9;c3.6-1,7.5-1.2,11.1-0.4c0.1-0.3,0.2-0.5,0.4-0.8c23.4-35.1,15.4-84.5-20.2-108.4c-18.5-12.4-40.9-16-62.8-14.6&#10;&#9;&#9;&#9;&#9;c-17.8,1.1-37.7,6-48.1,21.7c-2.7,4.1-9.4,0.3-6.7-3.9c0,0,0,0,0,0c-29.2,7.6-36.3,44.8-40.1,70.9c4.4,0.1,8.8,1.5,12.6,4.5&#10;&#9;&#9;&#9;&#9;c0.7-1.9,1.5-3.7,2.4-5.5C1122.2,634.8,1121.5,634.8,1120.8,634.8z" transform="matrix(1, 0, 0, 1, 0, 0)"/><path fill="#F19223" d="M1230.1,533.2c-5.6,0.5-10.5,2.6-14.6,6.1c11.8,0.3,23.7,2.1,34.8,6&#10;&#9;&#9;&#9;&#9;C1251.6,536.5,1236.5,532.6,1230.1,533.2z" transform="matrix(1, 0, 0, 1, 0, 0)"/><path fill="#FED19F" d="M1094.1,653.8c-2.2,11,8.7,19.9,19.1,15.1c0.4-0.2,0.7-0.3,1.1-0.3c0.3-6.8,1.5-13.5,3.4-20.1&#10;&#9;&#9;&#9;&#9;C1110.5,640.8,1096.5,642.1,1094.1,653.8z" transform="matrix(1, 0, 0, 1, 0, 0)"/><path fill="#F15A29" d="M1187.7,843.3c0.7,6.1,1.4,12.1,2.1,18.2c4-0.1,8-0.4,12-0.8c-1.3-6-2.6-12-3.8-18&#10;&#9;&#9;&#9;&#9;C1194.6,843,1191.2,843.2,1187.7,843.3z" transform="matrix(1, 0, 0, 1, 0, 0)"/><path fill="#F15A29" d="M1165.1,842.7c-0.6,6,0.1,12,1.9,17.8c0,0.1,0,0.2,0.1,0.3c5,0.4,10,0.7,15.1,0.7&#10;&#9;&#9;&#9;&#9;c-0.7-6.1-1.4-12.2-2.1-18.2C1175,843.3,1170,843.1,1165.1,842.7z" transform="matrix(1, 0, 0, 1, 0, 0)"/><path fill="#F15A29" d="M1209.5,859.8c2.3-0.3,4.6-0.7,6.9-1.1c-0.2-6-0.6-11.9-1-17.9c-3.2,0.5-6.5,0.9-9.7,1.3&#10;&#9;&#9;&#9;&#9;C1207,848,1208.3,853.9,1209.5,859.8z" transform="matrix(1, 0, 0, 1, 0, 0)"/><path fill="#F15A29" d="M1157.5,842c-5.3-0.6-10.6-1.4-15.8-2.3c-0.1,5.4-0.2,10.8-0.3,16.2c0,0.3,0,0.6-0.1,0.9&#10;&#9;&#9;&#9;&#9;c5.8,1.4,11.7,2.4,17.6,3.2C1157.3,854,1156.9,848,1157.5,842z" transform="matrix(1, 0, 0, 1, 0, 0)"/><path fill="#FED19F" d="M1245.9,721.3c16-14.2,25-35.7,19.3-56.9c-20,2.7-39.9-1.3-57-10.8c-0.6,0.8-1.6,1.3-2.9,1.2&#10;&#9;&#9;&#9;&#9;c-21.2-0.6-40.1-12-50.3-29.5c-7.3,4.7-15.4,7.7-23.9,8.9c0,0.6-0.1,1.3-0.4,2c-10.6,20.9-12.7,47-1.6,68.2&#10;&#9;&#9;&#9;&#9;c10.3,19.8,29.1,33.8,51.7,35.9C1203.3,742.6,1228.6,736.7,1245.9,721.3z M1216.4,674.2c0-4.5,3.8-8.3,8.3-8.3&#10;&#9;&#9;&#9;&#9;c4.5,0,8.3,3.8,8.3,8.3c0,0.2,0,0.4,0,0.6c0,4.5-3.8,8.3-8.3,8.3c-4.5,0-8.3-3.8-8.3-8.3C1216.4,674.6,1216.4,674.4,1216.4,674.2&#10;&#9;&#9;&#9;&#9;z M1154,647.7c0.2,0,0.4,0,0.6,0c4.5,0,8.3,3.8,8.3,8.3c0,4.5-3.8,8.3-8.3,8.3c-0.2,0-0.4,0-0.6,0c-4.5,0-8.3-3.8-8.3-8.3&#10;&#9;&#9;&#9;&#9;C1145.7,651.5,1149.5,647.7,1154,647.7z M1146.7,684.8c-1.3-4.8,6.1-6.9,7.5-2.1c7.6,28.1,42.7,37.5,63.4,16.9&#10;&#9;&#9;&#9;&#9;c3.5-3.5,9,1.9,5.5,5.5c-11.6,11.5-29.8,17.1-45.7,11.8C1162.3,712,1150.8,700.1,1146.7,684.8z" transform="matrix(1, 0, 0, 1, 0, 0)"/><path fill="#F15A29" d="M1120,850.3C1120,850.4,1120,850.4,1120,850.3c4.5,1.7,9,3.1,13.6,4.4c0.1-5.6,0.2-11.1,0.3-16.7&#10;&#9;&#9;&#9;&#9;c-4.2-0.9-8.3-2-12.4-3.2C1120.8,840,1120.3,845.2,1120,850.3z" transform="matrix(1, 0, 0, 1, 0, 0)"/><path fill="#E39D64" d="M1167.2,745.6c-0.9,5.5,2.8,11.6,8.9,11.7c5.6,0,9.7-3.5,10.4-8.8c-2.6-0.1-5.2-0.3-7.7-0.6&#10;&#9;&#9;&#9;&#9;C1174.9,747.5,1171,746.7,1167.2,745.6z" transform="matrix(1, 0, 0, 1, 0, 0)"/><path fill="#EC8123" d="M1155.7,741.2c-0.4-0.2-0.8-0.4-1.2-0.6c-16.2,26.5-27,55.9-32,86.5c15.9,4.6,32.2,7.4,48.6,8.2&#10;&#9;&#9;&#9;&#9;C1157.1,807.4,1153,773.4,1155.7,741.2z" transform="matrix(1, 0, 0, 1, 0, 0)"/><path fill="#F19223" d="M1214.8,833.1c-2.5-28.7-7.3-57.1-14.3-85.1c-2.1,0.2-4.2,0.4-6.3,0.5c-1.1,10.5-11.2,19.6-22.2,15.9&#10;&#9;&#9;&#9;&#9;c-9.6-3.2-14.2-12.1-12.1-21.3c-1.4-0.6-2.8-1.2-4.2-1.9c-2.8,32.2,1.4,66.1,15.5,94.1C1185.8,836.1,1200.4,835.4,1214.8,833.1z" transform="matrix(1, 0, 0, 1, 0, 0)"/><path d="M1154,664.3c0.2,0,0.4,0,0.6,0c4.5,0,8.3-3.8,8.3-8.3c0-4.5-3.8-8.3-8.3-8.3c-0.2,0-0.4,0-0.6,0c-4.5,0-8.3,3.8-8.3,8.3&#10;&#9;&#9;&#9;&#9;C1145.7,660.5,1149.5,664.3,1154,664.3z" transform="matrix(1, 0, 0, 1, 0, 0)"/><path d="M1224.6,683c4.5,0,8.3-3.8,8.3-8.3c0-0.2,0-0.4,0-0.6c0-4.5-3.8-8.3-8.3-8.3c-4.5,0-8.3,3.8-8.3,8.3c0,0.2,0,0.4,0,0.6&#10;&#9;&#9;&#9;&#9;C1216.4,679.3,1220.1,683,1224.6,683z" transform="matrix(1, 0, 0, 1, 0, 0)"/><path d="M1223,705.1c3.5-3.5-1.9-9-5.5-5.5c-20.7,20.6-55.7,11.2-63.4-16.9c-1.3-4.8-8.8-2.8-7.5,2.1&#10;&#9;&#9;&#9;&#9;c4.2,15.3,15.6,27.2,30.6,32.2C1193.2,722.3,1211.4,716.7,1223,705.1z" transform="matrix(1, 0, 0, 1, 0, 0)"/><path d="M1327.4,734.6c-3.7,1.1-7.5,2.2-11.2,3.2c-1.2-5.5-1.5-11-0.9-16.7c0.5-5-7.2-4.9-7.7,0c-0.4,3.8-0.4,7.6-0.1,11.4&#10;&#9;&#9;&#9;&#9;c-0.8-1.3-1.7-2.5-2.5-3.8c-2.7-4.1-9.4-0.3-6.7,3.9c2.5,3.8,5.1,7.7,7.6,11.5c-29.5,16.7-66.4,18.6-97.4,4.3&#10;&#9;&#9;&#9;&#9;c-0.1-0.5-0.2-1-0.4-1.5c15.8-2.9,30.8-9.7,43.1-20.1c7.4-6.3,13.4-14.2,17.4-23c9.9,10.5,26.3,6.6,31.7-7.2&#10;&#9;&#9;&#9;&#9;c2.9-7.5-0.7-16.2-6.3-21.3c-0.5-0.5-1.1-0.9-1.6-1.3c12.7-19.1,17.2-42.2,13.1-64.7c-3.9-21.5-17.3-40.5-34.7-53.3&#10;&#9;&#9;&#9;&#9;c-4.2-3.1-8.7-5.7-13.4-7.8c0.4-1.4,0.5-2.7,0.5-3.9c4.3-1.6,7.9-4.3,10.5-7.7c0.3,0.7,0.7,1.3,1.4,1.9c15,10.7,36.3,8.8,49.4-4&#10;&#9;&#9;&#9;&#9;c3.3-3.2-0.9-8-4.7-6.1c-10.2,5.1-18.4-5.5-21.6-13.9c-3.2-8.6-3.9-17.9-7.2-26.5c-5.6-14.7-19.8-23.4-35-24.9&#10;&#9;&#9;&#9;&#9;c-15.4-1.5-29.9,7.5-38.9,19.4c-11,14.6-11.3,35.2-4.5,51.6c0.2,0.4,0.4,0.8,0.7,1.1c-0.9,0.9-1.7,1.8-2.5,2.8&#10;&#9;&#9;&#9;&#9;c-0.3,0.4-0.5,0.8-0.7,1.2c-1.3,0.1-2.6,0.1-3.9,0.2c-16.4,1.1-33.6,5.6-45.8,16.7c-0.4-0.1-0.8-0.2-1.4-0.1&#10;&#9;&#9;&#9;&#9;c-16.1,1.7-28.9,11.5-37.8,24.7c-10.7,15.8-13.4,35.9-16,54.3c-0.1,0.7,0,1.3,0.2,1.9c-6.8,2.3-12.4,8-14.1,16.1&#10;&#9;&#9;&#9;&#9;c-3.3,16.5,13.3,28,27.9,23.5c0.5,10.3,2.9,20.6,7.4,30.3c5.8,12.4,15,22.7,26.2,29.9c-0.3,0.5-0.6,1-0.9,1.5&#10;&#9;&#9;&#9;&#9;c-30.4,2.8-59.1-14.4-70-43c2.3-0.6,4.6-1.3,6.8-1.9c4.8-1.3,2.8-8.8-2.1-7.5c-2,0.6-4,1.1-6,1.7c1.2-5,2.4-10.1,3.5-15.1&#10;&#9;&#9;&#9;&#9;c1.1-4.8-6.3-6.9-7.5-2.1c-1.3,5.7-2.7,11.4-4,17.1c-4.1-3.5-7.5-7.6-10.2-12.3c-2.5-4.3-9.2-0.4-6.7,3.9&#10;&#9;&#9;&#9;&#9;c4.3,7.5,10.2,13.6,17.3,18.4c0.4,0.3,0.9,0.5,1.4,0.5c11.7,29.9,40.7,49.4,72.6,48.3c-14,25.6-23.4,53.4-27.8,82.2&#10;&#9;&#9;&#9;&#9;c-0.2,0.5-0.3,1.1-0.2,1.6c-1,6.7-1.7,13.4-2.1,20.2c0,0.4,0,0.7,0.1,1c-0.7,1.9-0.1,4.4,2.3,5.4c2.2,0.8,4.4,1.6,6.7,2.4&#10;&#9;&#9;&#9;&#9;c-3.2,10.5-14.6,13.9-24.8,11.8c-11.4-2.4-20.2-11.2-28.2-19c-0.3-0.3-0.6-0.5-0.9-0.7c1.1-5.9-0.3-12.1-4.2-17.2&#10;&#9;&#9;&#9;&#9;c-0.2-0.2-0.4-0.5-0.6-0.7c-0.3-1.6-1.5-3.1-3.7-3.1c-17.1-0.3-24.9,23.5-26.8,37c-0.4,2.6,1,4.7,3.7,4.9&#10;&#9;&#9;&#9;&#9;c10.1,0.9,21-2.9,27.2-11.2c0.5-0.7,0.9-1.3,1.4-2c10.4,10.1,21.6,19.1,36.7,20.4c11.9,1.1,24.1-6.4,27.5-17.9&#10;&#9;&#9;&#9;&#9;c23,6.8,47.1,9.2,71,7.2c4,13.8,18.4,20.8,32.2,19.6c15.7-1.3,28.1-12,38.8-22.9c4.9,9,14.8,14,23.8,18.1c2,0.9,5.3,0.4,5.7-2.3&#10;&#9;&#9;&#9;&#9;c1.4-9.6,3-20.3-1.3-29.5c-3.6-7.7-9.9-13.1-18.5-14.1c-0.7-0.1-1.2,0-1.7,0.2c-0.6,0-1.2,0.2-1.8,0.5c-6.8,4-9.7,11.3-8.8,18.7&#10;&#9;&#9;&#9;&#9;c-9.2,9.5-18.8,18.9-31.9,22.6c-11.1,3.1-24.3-1-28.5-11.9c4.8-0.6,9.5-1.3,14.2-2.3c2.8-0.6,3.3-3.2,2.3-5.2&#10;&#9;&#9;&#9;&#9;c-1.3-34.5-5.8-68.9-13.4-102.6c34.3,13.5,74.2,9.8,105.2-10.7c0.6-0.4,1.1-0.9,1.3-1.5c4-1.2,8.1-2.3,12.1-3.5&#10;&#9;&#9;&#9;&#9;C1334.2,740.7,1332.2,733.2,1327.4,734.6z M1040.6,864.3c1-4.8,2.6-9.5,4.9-14c2.3-4.8,5.9-10.9,11.4-12.1&#10;&#9;&#9;&#9;&#9;C1066.6,851.3,1053.6,862.9,1040.6,864.3z M1280.4,845.3C1280.4,845.3,1280.4,845.3,1280.4,845.3c13.7,1.6,14.1,17.7,13,29.1&#10;&#9;&#9;&#9;&#9;c-5.5-2.7-10.8-5.8-14.5-10.8C1274.6,858,1274,849.5,1280.4,845.3z M1293.6,691c0.5,10.6-13.8,15.1-19.9,6.9&#10;&#9;&#9;&#9;&#9;c-0.6-0.8-1.3-1.3-2.1-1.5c1.8-5.5,2.8-11.3,3-17.1C1283.5,676.1,1293.2,680.7,1293.6,691z M1221.2,483.6&#10;&#9;&#9;&#9;&#9;c10.8-12.4,28.4-16.2,43.1-8.8c17.1,8.7,16.2,27.7,22.1,43.4c2.9,7.8,8.9,14.9,16.3,17.7c-9.4,3.3-20.3,1.9-28.8-4.1&#10;&#9;&#9;&#9;&#9;c-0.7-0.5-1.4-0.7-2.1-0.7c0.9-2.1,1.5-4.4,1.8-6.8c1.5-12.2-3.9-23.2-10.1-33.3c-2.6-4.3-9.3-0.4-6.7,3.9&#10;&#9;&#9;&#9;&#9;c6.8,11.3,17.4,35.3-1,42c-3.6-5.6-11-9.3-17.6-10.8c-8.3-1.9-16.8-0.1-23.8,4.3C1208.4,514.6,1209.7,496.7,1221.2,483.6z&#10;&#9;&#9;&#9;&#9; M1250.2,545.3c-11.1-3.9-23-5.7-34.8-6c4.1-3.5,9-5.6,14.6-6.1C1236.5,532.6,1251.6,536.5,1250.2,545.3z M1114.3,668.6&#10;&#9;&#9;&#9;&#9;c-0.4,0.1-0.7,0.2-1.1,0.3c-10.4,4.8-21.3-4.1-19.1-15.1c2.3-11.7,16.4-13,23.6-5.3C1115.8,655,1114.6,661.8,1114.3,668.6z&#10;&#9;&#9;&#9;&#9; M1120.5,640.4c-3.7-3-8.2-4.5-12.6-4.5c3.7-26.1,10.9-63.3,40.1-70.9c0,0,0,0,0,0c-2.8,4.2,3.9,8,6.7,3.9&#10;&#9;&#9;&#9;&#9;c10.4-15.8,30.4-20.6,48.1-21.7c21.9-1.4,44.3,2.2,62.8,14.6c35.6,23.9,43.6,73.3,20.2,108.4c-0.2,0.3-0.3,0.5-0.4,0.8&#10;&#9;&#9;&#9;&#9;c-3.7-0.8-7.5-0.6-11.1,0.4c-0.3-2.7-0.8-5.5-1.5-8.2c0.8-0.2,1.5-0.3,2.3-0.5c4.8-1.2,2.8-8.6-2.1-7.5&#10;&#9;&#9;&#9;&#9;c-34.1,8.4-70-5.1-89.7-34.3c-2.8-4.1-9.5-0.2-6.7,3.9c5.7,8.4,12.6,15.6,20.3,21.6c-21.6-4-38.2-21.1-41.9-43.3&#10;&#9;&#9;&#9;&#9;c-0.8-4.9-8.3-2.8-7.5,2.1c0.8,4.7,2.1,9.2,3.9,13.4c-9.2,6.1-19.5,9-30.7,8.6c-5-0.2-5,7.5,0,7.7c0.7,0,1.4,0,2,0&#10;&#9;&#9;&#9;&#9;C1122,636.6,1121.2,638.5,1120.5,640.4z M1129.1,704.6c-11.1-21.2-8.9-47.3,1.6-68.2c0.4-0.7,0.5-1.4,0.4-2&#10;&#9;&#9;&#9;&#9;c8.5-1.1,16.6-4.1,23.9-8.9c10.2,17.5,29.1,29,50.3,29.5c1.3,0,2.3-0.5,2.9-1.2c17.1,9.5,37,13.5,57,10.8&#10;&#9;&#9;&#9;&#9;c5.7,21.1-3.3,42.7-19.3,56.9c-17.3,15.3-42.6,21.2-65.2,19.1C1158.2,738.3,1139.4,724.4,1129.1,704.6z M1186.6,748.5&#10;&#9;&#9;&#9;&#9;c-0.8,5.3-4.9,8.8-10.4,8.8c-6.1-0.1-9.8-6.2-8.9-11.7c3.8,1.1,7.7,1.9,11.6,2.3C1181.4,748.3,1184,748.4,1186.6,748.5z&#10;&#9;&#9;&#9;&#9; M1133.6,854.8c-4.6-1.3-9.1-2.7-13.6-4.3c0,0,0,0,0-0.1c0.3-5.2,0.8-10.3,1.5-15.5c4.1,1.2,8.3,2.2,12.4,3.2&#10;&#9;&#9;&#9;&#9;C1133.8,843.6,1133.7,849.2,1133.6,854.8z M1141.2,856.7c0.1-0.3,0.1-0.6,0.1-0.9c0.1-5.4,0.2-10.8,0.3-16.2&#10;&#9;&#9;&#9;&#9;c5.3,1,10.5,1.8,15.8,2.3c-0.5,6.1-0.1,12,1.3,17.9C1152.9,859.1,1147,858.1,1141.2,856.7z M1167.1,860.9c0-0.1,0-0.2-0.1-0.3&#10;&#9;&#9;&#9;&#9;c-1.8-5.8-2.5-11.8-1.9-17.8c5,0.4,10,0.6,14.9,0.6c0.7,6.1,1.4,12.2,2.1,18.2C1177.1,861.5,1172.1,861.3,1167.1,860.9z&#10;&#9;&#9;&#9;&#9; M1189.8,861.5c-0.7-6.1-1.4-12.1-2.1-18.2c3.4-0.1,6.8-0.3,10.3-0.5c1.3,6,2.6,12,3.8,18&#10;&#9;&#9;&#9;&#9;C1197.8,861.1,1193.8,861.3,1189.8,861.5z M1216.4,858.7c-2.3,0.4-4.6,0.8-6.9,1.1c-1.3-5.9-2.5-11.8-3.8-17.7&#10;&#9;&#9;&#9;&#9;c3.2-0.4,6.5-0.8,9.7-1.3C1215.9,846.7,1216.2,852.7,1216.4,858.7z M1214.8,833.1c-30.8,4.9-62.3,2.8-92.2-5.9&#10;&#9;&#9;&#9;&#9;c4.9-30.6,15.8-59.9,32-86.5c1.8,0.9,3.6,1.7,5.4,2.4c-2.1,9.2,2.5,18.1,12.1,21.3c11,3.7,21.1-5.4,22.2-15.9&#10;&#9;&#9;&#9;&#9;c2.1-0.1,4.2-0.3,6.3-0.5C1207.6,776,1212.3,804.4,1214.8,833.1z" transform="matrix(1, 0, 0, 1, 0, 0)"/></g></g><g transform="matrix(1.7650763591354373, 0, 0, 1.7650763591354373, 512.512185413916, -42.75297037625984)"><g transform="matrix(1, 0, 0, 1, 0, 0)">
		<path d="M 128.39999389648438 236 L 153.6999969482422 192.3000030517578 L 128.39999389648438 148.60000610351562 Z" style="fill: rgb(51, 51, 51); opacity: 1;"/>
		<path d="M 107.900002 168.300003 H 122.100001 V 216.200005 H 107.900002 V 168.300003 Z" style="fill: rgb(51, 51, 51); opacity: 1;"/>
		<path d="M 89.300003 168.300003 H 100.700003 V 216.200005 H 89.300003 V 168.300003 Z" style="fill: rgb(51, 51, 51); opacity: 1;"/>
		<path d="M 73.599998 168.300003 H 82.499998 V 216.200005 H 73.599998 V 168.300003 Z" style="fill: rgb(51, 51, 51); opacity: 1;"/>
		<path d="M 60.799999 168.300003 H 66.699999 V 216.200005 H 60.799999 V 168.300003 Z" style="fill: rgb(51, 51, 51); opacity: 1;"/>
		<path d="M 48.900002 168.300003 H 53.300002 V 216.200005 H 48.900002 V 168.300003 Z" style="fill: rgb(51, 51, 51); opacity: 1;"/>
		<path d="M 32 168.300003 H 33.1 V 216.200005 H 32 V 168.300003 Z" style="fill: rgb(51, 51, 51); opacity: 1;"/>
		<path d="M 39.400002 168.300003 H 41.500001 V 216.200005 H 39.400002 V 168.300003 Z" style="fill: rgb(51, 51, 51); opacity: 1;"/>
	</g></g></g></svg>